<svg width="474" height="287" viewBox="0 0 474 287" fill="none" xmlns="http://www.w3.org/2000/svg">
<path d="M86.1141 94.0243H16.9867V222.588H86.1141V94.0243Z" fill="#EBEBEB"/>
<path d="M89.4577 90.4757H13.636V94.0243H89.4577V90.4757Z" fill="#DBDBDB"/>
<path d="M113.301 90.4757H89.4576V94.0243H113.301V90.4757Z" fill="#EBEBEB"/>
<path d="M109.533 94.0243H86.114V222.588H109.533V94.0243Z" fill="#DBDBDB"/>
<path d="M78.6704 138.34H24.4232V107.639H78.6704V138.34ZM24.5999 138.163H78.4937V107.816H24.5999V138.163Z" fill="#C7C7C7"/>
<path d="M54.537 116.603H43.976V122.675H54.537V116.603Z" fill="#C7C7C7"/>
<path d="M57.7464 122.3H47.0439V116.97H57.7746L57.7464 122.3ZM47.1924 122.123H57.5696V117.175H47.1924V122.123Z" fill="#C7C7C7"/>
<path d="M78.6704 176.816H24.4232V146.151H78.6704V176.816ZM24.5999 176.639H78.4937V146.328H24.5999V176.639Z" fill="#C7C7C7"/>
<path d="M54.537 155.114H43.976V161.187H54.537V155.114Z" fill="#C7C7C7"/>
<path d="M57.7464 160.819H47.0439V155.482H57.7746L57.7464 160.819ZM47.1924 160.642H57.5696V155.659H47.1924V160.642Z" fill="#C7C7C7"/>
<path d="M78.6704 215.328H24.4232V184.663H78.6704V215.328ZM24.5999 215.151H78.4937V184.839H24.5999V215.151Z" fill="#C7C7C7"/>
<path d="M54.537 193.626H43.976V199.698H54.537V193.626Z" fill="#C7C7C7"/>
<path d="M57.7464 199.331H47.0439V194.001H57.7746L57.7464 199.331ZM47.1924 199.133H57.5696V194.185H47.1924V199.133Z" fill="#C7C7C7"/>
<path d="M439.223 131.49H370.095V222.588H439.223V131.49Z" fill="#EBEBEB"/>
<path d="M442.567 127.941H366.745V131.49H442.567V127.941Z" fill="#DBDBDB"/>
<path d="M466.41 127.941H442.567V131.49H466.41V127.941Z" fill="#EBEBEB"/>
<path d="M462.642 131.49H439.223V222.588H462.642V131.49Z" fill="#DBDBDB"/>
<path d="M431.695 145.197H377.624V175.678H431.695V145.197Z" fill="#A6A6A6"/>
<path d="M426.428 137.392H385.266V167.231H426.428V137.392Z" fill="#C7C7C7"/>
<path d="M399.806 134.296H385.266V137.392H400.648L399.806 134.296Z" fill="#C7C7C7"/>
<path d="M426.315 167.223H385.16L381.986 139.867H423.141L426.315 167.223Z" fill="#A6A6A6"/>
<path d="M396.194 137.032H381.653L381.986 139.867H397.361L396.194 137.032Z" fill="#A6A6A6"/>
<path d="M405.645 145.197H351.575V175.678H405.645V145.197Z" fill="#EBEBEB"/>
<path d="M405.73 175.805H351.49V145.105H405.73V175.805ZM351.667 175.628H405.553V145.281H351.667V175.628Z" fill="#C7C7C7"/>
<path d="M381.604 154.068H371.043V160.14H381.604V154.068Z" fill="#C7C7C7"/>
<path d="M384.806 159.773H374.075V154.436H384.806V159.773ZM374.252 159.596H384.629V154.598H374.252V159.596Z" fill="#C7C7C7"/>
<path d="M431.695 149.763H405.78V175.678H431.695V149.763Z" fill="#DBDBDB"/>
<path d="M431.779 214.282H377.532V183.616H431.779V214.282ZM377.709 214.105H431.596V183.793H377.709V214.105Z" fill="#C7C7C7"/>
<path d="M407.646 192.58H397.085V198.652H407.646V192.58Z" fill="#C7C7C7"/>
<path d="M410.855 198.284H400.125V192.947H410.855V198.284ZM400.301 198.108H410.678V193.124H400.301V198.108Z" fill="#C7C7C7"/>
<path d="M9.59961 222.587L67.2117 222.418L124.817 222.354L240.027 222.234L355.237 222.354L412.841 222.418L470.454 222.587L412.841 222.764L355.237 222.821L240.027 222.941L124.817 222.821L67.2117 222.757L9.59961 222.587Z" fill="#263238"/>
<path d="M240.027 286.668C351.972 286.668 442.722 276.724 442.722 264.457C442.722 252.19 351.972 242.246 240.027 242.246C128.081 242.246 37.3312 252.19 37.3312 264.457C37.3312 276.724 128.081 286.668 240.027 286.668Z" fill="#EBEBEB"/>
<path d="M451.636 172.179C450.972 174.598 450.534 177.073 450.328 179.573C450.399 179.693 450.385 180.152 450.328 180.025C450.328 180.435 449.699 180.357 449.699 179.962V179.184C448.285 177.389 446.165 176.25 444.461 174.695C443.098 173.47 442.104 171.888 441.591 170.129C440.177 165.279 441.506 160.14 439.81 155.284C438.354 151.12 435.738 147.508 433.525 143.719C431.193 139.725 429.468 135.526 429.284 130.846C429.15 127.27 429.574 122.491 432.302 119.812C435.194 116.984 438.778 119.105 440.997 121.636C447.416 129.001 450.385 138.311 451.601 147.833C452.265 153.107 452.951 158.437 452.795 163.724C452.691 166.574 452.303 169.406 451.636 172.179Z" fill="#F2D6C9"/>
<path d="M450.357 181.503C450.708 176.532 450.649 171.541 450.18 166.58C450.18 166.58 450.18 166.545 450.18 166.523C450.258 162.487 450.576 158.472 450.42 154.429C450.226 150.06 449.632 145.718 448.646 141.457C448.646 141.407 448.554 141.457 448.568 141.457C449.361 145.642 449.833 149.882 449.982 154.139C450.067 156.424 450.05 158.705 449.932 160.981C449.89 161.724 449.819 162.466 449.77 163.215C448.088 151.887 443.989 141.053 437.753 131.447C437.668 131.313 437.435 131.447 437.519 131.589C441.97 138.89 445.265 146.835 447.289 155.142C444.2 149.424 439.513 144.723 436.077 139.223C436.077 139.223 436.014 139.223 436.028 139.259C439.131 145.38 444.27 150.201 447.543 156.224C448.109 158.684 448.575 161.172 448.922 163.653C449.384 167.077 449.632 170.527 449.664 173.981C447.783 170.447 445.832 167.103 444.291 163.378C444.291 163.279 444.108 163.378 444.143 163.448C445.451 167.308 447.211 171.472 449.678 174.759C449.678 177.205 449.61 179.648 449.473 182.089C449.091 188.607 447.974 195.04 447.458 201.536C447.454 201.575 447.465 201.615 447.489 201.646C447.514 201.677 447.55 201.698 447.589 201.702C447.628 201.707 447.668 201.696 447.699 201.671C447.73 201.647 447.751 201.611 447.755 201.571C449.077 194.949 449.946 188.243 450.357 181.503Z" fill="#263238"/>
<path d="M443.436 131.271C443.432 131.265 443.427 131.26 443.421 131.257C443.415 131.253 443.408 131.252 443.401 131.252C443.394 131.252 443.387 131.253 443.381 131.257C443.374 131.26 443.369 131.265 443.365 131.271C444.553 134.558 445.224 137.894 446.087 141.273C446.097 141.302 446.116 141.326 446.142 141.341C446.168 141.356 446.199 141.362 446.229 141.357C446.258 141.352 446.285 141.336 446.305 141.313C446.324 141.29 446.334 141.261 446.334 141.231C445.852 137.789 444.875 134.434 443.436 131.271Z" fill="#263238"/>
<path d="M473.663 145.041C472.871 146.982 471.957 148.871 470.927 150.696C468.807 154.584 466.545 158.154 466.142 162.713C466.078 164.742 465.789 166.757 465.279 168.722C464.72 170.398 463.914 171.983 462.89 173.423C460.564 176.809 457.659 179.721 455.51 183.235C453.269 186.897 451.613 190.887 450.604 195.061C450.547 195.287 450.194 195.223 450.243 194.997C450.248 194.981 450.248 194.964 450.243 194.948C450.243 194.948 450.243 194.948 450.243 194.898C449.904 185.178 450.682 175.388 453.644 166.071C454.951 161.968 456.524 157.953 458.352 154.054C459.85 150.618 462.012 147.512 464.714 144.914C466.523 143.281 470.447 140.192 473.02 141.832C474.243 142.581 474.151 143.825 473.663 145.041Z" fill="#F2D6C9"/>
<path d="M463.901 167.075C462.184 169.894 460.295 172.604 458.246 175.19C457.298 176.42 456.344 177.636 455.418 178.866C454.973 179.453 454.471 180.032 454.068 180.654C454.322 179.629 454.57 178.604 454.831 177.586C456.089 172.674 457.291 167.725 459.164 163.003C461.075 158.428 463.33 154.005 465.908 149.77C465.972 149.657 465.795 149.579 465.725 149.685C463.675 153.064 461.589 156.436 459.864 159.999C458.907 161.983 458.076 164.025 457.376 166.114C458.165 161.683 459.271 157.315 460.684 153.043C460.684 153.008 460.642 152.979 460.628 153.043C458.776 157.358 457.617 161.939 457.192 166.615C456.768 167.874 456.379 169.153 456.019 170.433C454.485 175.869 453.142 181.368 451.898 186.882C451.875 183.258 452.19 179.64 452.838 176.074C452.838 176.057 452.831 176.041 452.819 176.029C452.807 176.017 452.791 176.01 452.774 176.01C452.757 176.01 452.741 176.017 452.729 176.029C452.717 176.041 452.711 176.057 452.711 176.074C451.76 179.79 451.442 183.64 451.77 187.462C451.299 189.559 450.84 191.658 450.392 193.76C449.438 198.242 448.271 202.801 447.706 207.347C447.706 207.368 447.713 207.389 447.727 207.405C447.74 207.422 447.759 207.433 447.78 207.437C447.8 207.441 447.822 207.438 447.841 207.428C447.86 207.418 447.874 207.402 447.882 207.382C448.589 204.929 448.95 202.384 449.501 199.903C450.053 197.422 450.611 194.955 451.191 192.445C452.03 188.826 452.906 185.216 453.82 181.616C454.421 180.301 455.581 179.128 456.457 178.018C457.334 176.908 458.366 175.586 459.285 174.349C461.032 172.063 462.597 169.642 463.964 167.11C464.014 167.061 463.929 167.018 463.901 167.075Z" fill="#263238"/>
<path d="M464.311 162.918C462.172 165.647 460.319 168.59 458.783 171.698C458.783 171.74 458.825 171.783 458.854 171.74C460.713 168.828 462.544 165.887 464.396 162.968C464.431 162.925 464.346 162.869 464.311 162.918Z" fill="#263238"/>
<path d="M422.936 154.252C424.201 156.422 425.636 159.03 425.057 161.632C424.717 163.279 423.509 164.622 423.29 166.304C422.802 170.016 426.506 172.468 429.185 174.222C435.858 178.604 445.005 182.506 446.221 191.449C446.271 191.76 446.815 191.682 446.773 191.371C446.775 191.352 446.775 191.333 446.773 191.314C446.773 191.314 446.773 191.314 446.773 191.265C447.65 186.75 447.606 182.105 446.645 177.608C445.656 172.999 443.641 168.856 441.266 164.806C437.251 157.956 432.995 150.936 426.923 145.72C425.241 144.263 421.798 141.655 420.462 144.935C419.126 148.215 421.395 151.608 422.936 154.252Z" fill="#F2D6C9"/>
<path d="M429.051 168.779C433.469 173.571 440.51 176.258 444.313 181.623C442.188 173.455 438.168 165.904 432.578 159.582C432.437 159.419 432.663 159.179 432.826 159.334C436.899 163.293 440.156 168.012 442.411 173.225C441.363 169.585 439.981 166.05 438.283 162.664C438.268 162.638 438.264 162.607 438.272 162.577C438.28 162.548 438.299 162.523 438.325 162.508C438.351 162.493 438.383 162.489 438.412 162.497C438.441 162.505 438.466 162.525 438.481 162.551C440.571 166.24 442.064 170.236 442.906 174.391C447.918 186.543 448.384 200.787 447.331 213.596C447.331 213.78 447.041 213.787 447.048 213.596C447.331 203.501 447.168 193.237 444.751 183.383C444.701 183.178 444.645 182.973 444.595 182.768C440.453 176.993 433.448 174.285 428.945 168.828C428.931 168.807 429.001 168.736 429.051 168.779Z" fill="#263238"/>
<path d="M427.651 155.432C429.708 158.803 432.034 162.001 434.607 164.997C434.611 165.001 434.614 165.006 434.615 165.011C434.617 165.016 434.618 165.022 434.618 165.027C434.617 165.033 434.616 165.038 434.613 165.043C434.611 165.049 434.608 165.053 434.603 165.057C434.599 165.06 434.594 165.063 434.589 165.065C434.584 165.067 434.578 165.068 434.573 165.067C434.567 165.067 434.562 165.066 434.557 165.063C434.551 165.061 434.547 165.057 434.543 165.053C431.66 162.312 429.285 159.081 427.531 155.51C427.521 155.494 427.517 155.475 427.521 155.456C427.525 155.438 427.536 155.421 427.552 155.411C427.568 155.401 427.587 155.397 427.606 155.401C427.625 155.405 427.641 155.416 427.651 155.432Z" fill="#263238"/>
<path d="M438.113 222.651H458.458L455.715 195.28H441.245L438.113 222.651Z" fill="#455A64"/>
<path d="M440.736 199.733H456.16L455.715 195.28H441.245L440.736 199.733Z" fill="#263238"/>
<path d="M438.749 196.623H457.821V192.255H438.749V196.623Z" fill="#455A64"/>
<path d="M131.624 271.533C129.977 272.07 83.0533 271.462 81.2861 270.303C80.5792 269.872 80.2893 263.029 80.155 254.751V254.49C80.1197 252.786 80.0985 251.026 80.0985 249.252C80.0985 249.004 80.0985 248.757 80.0985 248.545C80.0278 236.598 80.2186 224.199 80.2186 224.199L111.605 224.51L110.665 248.615L110.629 249.57L110.438 254.56V255.076C110.438 255.076 128.295 263.34 130.111 264.817C131.928 266.295 133.285 271.01 131.624 271.533Z" fill="#DD6A57"/>
<path d="M117.522 258.272C117.401 258.236 117.338 258.194 117.331 258.158L117.522 258.272Z" fill="#F2D6C9"/>
<path d="M131.617 271.533C129.977 272.063 83.0533 271.462 81.2789 270.296C80.6781 269.921 80.36 264.471 80.2045 257.452C88.8003 259.247 122.123 265.984 123.035 263.107C123.396 261.99 120.547 260.053 118.744 258.957C123.693 261.304 129.122 263.99 130.055 264.782C131.872 266.288 133.285 271.01 131.617 271.533Z" fill="#F2D6C9"/>
<path opacity="0.1" d="M102.182 271.462C91.6209 271.208 82.099 270.812 81.3143 270.296C80.7135 269.921 80.3954 264.471 80.2399 257.452C81.4628 257.699 83.1806 258.06 85.2376 258.47L102.182 271.462Z" fill="black"/>
<path d="M70.5836 89.0052C70.5836 89.0052 77.6526 168.298 78.7765 174.349C79.0381 175.727 79.2077 183.22 79.3138 192.848C79.5541 213.871 79.4127 251.775 79.4127 251.775H112.488C112.488 251.775 111.506 186.097 110.043 174.017C108.579 161.936 99.22 89.0123 99.22 89.0123L70.5836 89.0052Z" fill="#37474F"/>
<path d="M110.99 246.014C105.829 245.908 107.314 245.866 102.154 245.816C99.63 245.816 83.025 245.646 80.6639 246.035C80.6145 246.035 80.6145 246.134 80.6639 246.141C83.025 246.53 99.63 246.389 102.154 246.36C107.314 246.311 105.829 246.269 110.99 246.163C111.006 246.158 111.019 246.148 111.029 246.134C111.039 246.121 111.044 246.105 111.044 246.088C111.044 246.072 111.039 246.056 111.029 246.042C111.019 246.029 111.006 246.019 110.99 246.014Z" fill="#263238"/>
<path d="M85.6971 208.464L85.591 194.071C85.5557 189.427 85.591 184.776 85.3436 180.131C84.8912 170.737 82.9826 161.49 81.6324 152.202C80.2822 142.913 79.1441 133.568 78.0979 124.23C76.9457 113.754 75.9278 103.256 74.8533 92.773C74.8533 92.7023 74.7331 92.7023 74.7402 92.773C76.3024 111.499 78.0414 130.238 80.6286 148.83C81.279 153.458 81.9859 158.078 82.7493 162.692C83.5269 167.358 84.2903 172.03 84.6579 176.752C85.0255 181.474 85.0821 186.006 85.1245 190.643L85.2729 205.021C85.3719 215.674 85.4779 232.067 85.5769 242.713C85.5769 242.756 85.594 242.797 85.6245 242.828C85.655 242.858 85.6964 242.875 85.7395 242.875C85.7826 242.875 85.824 242.858 85.8544 242.828C85.8849 242.797 85.9021 242.756 85.9021 242.713C85.8384 233.205 85.7678 217.964 85.6971 208.464Z" fill="#263238"/>
<path d="M63.6066 89.0052C63.6066 89.0052 77.6243 168.298 78.7766 174.349C79.0381 175.727 79.2078 183.22 79.3138 192.848L95.1129 89.0052H63.6066Z" fill="#263238"/>
<path d="M93.2114 274.332C91.5361 274.749 44.7678 270.798 43.0854 269.532C42.4421 269.059 42.6118 262.209 43.0854 253.981C43.0854 253.896 43.0854 253.804 43.0854 253.719C43.1773 252.016 43.2763 250.262 43.4035 248.488C43.4035 248.241 43.4035 248 43.4459 247.781C44.2235 235.863 45.2909 223.506 45.2909 223.506L76.5711 225.995L73.9061 249.966L73.8071 250.92L73.2628 255.868L73.1992 256.391C73.1992 256.391 90.4263 265.899 92.1299 267.504C93.8335 269.108 94.8938 273.929 93.2114 274.332Z" fill="#DD6A57"/>
<path d="M93.2114 274.332C91.529 274.749 44.7749 270.798 43.0854 269.533C42.5341 269.13 42.5765 264.068 42.8875 257.459C50.1261 259.311 85.0327 268.062 86.1071 265.235C86.3263 264.62 85.584 263.715 84.5802 262.831C88.1996 264.952 91.4584 266.882 92.1582 267.532C93.8406 269.115 94.8868 273.922 93.2114 274.332Z" fill="#F2D6C9"/>
<path d="M74.613 253.564L41.5656 252.15C41.5656 252.15 50.5855 179.636 50.7552 175.176C51.0026 168.552 54.1766 141.203 56.8487 119.063C56.8487 119.063 51.7873 107.045 61.2597 88.9629H99.2342C99.2342 88.9629 96.6893 106.197 92.3278 117.126C89.4018 118.147 86.5763 119.437 83.8874 120.978C83.8874 120.978 80.1055 170.348 79.9642 176.505C79.7026 188.692 74.613 253.564 74.613 253.564Z" fill="#37474F"/>
<path d="M73.7435 247.506C68.5973 247.18 70.0747 247.202 64.9214 246.933C62.3978 246.799 45.8352 245.957 43.4459 246.226C43.3965 246.226 43.3894 246.318 43.4459 246.325C45.7858 246.82 62.3766 247.378 64.9002 247.463C70.0606 247.633 68.5761 247.527 73.7435 247.633C73.8354 247.661 73.8425 247.513 73.7435 247.506Z" fill="#263238"/>
<path d="M63.7762 90.5958C61.8181 94.8372 59.9943 99.2977 59.3086 103.949C58.8125 108.938 59.3688 113.976 60.9416 118.737C60.9416 118.737 60.6659 122.646 60.369 125.142C60.0721 127.637 59.7823 130.161 59.4924 132.67C58.9128 137.741 58.3284 142.812 57.7393 147.883C56.58 157.968 55.4231 168.06 54.2685 178.159C53.1139 188.258 51.9711 198.353 50.84 208.443C49.7161 218.509 48.5143 228.568 47.5176 238.648C47.3904 239.906 47.2702 241.158 47.15 242.416C47.15 242.536 47.355 242.564 47.3692 242.416C48.7123 232.357 49.8574 222.276 51.0592 212.196C52.2609 202.116 53.4131 192.127 54.5936 182.089C55.7742 172.051 56.9335 161.915 58.0928 151.82C59.2379 141.874 60.5245 131.928 61.5071 121.968C61.6233 120.815 61.6517 119.654 61.5919 118.497C61.5919 118.497 59.4712 111.428 59.7328 106.847C59.9943 102.062 61.1466 98.4282 62.8502 94.0242C63.2743 92.9215 63.7197 91.8187 64.1438 90.723C64.2286 90.5322 63.8752 90.3908 63.7762 90.5958Z" fill="#263238"/>
<path d="M93.784 116.426C90.3571 117.668 87.0456 119.208 83.8875 121.028C83.8637 121.042 83.846 121.064 83.8376 121.091C83.8293 121.117 83.831 121.146 83.8423 121.171C83.8536 121.196 83.8739 121.217 83.8991 121.228C83.9244 121.239 83.9529 121.241 83.9794 121.233C87.3089 119.819 90.702 118.405 93.9537 116.822C93.9961 116.793 94.0272 116.751 94.0417 116.702C94.0562 116.653 94.0531 116.6 94.033 116.553C94.0128 116.506 93.977 116.468 93.9315 116.445C93.8861 116.421 93.8339 116.415 93.784 116.426Z" fill="#263238"/>
<path d="M89.1327 110.891C89.4578 108.904 89.7265 106.911 89.8961 104.91C90.2414 101.179 90.2012 97.4221 89.776 93.6991C89.7702 93.6782 89.7578 93.6597 89.7405 93.6466C89.7233 93.6334 89.7022 93.6263 89.6805 93.6263C89.6588 93.6263 89.6378 93.6334 89.6205 93.6466C89.6033 93.6597 89.5908 93.6782 89.5851 93.6991C89.6693 98.8747 89.3668 104.049 88.6803 109.18C88.3056 111.647 87.0615 115.358 89.6416 115.733C92.2218 116.108 93.9679 109.908 94.286 108.205C95.1077 103.36 95.2954 98.4294 94.8444 93.5365C94.8444 93.4163 94.6323 93.3951 94.6323 93.5365C94.6326 97.2523 94.4462 100.966 94.0739 104.663C93.9184 106.381 92.5399 115.86 89.5639 115.168C89.0691 115.047 88.8146 114.56 88.7368 113.81C88.7497 112.829 88.8826 111.854 89.1327 110.905" fill="#263238"/>
<path d="M89.6486 115.408C89.3707 116.047 89.1346 116.703 88.9417 117.373C88.7494 117.888 88.6558 118.435 88.666 118.985C88.666 119.091 88.8145 119.105 88.871 119.034C89.1853 118.548 89.4237 118.016 89.5779 117.458C89.8041 116.85 90.0445 116.249 90.2848 115.634C90.2997 115.592 90.3062 115.548 90.3039 115.504C90.3016 115.459 90.2907 115.416 90.2716 115.376C90.2526 115.336 90.2259 115.3 90.1929 115.27C90.16 115.241 90.1216 115.218 90.0798 115.203C90.0381 115.188 89.9938 115.182 89.9495 115.184C89.9052 115.186 89.8618 115.197 89.8218 115.216C89.7817 115.235 89.7458 115.262 89.7161 115.295C89.6864 115.328 89.6635 115.366 89.6486 115.408Z" fill="#263238"/>
<path d="M78.8543 20.104C72.7043 25.3775 74.415 33.0685 71.8489 37.2463C70.2726 39.7982 65.1546 42.4915 64.1367 45.4321C62.4684 50.2602 66.5614 51.9992 65.6424 54.6218C64.3488 58.3471 59.3652 58.0573 58.4674 64.1437C57.5696 70.2301 64.271 76.7052 80.1621 78.4583C96.0531 80.2114 104.79 74.3937 105.356 69.2263C105.921 64.0589 100.641 62.3411 100.28 58.4885C100.054 56.0214 103.313 54.3108 103.483 49.7725C103.652 45.2342 99.2412 43.7639 98.5908 39.9113C97.9405 36.0587 100.005 26.6994 94.3495 21.9208C88.6943 17.1421 81.9152 17.4956 78.8543 20.104Z" fill="#263238"/>
<path d="M79.5613 20.2385C77.8404 21.4591 76.4389 23.0764 75.4754 24.9534C74.4798 26.9416 73.7183 29.0386 73.2063 31.2024C72.9364 32.4916 72.5214 33.7461 71.9692 34.9419C71.4281 35.9401 70.7094 36.8312 69.8485 37.5715C68.1308 39.1267 66.0808 40.3072 64.5327 42.0603C62.9846 43.8134 61.9384 45.9271 62.518 48.1821C62.8361 49.4121 63.649 50.4088 64.1509 51.554C64.6528 52.6991 64.8154 53.9857 63.8823 54.8905C63.0906 55.661 61.9384 56.0145 61.0547 56.6436C60.1651 57.2623 59.382 58.0215 58.7361 58.8915C58.08 59.7527 57.6109 60.7414 57.3589 61.7944C57.1069 62.8473 57.0776 63.9413 57.2728 65.0062C58.213 69.9545 62.8503 72.7821 67.1694 74.5281L68.9649 75.235C69.0568 75.2703 69.1346 75.136 69.0427 75.0936C64.7447 73.1708 59.754 70.9159 58.107 66.109C57.7291 65.0653 57.5964 63.9487 57.719 62.8455C57.8415 61.7424 58.2162 60.6822 58.8139 59.7469C59.4215 58.819 60.1928 58.0094 61.0901 57.3576C61.9525 56.7143 62.9492 56.3255 63.8328 55.7176C64.2683 55.4409 64.6227 55.0537 64.8598 54.5955C65.097 54.1373 65.2085 53.6244 65.183 53.1091C65.0448 51.9872 64.6426 50.9141 64.0096 49.9776C63.3441 48.9953 62.9917 47.8345 62.9987 46.6481C63.1261 45.4919 63.566 44.3922 64.2711 43.4671C65.6071 41.5726 67.5865 40.3355 69.3608 38.9005C71.1795 37.5655 72.5343 35.6941 73.2346 33.5493C73.5597 32.4112 73.7647 31.2448 74.0475 30.0997C74.3087 29.037 74.6273 27.9892 75.0018 26.961C75.7033 24.8908 76.8493 22.9992 78.3596 21.419C78.7622 21.0193 79.2025 20.6594 79.6744 20.3445C79.6956 20.2879 79.6461 20.2031 79.5613 20.2385Z" fill="#263238"/>
<path d="M106.084 65.4374C105.895 64.599 105.529 63.8108 105.009 63.1259C104.458 62.419 103.787 61.8322 103.172 61.189C102.549 60.6168 102.099 59.8824 101.871 59.0683C101.772 58.0724 102.022 57.0731 102.578 56.2407C103.112 55.3504 103.584 54.4245 103.992 53.4697C104.342 52.5189 104.545 51.52 104.592 50.5078C104.68 48.4205 104.122 46.3568 102.995 44.5981C102.451 43.7074 101.843 42.8662 101.298 41.9826C100.69 41.0214 100.214 39.9822 99.8845 38.8935C99.1776 36.5041 99.015 33.9452 98.4283 31.5559C97.813 29.0475 96.9388 26.6097 95.8198 24.2819C95.8198 24.2254 95.7067 24.2819 95.735 24.3314C96.7127 26.4173 97.4708 28.5992 97.9971 30.8419C98.499 32.9626 98.704 35.1398 99.0716 37.2888C99.2366 38.3451 99.5066 39.3823 99.8774 40.385C100.267 41.3119 100.741 42.2015 101.291 43.0429C102.366 44.796 103.476 46.5209 103.772 48.5991C104.068 50.6416 103.709 52.7253 102.747 54.5512C101.913 56.1276 100.74 57.8665 101.468 59.7186C102.09 61.2879 103.589 62.2281 104.571 63.5217C105.095 64.2363 105.462 65.0533 105.648 65.9194C105.835 66.7854 105.836 67.681 105.653 68.5478C104.79 72.9941 100.337 75.2067 96.1591 75.4259C96.1365 75.4318 96.1165 75.4451 96.1023 75.4637C96.088 75.4822 96.0803 75.505 96.0803 75.5284C96.0803 75.5518 96.088 75.5745 96.1023 75.593C96.1165 75.6116 96.1365 75.6249 96.1591 75.6308C99.7855 75.5884 103.737 73.9909 105.441 70.5907C106.246 68.9993 106.473 67.1778 106.084 65.4374Z" fill="#263238"/>
<path d="M88.044 58.1917C90.3061 64.1579 100.91 85.9162 108.869 87.6198C117.769 89.5213 135.024 82.6715 146.123 77.8929C150.11 76.1681 140.383 62.4119 136 60.8072C133.37 59.8388 115.069 69.29 111.018 69.29C108.735 69.29 103.589 60.885 93.4094 52.9536C87.839 48.5638 85.0044 50.1684 88.044 58.1917Z" fill="#DD6A57"/>
<path d="M143.316 78.7199C145.698 78.013 159.144 74.1322 161.851 72.3579C164.558 70.5835 171.96 64.7587 170.779 62.5461C169.599 60.3335 167.301 61.8392 167.301 61.8392C167.301 61.8392 170.044 58.8844 168.63 56.7637C167.216 54.643 163.731 57.1313 163.731 57.1313C163.731 57.1313 166.326 53.9079 164.792 51.8932C163.258 49.8786 160.147 52.9677 160.147 52.9677C160.147 52.9677 162.657 50.1401 160.692 49.002C158.331 47.6518 154.294 53.3989 151.156 55.1732C150.449 55.5761 136.141 62.3341 136.141 62.3341L143.316 78.7199Z" fill="#DD6A57"/>
<path d="M160.437 52.7062C157.461 56.9476 155.432 58.2554 150.732 60.2064C150.64 60.2417 150.682 60.3902 150.781 60.3548C155.553 58.8704 158.338 57.5697 160.678 52.8405C160.762 52.6073 160.586 52.5083 160.437 52.7062Z" fill="#263238"/>
<path d="M163.986 56.792C160.508 60.9061 158.331 62.3694 153.552 64.7658C153.481 64.8011 153.552 64.9213 153.602 64.893C158.479 62.9278 161.236 61.5635 164.163 56.997C164.297 56.792 164.141 56.6011 163.986 56.792Z" fill="#263238"/>
<path d="M167.054 61.9383C163.399 65.6778 161.066 67.3814 156.139 69.1203C156.127 69.1236 156.116 69.1292 156.106 69.1368C156.096 69.1444 156.088 69.1539 156.082 69.1647C156.069 69.1866 156.066 69.2126 156.072 69.237C156.079 69.2613 156.095 69.2821 156.117 69.2947C156.138 69.3073 156.164 69.3107 156.189 69.3041C161.392 68.0246 164.318 65.911 167.153 62.0584C167.351 61.7969 167.28 61.6979 167.054 61.9383Z" fill="#263238"/>
<path d="M131.999 61.9948C131.999 61.9948 135.901 56.1205 138.17 54.2897C140.439 52.4588 151.389 48.7617 152.308 51.0803C153.51 54.0776 147.614 57.4424 144.532 58.736C144.532 58.736 147.36 65.6636 143.62 69.0072C139.881 72.3509 131.999 61.9948 131.999 61.9948Z" fill="#DD6A57"/>
<path d="M152.372 51.9922C151.502 55.5267 147.317 56.9405 144.398 58.3967C144.354 58.416 144.315 58.4458 144.285 58.4835C144.255 58.5211 144.234 58.5655 144.225 58.6128C144.216 58.6602 144.219 58.709 144.233 58.755C144.247 58.8011 144.272 58.8431 144.306 58.8774C145.281 61.8605 145.797 66.3493 143.804 69.0001C143.796 69.0155 143.794 69.0329 143.797 69.0497C143.801 69.0665 143.81 69.0818 143.822 69.0931C143.835 69.1044 143.852 69.1111 143.869 69.1122C143.886 69.1132 143.903 69.1086 143.917 69.0991C146.441 66.5543 146.292 62.1008 145.013 58.8986C148.031 57.4424 152.167 55.8377 152.407 51.9993L152.372 51.9922Z" fill="#263238"/>
<path d="M104.501 89.2526L109.307 67.5368C104.464 62.1713 99.3234 57.0808 93.9112 52.289C86.1 45.5382 82.3818 46.2592 87.0614 58.2835C91.7411 70.3078 98.6475 84.2337 104.501 89.2526Z" fill="#F2D6C9"/>
<path d="M104.501 89.2526L109.307 67.5368C104.464 62.1713 99.3234 57.0808 93.9112 52.289C86.1 45.5382 82.3818 46.2592 87.0614 58.2835C91.7411 70.3078 98.6475 84.2337 104.501 89.2526Z" fill="#F2D6C9"/>
<path d="M106.586 67.0702C105.759 70.0392 105.045 73.0152 104.423 76.0337C104.112 77.5464 103.822 79.0663 103.553 80.5932C103.278 82.1413 103.108 83.7106 102.846 85.2728C102.846 85.3435 102.945 85.3576 102.96 85.2728C103.525 82.2332 104.197 79.2006 104.819 76.1609L106.664 67.0844C106.706 67.0349 106.607 67.0066 106.586 67.0702Z" fill="#263238"/>
<path d="M88.7509 61.6978C88.9568 62.1763 89.097 62.6804 89.168 63.1964C89.168 63.2813 89.168 63.3661 89.168 63.458C89.0125 63.0621 88.8499 62.6804 88.6873 62.2916C88.6914 62.0922 88.7126 61.8936 88.7509 61.6978ZM101.673 60.3689C101.556 61.4 101.704 62.4439 102.104 63.4015C102.179 62.8881 102.179 62.3667 102.104 61.8534C102.018 61.3393 101.861 60.8396 101.638 60.3689H101.673ZM97.3044 75.9206C97.23 76.4316 97.23 76.9506 97.3044 77.4616C97.3736 77.9757 97.5139 78.4777 97.7215 78.9532C97.7993 78.4401 97.7993 77.9182 97.7215 77.4051C97.6437 76.8909 97.4913 76.3908 97.269 75.9206H97.3044ZM101.39 71.0854C102.421 71.2121 103.468 71.0633 104.423 70.6542C103.909 70.5799 103.388 70.5799 102.875 70.6542C102.35 70.7219 101.837 70.8672 101.355 71.0854H101.39ZM85.5063 50.7621C86.0199 50.8331 86.5408 50.8331 87.0544 50.7621C87.5685 50.697 88.0708 50.5589 88.546 50.3521C88.0326 50.2778 87.5112 50.2778 86.9978 50.3521C86.4724 50.4177 85.9586 50.5557 85.4709 50.7621H85.5063ZM92.5753 70.9228C92.5704 70.9366 92.5704 70.9515 92.5753 70.9652C92.5924 70.9336 92.6066 70.9005 92.6177 70.8663C92.5909 70.8808 92.567 70.8999 92.547 70.9228H92.5753ZM105.716 78.628C105.306 78.9454 104.942 79.319 104.635 79.7378C104.319 80.1464 104.064 80.5989 103.879 81.0809C104.289 80.7677 104.651 80.3962 104.953 79.9782C105.27 79.5664 105.527 79.1118 105.716 78.628ZM97.6861 67.2116C97.3693 66.8027 96.9983 66.4389 96.5834 66.1301C96.1713 65.8154 95.7167 65.5607 95.2332 65.3737C95.8822 66.184 96.7262 66.8164 97.6861 67.2116ZM94.7525 55.7458C94.3398 56.0606 93.9733 56.4318 93.6639 56.8485C93.3471 57.2578 93.09 57.71 92.9004 58.1916C93.7165 57.5479 94.3541 56.7058 94.7525 55.7458Z" fill="white"/>
<path d="M87.0614 58.2836C91.741 70.3009 98.6191 84.2338 104.5 89.2528L106.48 80.3105L85.3789 48.691C84.5802 49.9776 85.0184 53.0455 87.0614 58.2836Z" fill="#263238"/>
<path d="M100.57 94.5474C100.57 94.5474 85.5557 98.0819 57.1173 95.6431C57.1173 95.6431 68.2368 60.1498 77.1932 50.5784C81.272 46.224 85.2518 46.8884 88.6308 49.6948C89.472 50.4017 99.9411 63.6419 100.796 68.265C101.581 72.3438 98.2658 76.875 98.2658 76.875L100.57 94.5474Z" fill="#F2D6C9"/>
<path d="M89.1327 63.1965C89.207 63.7075 89.207 64.2266 89.1327 64.7375C88.925 64.2651 88.7869 63.7651 88.7227 63.2531C88.6448 62.74 88.6448 62.218 88.7227 61.705C88.9278 62.1807 89.0658 62.6827 89.1327 63.1965ZM89.3942 87.1674C89.3232 87.681 89.3232 88.2019 89.3942 88.7155C89.4576 89.2308 89.5982 89.7336 89.8113 90.207C89.8822 89.6934 89.8822 89.1725 89.8113 88.6589C89.7437 88.1445 89.6033 87.6423 89.3942 87.1674ZM96.7671 91.7692C96.6405 92.8005 96.7893 93.8468 97.1983 94.8018C97.2693 94.2882 97.2693 93.7673 97.1983 93.2537C97.1273 92.7406 96.9821 92.2406 96.7671 91.7692ZM72.8882 70.7391C72.8103 71.2522 72.8103 71.7741 72.8882 72.2872C72.9525 72.7992 73.0906 73.2992 73.2982 73.7717C73.3725 73.2607 73.3725 72.7416 73.2982 72.2306C73.2305 71.717 73.0925 71.2151 72.8882 70.7391ZM97.269 75.9206C97.1947 76.4316 97.1947 76.9507 97.269 77.4617C97.3382 77.9758 97.4786 78.4778 97.6861 78.9532C97.764 78.4401 97.764 77.9182 97.6861 77.4051C97.6196 76.8927 97.4791 76.3927 97.269 75.9206ZM79.6815 66.5472C80.1948 66.6215 80.7162 66.6215 81.2296 66.5472C81.7437 66.482 82.2459 66.344 82.7211 66.1372C82.2078 66.0628 81.6864 66.0628 81.173 66.1372C80.6594 66.2049 80.1575 66.3429 79.6815 66.5472ZM70.8311 81.5687C71.8646 81.696 72.9134 81.5472 73.8708 81.1375C73.3574 81.0632 72.836 81.0632 72.3227 81.1375C71.8075 81.2094 71.3052 81.3547 70.8311 81.5687ZM85.5699 80.3741C86.0835 80.4451 86.6044 80.4451 87.118 80.3741C87.6321 80.3089 88.1344 80.1709 88.6096 79.9641C88.0962 79.8897 87.5748 79.8897 87.0615 79.9641C86.5474 80.0294 86.0452 80.1675 85.5699 80.3741ZM58.8351 94.1798C59.3463 94.2506 59.8649 94.2506 60.3761 94.1798C60.8906 94.1165 61.3931 93.9783 61.8677 93.7698C60.8365 93.6431 59.7901 93.7919 58.8351 94.201V94.1798ZM85.4709 50.7975C85.9845 50.8685 86.5054 50.8685 87.019 50.7975C87.5332 50.7324 88.0354 50.5943 88.5106 50.3875C87.9972 50.3132 87.4758 50.3132 86.9625 50.3875C86.4508 50.445 85.9491 50.571 85.4709 50.7622V50.7975ZM80.4661 53.512C80.0556 53.827 79.6915 54.1982 79.3846 54.6148C79.0684 55.0259 78.8136 55.4807 78.6282 55.965C79.0368 55.6474 79.3985 55.2738 79.7027 54.8551C80.0209 54.4468 80.2781 53.9944 80.4661 53.512ZM67.0351 72.6901C66.6229 73.0032 66.2585 73.3747 65.9535 73.7929C65.6352 74.2037 65.378 74.6585 65.1901 75.1431C66.005 74.4969 66.6403 73.6523 67.0351 72.6901ZM92.5823 70.9017C92.1701 71.2147 91.8057 71.5862 91.5008 72.0044C91.1824 72.4152 90.9252 72.87 90.7373 73.3546C91.5522 72.7085 92.1875 71.8638 92.5823 70.9017ZM79.8087 85.1951C79.3998 85.5119 79.0359 85.8829 78.7272 86.2979C78.4125 86.7099 78.1578 87.1645 77.9708 87.648C78.3815 87.3306 78.7456 86.957 79.0523 86.5382C79.3807 86.1227 79.6452 85.6605 79.837 85.1668L79.8087 85.1951ZM93.9466 56.4951L93.6356 56.8768C93.3173 57.2852 93.0601 57.7376 92.8721 58.22C93.2862 57.9062 93.6508 57.5321 93.9537 57.1101C94.0244 57.0112 94.088 56.9122 94.1658 56.8132L93.9466 56.4951ZM97.6578 67.2399C97.341 66.831 96.97 66.4672 96.5551 66.1584C96.143 65.8437 95.6884 65.5891 95.2049 65.402C95.8539 66.2123 96.6979 66.8447 97.6578 67.2399ZM65.1406 85.0608C64.8232 84.65 64.4496 84.2859 64.0308 83.9793C63.6225 83.661 63.17 83.4038 62.6877 83.2158C63.0007 83.628 63.3722 83.9924 63.7904 84.2974C64.2165 84.6046 64.6827 84.8519 65.1759 85.0325L65.1406 85.0608ZM98.3647 85.6193C97.7227 84.8001 96.8768 84.1639 95.9118 83.7743C96.2254 84.1884 96.5996 84.553 97.0216 84.8558C97.436 85.1653 97.8932 85.413 98.3789 85.591L98.3647 85.6193ZM75.4471 63.4086C75.1279 62.9995 74.7545 62.6356 74.3373 62.327C73.9287 62.011 73.4763 61.7562 72.9942 61.5706C73.3074 61.9807 73.6789 62.3427 74.097 62.6451C74.5088 62.962 74.9633 63.2191 75.4471 63.4086ZM84.8771 95.2189C84.2282 94.4086 83.3842 93.7762 82.4242 93.381C82.7373 93.7932 83.1088 94.1575 83.527 94.4625C83.939 94.7772 84.3936 95.0319 84.8771 95.2189ZM82.0496 75.6662C81.7475 75.2518 81.3854 74.8849 80.9751 74.5775C80.5643 74.2592 80.1095 74.002 79.6249 73.8141C80.2711 74.629 81.1157 75.2643 82.0778 75.6591L82.0496 75.6662ZM71.3825 91.3734C70.741 90.5567 69.8981 89.9209 68.9366 89.5284C69.2497 89.9406 69.6212 90.305 70.0394 90.6099C70.4556 90.926 70.9151 91.1807 71.4037 91.3663L71.3825 91.3734Z" fill="white"/>
<path d="M95.3533 58.4956C96.2673 59.7239 97.1144 61.0005 97.8911 62.3199C97.573 61.5777 97.269 60.8283 97.0075 60.0578H97.057C97.3326 60.6021 97.6154 61.1394 97.8416 61.7049C98.0678 62.2704 98.2445 62.7228 98.4354 63.2318C99.319 64.787 100.351 66.3563 100.796 68.1023C101.17 69.6777 101.136 71.3224 100.697 72.8809C100.468 73.6843 100.156 74.4614 99.7644 75.1995C99.4549 75.8699 99.0422 76.4877 98.5414 77.0304C98.8313 78.6633 99.0221 80.3245 99.2483 81.9787C99.5141 83.5834 99.6817 85.2028 99.7502 86.828C99.7502 86.8505 99.7413 86.8721 99.7254 86.888C99.7095 86.9039 99.6879 86.9128 99.6654 86.9128C99.6429 86.9128 99.6213 86.9039 99.6054 86.888C99.5895 86.8721 99.5806 86.8505 99.5806 86.828L99.4745 86.4887C99.4688 86.4804 99.4657 86.4705 99.4657 86.4604C99.4657 86.4503 99.4688 86.4404 99.4745 86.4321C99.1615 84.9301 98.9256 83.413 98.7676 81.8868C98.5556 80.3175 98.1597 77.0516 98.1527 77.0375C98.1456 77.0233 98.902 75.6661 99.1918 75.044C99.5521 74.2856 99.8408 73.4951 100.054 72.683C100.507 71.1555 100.541 69.5344 100.153 67.9892C99.6011 66.3382 98.861 64.7562 97.9476 63.2742C97.064 61.6907 96.1521 60.1214 95.2402 58.5521C95.212 58.5097 95.3109 58.4602 95.3533 58.4956Z" fill="#263238"/>
<path d="M74.825 53.0031C67.4026 63.0552 53.2223 86.8352 57.9797 92.0733C65.805 100.683 84.6226 107.964 90.4969 109.562C93.0276 110.269 101.496 91.7481 99.0928 90.3131C96.2087 88.5812 76.055 82.4171 76.1116 80.7064C76.1116 79.7309 78.2323 71.5733 79.9642 61.1112C81.9506 48.9738 78.3666 48.2174 74.825 53.0031Z" fill="#DD6A57"/>
<path d="M91.536 88.6871C91.536 88.6871 96.0743 87.2168 100.832 85.0607C103.483 83.859 108.212 82.2332 110.566 82.2332C114.1 82.2332 128.789 84.5518 128.309 88.1287C127.871 91.3663 115.493 87.7823 115.493 87.7823C115.493 87.7823 128.337 90.2706 127.065 94.0737C125.792 97.8768 112.368 91.953 112.368 91.953C112.368 91.953 125.481 94.823 123.58 98.5412C122.166 101.369 109.654 96.6892 109.654 96.6892C109.654 96.6892 120.908 99.2411 119.55 102.189C118.059 105.455 106.261 101.878 106.261 101.878C101.56 108.805 94.2859 111.506 89.1538 109.152C88.3267 108.791 91.536 88.6871 91.536 88.6871Z" fill="#DD6A57"/>
<path d="M111.11 86.6089C112.63 86.8492 114.164 87.0825 115.655 87.4572C117.147 87.8318 118.624 88.256 120.073 88.772C121.978 89.4025 123.805 90.2492 125.517 91.2956C122.343 89.6627 117.034 88.2347 115.535 87.8601C114.037 87.4854 112.58 87.0401 111.096 86.6654C111.061 86.6584 111.075 86.6089 111.11 86.6089Z" fill="#263238"/>
<path d="M109.661 91.9672C111.584 92.356 113.506 92.6741 115.415 93.1477C117.324 93.6213 119.07 94.2363 120.929 94.8372C121.07 94.8867 120.999 94.9503 120.858 94.9079C118.971 94.3777 117.189 94.0384 115.302 93.5294C113.414 93.0204 111.548 92.4479 109.647 92.0096L109.661 91.9672Z" fill="#263238"/>
<path d="M107.597 96.3358C110.558 96.8648 113.457 97.6962 116.249 98.817C116.391 98.8736 116.292 98.9372 116.143 98.8948C113.28 98.0182 111.039 97.3043 107.576 96.4418C107.526 96.4277 107.533 96.3287 107.597 96.3358Z" fill="#263238"/>
<path d="M103.645 83.9086C104.401 83.4588 105.196 83.0778 106.02 82.7705C106.78 82.4521 107.562 82.1898 108.36 81.9859C110.088 81.5454 111.89 81.4731 113.648 81.7738C117.862 82.461 121.97 83.6894 125.87 85.4284C125.934 85.4284 125.912 85.584 125.87 85.5627C122.562 84.6721 118.95 83.2583 113.895 82.4948C112.165 82.193 110.395 82.2097 108.671 82.5443C107.787 82.7486 106.914 82.9987 106.056 83.2936C105.285 83.541 104.529 83.8803 103.744 84.0571C103.724 84.0702 103.7 84.0749 103.677 84.0703C103.654 84.0657 103.634 84.052 103.62 84.0323C103.607 84.0126 103.603 83.9885 103.607 83.9653C103.612 83.9421 103.626 83.9217 103.645 83.9086Z" fill="#263238"/>
<path d="M56.1417 88.6589L76.7336 80.2822C78.4006 73.2498 79.6726 66.1297 80.5438 58.9551C81.6677 48.691 78.9603 46.0401 71.7217 56.7143C64.4831 67.3884 56.9405 80.9679 56.1417 88.6589Z" fill="#F2D6C9"/>
<path d="M72.7609 56.2761C72.6576 56.0489 72.5771 55.8122 72.5206 55.5692C72.6101 55.4372 72.702 55.31 72.7962 55.1874C72.832 55.5503 72.8201 55.9163 72.7609 56.2761ZM72.8881 70.7391C72.8103 71.2522 72.8103 71.7742 72.8881 72.2872C72.9524 72.7993 73.0905 73.2993 73.2981 73.7717C73.3725 73.2607 73.3725 72.7417 73.2981 72.2307C73.2304 71.7171 73.0925 71.2152 72.8881 70.7391ZM70.8311 81.5688C71.8646 81.696 72.9134 81.5473 73.8707 81.1376C73.3574 81.0632 72.836 81.0632 72.3226 81.1376C71.8074 81.2095 71.3052 81.3547 70.8311 81.5688ZM66.3988 65.0698L66.1444 65.4869H66.3706C66.8849 65.4227 67.3872 65.2846 67.8621 65.0769C67.3775 65.0002 66.8841 64.9978 66.3988 65.0698ZM80.4661 53.5121C80.0555 53.827 79.6914 54.1983 79.3845 54.6148C79.0684 55.0259 78.8136 55.4807 78.6281 55.965C79.0367 55.6475 79.3985 55.2738 79.7026 54.8552C80.0209 54.4469 80.2781 53.9944 80.4661 53.5121ZM67.035 72.6902C66.6228 73.0032 66.2585 73.3747 65.9535 73.7929C65.6351 74.2038 65.378 74.6585 65.19 75.1431C66.005 74.497 66.6403 73.6523 67.035 72.6902ZM65.1476 85.0609C64.8302 84.6501 64.4566 84.286 64.0378 83.9793C63.6295 83.661 63.1771 83.4039 62.6947 83.2159C63.0077 83.6281 63.3792 83.9924 63.7975 84.2974C64.2213 84.6041 64.6851 84.8514 65.1759 85.0326L65.1476 85.0609ZM75.4471 63.4086C75.1278 62.9995 74.7545 62.6357 74.3373 62.3271C73.9287 62.011 73.4763 61.7562 72.9942 61.5707C73.3074 61.9807 73.6789 62.3427 74.0969 62.6452C74.5087 62.9621 74.9633 63.2191 75.4471 63.4086Z" fill="white"/>
<path d="M80.3601 65.3172C80.071 65.9128 79.8345 66.5325 79.6532 67.1693C79.5754 67.3813 79.5118 67.6005 79.4411 67.8125C79.6178 66.6249 79.7875 65.4303 79.9501 64.2356C79.9501 64.1579 79.8441 64.1225 79.8299 64.2356C79.3068 66.9289 76.9104 79.5682 76.8044 80.2186C76.7408 80.2186 76.0975 80.5932 76.0622 80.5861C76.0268 80.5791 76.0622 80.7205 76.1116 80.6922C76.1611 80.6639 76.9387 80.3175 76.9387 80.3105C77.2003 79.7379 79.0594 70.0958 79.2715 68.9224C79.3002 68.872 79.3261 68.82 79.3492 68.7668C79.4128 68.5972 79.4694 68.4275 79.533 68.2649C79.6532 67.9539 79.7521 67.6429 79.8653 67.3318C80.1113 66.694 80.312 66.0397 80.4661 65.3737C80.4736 65.3597 80.4752 65.3432 80.4706 65.328C80.4659 65.3127 80.4554 65.2999 80.4414 65.2924C80.4273 65.2849 80.4109 65.2833 80.3956 65.288C80.3804 65.2926 80.3676 65.3031 80.3601 65.3172Z" fill="#263238"/>
<path d="M76.366 77.9636C75.5499 78.154 74.7451 78.39 73.9555 78.6705C73.1567 78.925 72.3508 79.1583 71.552 79.4198C70.0181 79.9217 68.4982 80.466 66.9784 81.0315C63.9244 82.1275 60.928 83.378 58.0008 84.7781C57.9372 84.7781 58.0008 84.9124 58.0503 84.8912C61.1536 83.8026 64.2074 82.5726 67.2895 81.4203L71.8419 79.7309L74.111 78.8684C74.8674 78.5928 75.6803 78.3736 76.4014 78.0272C76.4438 78.0131 76.4084 77.9566 76.366 77.9636Z" fill="#263238"/>
<path d="M80.8832 49.4403C81.0528 50.2108 84.6509 55.2157 88.1501 55.0955C89.2882 55.0531 89.3377 48.8182 89.3377 48.8182L89.4437 48.3588L90.9564 41.926L83.4351 36.9777L82.3535 36.3274C82.3535 36.3274 82.0496 38.1158 81.7032 40.3426C81.7032 40.4415 81.6678 40.5476 81.6537 40.6607C81.6396 40.7738 81.6042 40.901 81.5901 41.0212C81.5335 41.3534 81.477 41.7281 81.4275 42.032C81.378 42.336 81.3497 42.541 81.3215 42.8167C81.2932 43.0924 81.2578 43.3539 81.2154 43.6226C80.9693 45.5517 80.8583 47.4957 80.8832 49.4403Z" fill="#DD6A57"/>
<path d="M81.6819 40.3426C82.317 42.1638 83.3418 43.8246 84.6848 45.2091C86.0278 46.5936 87.6566 47.6685 89.4577 48.3588L90.9705 41.926L83.4491 36.9777L82.3676 36.3274C82.3676 36.3274 82.0495 38.1158 81.6819 40.3426Z" fill="#263238"/>
<path d="M100.252 31.7537C101.737 43.2549 95.021 45.4463 92.5398 45.7644C90.2848 46.0543 82.5867 46.7541 79.9146 35.4649C77.2426 24.1758 82.1202 19.8567 87.231 18.9165C92.3419 17.9763 98.7605 20.2879 100.252 31.7537Z" fill="#DD6A57"/>
<path d="M98.3718 29.9794C98.1042 29.9655 97.8375 29.9372 97.573 29.8946C97.2881 29.908 97.007 29.8259 96.7742 29.6613C96.7123 29.5946 96.6739 29.5093 96.665 29.4187C96.656 29.3281 96.677 29.237 96.7247 29.1594C96.8415 29.0197 96.9936 28.9139 97.1651 28.853C97.3367 28.7921 97.5215 28.7783 97.7002 28.8131C98.0744 28.8285 98.4295 28.9821 98.6969 29.2443C98.7548 29.3071 98.793 29.3854 98.8069 29.4697C98.8209 29.5539 98.8099 29.6404 98.7754 29.7185C98.7408 29.7965 98.6842 29.8628 98.6125 29.9092C98.5408 29.9556 98.4571 29.98 98.3718 29.9794Z" fill="#263238"/>
<path d="M90.4616 30.7995C90.7181 30.7309 90.9706 30.6483 91.218 30.5521C91.4916 30.4992 91.7401 30.3576 91.9249 30.1491C91.9732 30.073 91.9946 29.9829 91.9856 29.8932C91.9766 29.8035 91.9378 29.7194 91.8754 29.6543C91.7314 29.5411 91.5595 29.4689 91.3778 29.4453C91.1962 29.4216 91.0115 29.4475 90.8434 29.52C90.4829 29.613 90.1702 29.8374 89.9668 30.1491C89.9206 30.2245 89.8982 30.312 89.9026 30.4003C89.9071 30.4885 89.9381 30.5734 89.9916 30.6437C90.0451 30.714 90.1186 30.7665 90.2025 30.7943C90.2864 30.8221 90.3767 30.8239 90.4616 30.7995Z" fill="#263238"/>
<path d="M92.5893 33.4362C92.5893 33.4362 92.5327 33.4786 92.5398 33.5139C92.6671 34.2915 92.6812 35.2034 92.0096 35.5568C92.0096 35.5568 92.0096 35.6063 92.0096 35.5993C92.865 35.366 92.8367 34.1501 92.5893 33.4362Z" fill="#263238"/>
<path d="M91.7834 32.7081C90.511 32.7788 90.7443 35.3165 91.9248 35.2529C93.1053 35.1893 92.8509 32.6515 91.7834 32.7081Z" fill="#263238"/>
<path d="M91.2957 32.8918C91.0907 33.0544 90.8928 33.323 90.6313 33.3796C90.3697 33.4361 90.0657 33.1887 89.8395 32.9554H89.7971C89.8395 33.4361 90.0728 33.9239 90.5959 33.9451C91.119 33.9663 91.3806 33.5068 91.4583 33.0049C91.4725 32.9484 91.3806 32.8211 91.2957 32.8918Z" fill="#263238"/>
<path d="M96.9438 32.8706C96.9438 32.8706 97.0074 32.8706 97.0145 32.9342C97.0498 33.7259 97.2336 34.6166 97.9688 34.8216V34.8641C97.0852 34.8146 96.859 33.627 96.9438 32.8706Z" fill="#263238"/>
<path d="M97.58 31.987C98.8383 31.789 99.1493 34.3197 97.983 34.5035C96.8166 34.6873 96.5268 32.1566 97.58 31.987Z" fill="#263238"/>
<path d="M98.1314 32.0931C98.3435 32.1991 98.5697 32.4182 98.8383 32.4041C99.1069 32.39 99.2907 32.0931 99.4392 31.8103C99.4392 31.8103 99.4392 31.8103 99.4816 31.8103C99.5523 32.291 99.4816 32.8141 99.0009 32.9625C98.5202 33.111 98.2233 32.7222 98.0466 32.2556C97.99 32.192 98.0395 32.0436 98.1314 32.0931Z" fill="#263238"/>
<path d="M93.0913 39.8972C93.2892 40.0739 93.4871 40.3213 93.7982 40.3284C94.0896 40.3109 94.374 40.2314 94.6323 40.0951C94.6323 40.0951 94.6889 40.0951 94.6747 40.0951C94.5687 40.2551 94.4214 40.3835 94.2485 40.4669C94.0756 40.5502 93.8834 40.5854 93.6921 40.5687C93.5295 40.5345 93.3805 40.4533 93.2636 40.3352C93.1468 40.2171 93.0672 40.0672 93.0347 39.9042C92.9923 39.8901 93.063 39.876 93.0913 39.8972Z" fill="#263238"/>
<path d="M96.0814 36.7233C96.0814 36.7233 96.3641 37.8755 96.4207 38.4269C96.4207 38.4835 96.2934 38.5188 96.1097 38.5471C95.6443 38.6836 95.1505 38.6899 94.6818 38.5653C94.2132 38.4407 93.7877 38.1898 93.4517 37.8402C93.4093 37.7907 93.4517 37.7271 93.5295 37.7553C94.2827 38.1647 95.1484 38.3185 95.9965 38.1936C95.9965 38.0381 95.4452 36.2355 95.5371 36.2143C95.9708 36.2112 96.4031 36.2635 96.8236 36.3698C96.3005 33.9452 95.4098 31.6195 94.915 29.2019C94.9139 29.185 94.9184 29.1681 94.9278 29.154C94.9371 29.1398 94.9509 29.1291 94.9669 29.1235C94.9829 29.1179 95.0004 29.1177 95.0165 29.1229C95.0327 29.1281 95.0467 29.1385 95.0564 29.1524C96.1027 31.6116 96.9007 34.1691 97.4386 36.7869C97.4952 37.0909 96.3146 36.794 96.0814 36.7233Z" fill="#263238"/>
<path d="M81.0104 35.7619C82.8766 35.6982 82.8625 31.7679 82.8625 31.7679C82.8625 31.7679 86.6232 31.3579 87.2523 25.8088C87.3299 27.4415 86.9268 29.0612 86.093 30.4672C86.093 30.4672 92.6459 29.0181 94.8161 23.1579C94.8161 23.1579 94.0173 26.1057 93.0842 27.2296C94.7093 26.5267 96.0476 25.2931 96.8802 23.7305C96.8802 23.7305 98.4071 26.7984 99.3968 27.5831C99.3968 27.5831 97.8134 16.0112 87.2028 18.457C87.2028 18.457 80.5227 19.6658 78.7201 25.2645C76.9175 30.8631 81.0104 35.7619 81.0104 35.7619Z" fill="#263238"/>
<path d="M90.914 37.9108C90.2411 37.9159 89.5802 37.7322 89.0064 37.3805C88.4327 37.0288 87.9691 36.5233 87.6682 35.9213C87.3674 35.3194 87.2414 34.6451 87.3046 33.9751C87.3677 33.3051 87.6175 32.6663 88.0256 32.1311C88.4336 31.596 88.9835 31.186 89.6129 30.9478C90.2423 30.7095 90.9259 30.6525 91.586 30.7833C92.2461 30.9141 92.8563 31.2274 93.3473 31.6875C93.8383 32.1477 94.1904 32.7364 94.3637 33.3867C94.6071 34.311 94.4735 35.2941 93.9924 36.1199C93.5112 36.9457 92.7218 37.5467 91.7976 37.7907C91.5088 37.8653 91.2122 37.9056 90.914 37.9108ZM90.8716 31.1882C90.6117 31.1903 90.353 31.2235 90.1011 31.2872C89.3294 31.486 88.6625 31.9714 88.2363 32.6447C87.8101 33.318 87.6565 34.1284 87.807 34.9109C87.9574 35.6935 88.4005 36.3892 89.046 36.8565C89.6914 37.3237 90.4908 37.5273 91.2811 37.4258C92.0715 37.3243 92.7934 36.9253 93.2999 36.3101C93.8063 35.6949 94.0592 34.9097 94.007 34.1146C93.9548 33.3195 93.6014 32.5741 93.0189 32.0304C92.4363 31.4867 91.6684 31.1855 90.8716 31.1882Z" fill="#F2D6C9"/>
<path d="M99.1069 36.8363C97.6931 36.8363 96.4702 35.4225 96.2299 33.5775C96.1063 32.6898 96.2619 31.7856 96.6752 30.9903C96.8314 30.6368 97.0765 30.3296 97.3865 30.0988C97.6965 29.8679 98.0609 29.7212 98.4444 29.6728C98.8279 29.6244 99.2174 29.676 99.575 29.8227C99.9326 29.9693 100.246 30.2059 100.485 30.5096C101.083 31.1798 101.456 32.0202 101.553 32.9131C101.8 34.8782 100.811 36.6313 99.3402 36.8151C99.2632 36.8292 99.1852 36.8363 99.1069 36.8363ZM98.6828 30.135H98.5061C98.2025 30.1876 97.9159 30.3119 97.67 30.4976C97.4241 30.6832 97.2261 30.9248 97.0923 31.2024C96.7283 31.9121 96.5948 32.7177 96.7105 33.5069C96.9226 35.2105 98.0749 36.4758 99.2837 36.3344C100.492 36.1931 101.291 34.6732 101.072 32.9625C100.986 32.1754 100.657 31.4344 100.132 30.8419C99.9524 30.6303 99.7309 30.4582 99.4815 30.3365C99.232 30.2149 98.9601 30.1462 98.6828 30.135Z" fill="#F2D6C9"/>
<path d="M94.3 33.8178L93.9465 33.4927C94.4272 32.9696 95.6077 32.199 96.5974 33.019L96.2864 33.3937C95.4027 32.6515 94.3424 33.7684 94.3 33.8178Z" fill="#F2D6C9"/>
<path d="M79.2149 36.7798L78.7625 36.6172C78.8402 36.4052 79.5542 34.546 80.5933 34.2421C81.6325 33.9381 87.33 33.7119 87.6057 33.6978V34.1855C85.3031 34.2334 83.0046 34.4057 80.7206 34.7015C80.0419 34.9065 79.4057 36.2709 79.2149 36.7798Z" fill="#F2D6C9"/>
<path d="M80.4448 39.7135C80.6187 39.7726 80.7991 39.8106 80.982 39.8266C81.1647 39.8551 81.3507 39.8551 81.5334 39.8266C81.7682 39.7939 81.9928 39.7094 82.1908 39.5791C82.3486 39.4825 82.4915 39.3634 82.615 39.2257C82.7923 39.0161 82.9311 38.7768 83.025 38.5188L82.2545 35.4509C82.2545 35.4509 79.5683 31.9164 77.9707 32.9131C76.3731 33.9098 78.4867 39.0772 80.4448 39.7135Z" fill="#DD6A57"/>
<path d="M78.6069 34.4258V34.4753C80.0207 34.9701 80.7276 36.193 81.3002 37.4654C81.2152 37.3341 81.103 37.2226 80.971 37.1385C80.839 37.0545 80.6905 36.9999 80.5355 36.9784C80.3806 36.9569 80.2228 36.9691 80.073 37.0141C79.9231 37.0591 79.7848 37.1359 79.6673 37.2392C79.6673 37.2392 79.6673 37.3241 79.7097 37.3099C79.9439 37.2231 80.1994 37.2119 80.4403 37.2778C80.6813 37.3437 80.8955 37.4835 81.0528 37.6775C81.3244 38.0005 81.5613 38.3512 81.7597 38.7237C81.8304 38.8439 82.0495 38.7661 81.993 38.6318C81.9081 36.8504 80.4661 34.5035 78.6069 34.4258Z" fill="#263238"/>
<path d="M80.5791 39.2185C80.6044 39.3216 80.6597 39.4149 80.738 39.4866C80.8163 39.5583 80.914 39.6052 81.019 39.6214C81.1239 39.6376 81.2312 39.6223 81.3275 39.5776C81.4238 39.5328 81.5046 39.4605 81.5598 39.3698C81.615 39.2791 81.6421 39.1741 81.6376 39.068C81.6332 38.962 81.5975 38.8596 81.5349 38.7738C81.4723 38.6881 81.3858 38.6228 81.2861 38.5862C81.1864 38.5496 81.0782 38.5433 80.975 38.5682C80.8371 38.6033 80.7184 38.6911 80.6444 38.8126C80.5704 38.9342 80.547 39.0799 80.5791 39.2185Z" fill="white"/>
<path d="M79.4411 38.4551C79.4677 38.5512 79.5303 38.6335 79.6158 38.6848C79.7013 38.7361 79.8033 38.7526 79.9006 38.7308C79.999 38.7073 80.084 38.6457 80.1371 38.5596C80.1901 38.4734 80.2067 38.3698 80.1834 38.2713C80.1718 38.2228 80.1507 38.177 80.1212 38.1367C80.0917 38.0964 80.0544 38.0625 80.0116 38.0368C79.9688 38.0111 79.9213 37.9942 79.8719 37.9872C79.8225 37.9801 79.7722 37.983 79.7239 37.9956C79.6255 38.0191 79.5404 38.0807 79.4874 38.1669C79.4344 38.253 79.4177 38.3567 79.4411 38.4551Z" fill="white"/>
<path d="M89.3518 49.313L87.6199 54.5723L80.8337 48.493L79.1583 50.6844C79.1583 50.6844 86.0576 60.581 86.0647 60.1286L87.8956 55.5691L91.1473 58.4532L90.398 50.748L89.3518 49.313Z" fill="#EBEBEB"/>
<path d="M90.9917 54.6289C90.8291 53.3565 90.6948 52.077 90.4686 50.8187C90.4686 50.7763 90.3908 50.7551 90.3838 50.8187C90.207 52.0629 90.8645 56.9122 90.9351 58.0785C90.8008 57.9584 87.9308 55.5549 87.9096 55.5973C87.4926 56.3042 86.1495 59.6479 86.0646 59.9518C84.976 58.3754 80.8124 52.6637 79.547 51.1934C79.5046 51.151 79.441 51.1934 79.4693 51.2429C80.4519 52.9111 85.9727 60.6092 86.0434 60.581C86.7664 59.0121 87.4036 57.4051 87.952 55.767C88.4469 56.2972 91.3593 59.0258 91.3593 58.8349C91.3117 57.4274 91.189 56.0234 90.9917 54.6289Z" fill="#263238"/>
<path d="M222.913 60.899H141.153V165.859H222.913V60.899Z" fill="#EBEBEB"/>
<path d="M222.913 165.859L182.096 166.001L141.153 166.078H140.927V165.852L140.807 60.8921V60.5811H141.153L222.913 60.6659H223.181V60.9274L223.061 113.45L222.913 165.859ZM222.913 165.859L222.736 113.308L222.651 60.8992L222.913 61.1678L141.153 61.2455L141.499 60.8992L141.372 165.859L141.153 165.633L181.976 165.718L222.913 165.859Z" fill="#DBDBDB"/>
<path d="M150.095 83.336L182.033 83.2512L213.97 83.336L182.033 83.4138L150.095 83.336Z" fill="#C7C7C7"/>
<path d="M150.095 85.9374L182.033 85.8596L213.97 85.9374L182.033 86.0222L150.095 85.9374Z" fill="#C7C7C7"/>
<path d="M150.095 88.5459L182.033 88.4611L213.97 88.5459L182.033 88.6236L150.095 88.5459Z" fill="#C7C7C7"/>
<path d="M150.095 91.1472L182.033 91.0695L213.97 91.1472L182.033 91.225L150.095 91.1472Z" fill="#C7C7C7"/>
<path d="M150.095 93.7557L182.033 93.6709L213.97 93.7557L182.033 93.8335L150.095 93.7557Z" fill="#C7C7C7"/>
<path d="M150.095 96.3571L182.033 96.2793L213.97 96.3571L182.033 96.4348L150.095 96.3571Z" fill="#C7C7C7"/>
<path d="M150.095 98.9584L182.033 98.8806L213.97 98.9584L182.033 99.0432L150.095 98.9584Z" fill="#C7C7C7"/>
<path d="M150.095 101.567L182.033 101.489L213.97 101.567L182.033 101.645L150.095 101.567Z" fill="#C7C7C7"/>
<path d="M150.095 104.168L182.033 104.09L213.97 104.168L182.033 104.253L150.095 104.168Z" fill="#C7C7C7"/>
<path d="M150.095 106.777L182.033 106.692L213.97 106.777L182.033 106.854L150.095 106.777Z" fill="#C7C7C7"/>
<path d="M150.095 109.378L182.033 109.3L213.97 109.378L182.033 109.463L150.095 109.378Z" fill="#C7C7C7"/>
<path d="M150.095 111.987L182.033 111.902L213.97 111.987L182.033 112.064L150.095 111.987Z" fill="#C7C7C7"/>
<path d="M150.095 114.588L182.033 114.51L213.97 114.588L182.033 114.673L150.095 114.588Z" fill="#C7C7C7"/>
<path d="M150.095 117.196L182.033 117.111L213.97 117.196L182.033 117.274L150.095 117.196Z" fill="#C7C7C7"/>
<path d="M150.095 119.798L182.033 119.72L213.97 119.798L182.033 119.883L150.095 119.798Z" fill="#C7C7C7"/>
<path d="M161.695 111.902H156.853V122.83H161.695V111.902Z" fill="#F2D6C9"/>
<path d="M170.68 106.07H165.838V122.83H170.68V106.07Z" fill="#F2D6C9"/>
<path d="M179.665 99.5452H174.823V122.837H179.665V99.5452Z" fill="#F2D6C9"/>
<path d="M188.649 96.7458H183.807V122.837H188.649V96.7458Z" fill="#F2D6C9"/>
<path d="M197.634 91.748H192.792V122.837H197.634V91.748Z" fill="#F2D6C9"/>
<path d="M206.619 86.8069H201.776V122.83H206.619V86.8069Z" fill="#F2D6C9"/>
<path d="M151.827 81.5051L151.954 91.8399L152.039 102.168C152.103 109.06 152.117 115.945 152.131 122.837L151.827 122.533H167.379L182.931 122.569L198.482 122.668L214.034 122.844L198.482 123.021L182.931 123.12H167.379H151.827H151.53V122.823C151.53 115.933 151.559 109.043 151.615 102.154L151.707 91.8258L151.827 81.5051Z" fill="#C7C7C7"/>
<path d="M161.695 125.022H156.853V125.46H161.695V125.022Z" fill="#C7C7C7"/>
<path d="M170.68 125.022H165.838V125.46H170.68V125.022Z" fill="#C7C7C7"/>
<path d="M179.665 125.022H174.823V125.46H179.665V125.022Z" fill="#C7C7C7"/>
<path d="M188.649 125.022H183.807V125.46H188.649V125.022Z" fill="#C7C7C7"/>
<path d="M197.634 125.022H192.792V125.46H197.634V125.022Z" fill="#C7C7C7"/>
<path d="M206.619 125.022H201.776V125.46H206.619V125.022Z" fill="#C7C7C7"/>
<path d="M157.397 113.28C159.762 113.245 162.123 113.068 164.466 112.75C166.817 112.444 169.15 112.019 171.458 111.478C176.06 110.44 180.525 108.867 184.761 106.791C189.009 104.744 192.929 102.076 196.39 98.8736L197.047 98.2798L197.669 97.6507L198.899 96.3853C199.663 95.4876 200.483 94.6322 201.176 93.6779C202.643 91.8203 203.971 89.8568 205.148 87.8036H205.184C201.966 94.2278 197.172 99.7316 191.251 103.801C189.29 105.161 187.23 106.371 185.087 107.42C176.465 111.542 166.985 113.55 157.433 113.28H157.397Z" fill="#263238"/>
<path d="M206.506 91.1896L205.834 91.3592L205.007 88.051L201.769 89.1184L201.557 88.461L205.502 87.1674L206.506 91.1896Z" fill="#263238"/>
<path d="M148.731 141.775H215.335V139.082H148.731V141.775Z" fill="#DBDBDB"/>
<path d="M148.731 148.583H186.232V145.889H148.731V148.583Z" fill="#DBDBDB"/>
<path d="M163.279 75.1926H200.78V72.4994H163.279V75.1926Z" fill="#DBDBDB"/>
<path d="M207.46 191.449L127.369 207.905L106.246 105.094L165.711 92.8792L190.36 108.233L207.46 191.449Z" fill="#F2D6C9"/>
<path opacity="0.8" d="M207.46 191.449L127.369 207.905L106.246 105.094L165.711 92.8792L190.36 108.233L207.46 191.449Z" fill="white"/>
<path d="M165.711 92.8792L190.36 108.233L169.733 112.467L165.711 92.8792Z" fill="#F2D6C9"/>
<path d="M118.143 123.377L162.674 114.229L162.132 111.59L117.601 120.739L118.143 123.377Z" fill="#DBDBDB"/>
<path d="M119.509 130.039L164.039 120.89L163.497 118.252L118.967 127.4L119.509 130.039Z" fill="#DBDBDB"/>
<path d="M120.888 136.699L165.419 127.55L164.877 124.912L120.346 134.06L120.888 136.699Z" fill="#DBDBDB"/>
<path d="M122.257 143.364L187.498 129.96L186.956 127.322L121.715 140.725L122.257 143.364Z" fill="#DBDBDB"/>
<path d="M123.753 149.675L189.025 136.354L188.486 133.715L123.215 147.036L123.753 149.675Z" fill="#DBDBDB"/>
<path d="M124.995 156.686L190.236 143.282L189.694 140.644L124.453 154.048L124.995 156.686Z" fill="#DBDBDB"/>
<path d="M126.369 163.353L191.61 149.949L191.068 147.311L125.827 160.715L126.369 163.353Z" fill="#DBDBDB"/>
<path d="M127.735 170.014L192.976 156.61L192.434 153.972L127.193 167.376L127.735 170.014Z" fill="#DBDBDB"/>
<path d="M129.102 176.683L194.343 163.279L193.801 160.641L128.56 174.045L129.102 176.683Z" fill="#DBDBDB"/>
<path d="M130.467 183.344L195.708 169.94L195.166 167.302L129.925 180.706L130.467 183.344Z" fill="#DBDBDB"/>
<path d="M131.847 190.004L197.088 176.6L196.546 173.962L131.305 187.366L131.847 190.004Z" fill="#DBDBDB"/>
<path d="M133.214 196.672L198.455 183.268L197.913 180.63L132.672 194.034L133.214 196.672Z" fill="#DBDBDB"/>
<path d="M371.686 116.723L281.974 123.254C271.759 84.4175 282.681 45.5806 274.742 6.74376L364.44 0.212036C374.662 39.0489 363.733 77.8858 371.686 116.723Z" fill="#EBEBEB"/>
<path d="M371.686 116.723L282.03 123.495H281.818C281.795 123.423 281.776 123.35 281.762 123.276C271.491 84.4458 282.391 45.6089 274.396 6.77207C274.396 6.65896 274.346 6.53879 274.318 6.42569H274.672L364.384 0H364.631C364.651 0.0836196 364.674 0.1662 364.702 0.247415C374.832 39.0348 363.797 77.8788 371.686 116.723ZM371.686 116.723C363.627 77.8929 374.514 39.0631 364.207 0.233277L364.518 0.459484L274.813 7.09724L275.089 6.71551C283.013 45.5948 272.021 84.3963 282.158 123.24L281.882 123.035L371.686 116.723Z" fill="#DBDBDB"/>
<path d="M285.572 23.3842L335.938 19.7578C336.051 20.7522 336.15 21.7489 336.235 22.748L285.805 26.3814C285.734 25.3776 285.657 24.3809 285.572 23.3842Z" fill="#DBDBDB"/>
<path d="M286.074 30.9408L336.596 27.3074C336.657 28.3017 336.714 29.2985 336.765 30.2975L286.194 33.931C286.159 32.9343 286.116 31.9375 286.074 30.9408Z" fill="#DBDBDB"/>
<path d="M286.307 38.4905L336.949 34.8571C336.949 35.8538 336.999 36.8505 337.02 37.8472L286.335 41.4948C286.335 40.4839 286.321 39.4872 286.307 38.4905Z" fill="#DBDBDB"/>
<path d="M286.335 46.0402L360.651 40.7244C360.651 41.7211 360.651 42.7178 360.651 43.7145L286.293 49.0304C286.321 48.0337 286.335 47.0369 286.335 46.0402Z" fill="#DBDBDB"/>
<path d="M286.236 53.5898L360.644 48.2739L360.602 51.2641L286.173 56.587L286.236 53.5898Z" fill="#DBDBDB"/>
<path d="M286.06 61.1465L360.51 55.8236C360.51 56.8203 360.468 57.8171 360.439 58.8138L285.975 64.1155C286.01 63.14 286.038 62.1433 286.06 61.1465Z" fill="#DBDBDB"/>
<path d="M285.883 68.6962L360.326 63.4086C360.326 64.4053 360.284 65.4091 360.256 66.4058L285.826 71.7217C285.848 70.6896 285.862 69.6929 285.883 68.6962Z" fill="#DBDBDB"/>
<path d="M285.77 76.2458L360.199 70.9299C360.199 71.9267 360.164 72.9234 360.149 73.9201L285.784 79.236C285.756 78.2534 285.756 77.2425 285.77 76.2458Z" fill="#DBDBDB"/>
<path d="M285.777 83.7955L360.072 78.4796C360.072 79.4763 360.072 80.4731 360.072 81.4698L285.848 86.7927C285.805 85.796 285.791 84.7993 285.777 83.7955Z" fill="#DBDBDB"/>
<path d="M285.975 91.3522L360.135 86.0293C360.135 87.026 360.178 88.0227 360.213 89.0265L286.123 94.3424C286.067 93.348 286.017 92.3513 285.975 91.3522Z" fill="#DBDBDB"/>
<path d="M286.434 98.9019L360.404 93.579C360.453 94.5828 360.517 95.5795 360.581 96.5762L286.682 101.892C286.597 100.874 286.512 99.8986 286.434 98.9019Z" fill="#DBDBDB"/>
<path d="M287.212 106.451L360.948 101.136C361.04 102.132 361.139 103.129 361.252 104.126L287.622 109.449C287.473 108.452 287.339 107.448 287.212 106.451Z" fill="#DBDBDB"/>
<path d="M358.927 158.295C327.993 153.05 297.41 147.812 267.178 142.581C271.13 104.204 290.499 65.8545 289.509 27.5054C320.443 32.7505 351.026 37.9957 381.257 43.2409C377.334 81.59 357.937 119.96 358.927 158.295Z" fill="#F2D6C9"/>
<path opacity="0.8" d="M358.927 158.295C327.993 153.05 297.41 147.812 267.178 142.581C271.13 104.204 290.499 65.8545 289.509 27.5054C320.443 32.7505 351.026 37.9957 381.257 43.2409C377.334 81.59 357.937 119.96 358.927 158.295Z" fill="white"/>
<path d="M297.115 45.9907C313.883 48.9078 330.573 51.825 347.185 54.7421C347.015 55.7318 346.839 56.7143 346.655 57.6969C330.076 54.7845 313.433 51.8674 296.727 48.9455C296.868 47.963 296.995 46.9804 297.115 45.9907Z" fill="#DBDBDB"/>
<path d="M296.041 53.4485C312.672 56.3656 329.244 59.2827 345.757 62.1999C345.545 63.1895 345.333 64.1721 345.114 65.1547C328.643 62.2423 312.114 59.3251 295.525 56.4033C295.702 55.4207 295.871 54.4381 296.041 53.4485Z" fill="#DBDBDB"/>
<path d="M294.656 60.9062L344.082 69.6576C343.841 70.6402 343.608 71.6299 343.375 72.6125C326.975 69.6906 310.532 66.7735 294.048 63.8611C294.246 62.8785 294.458 61.8959 294.656 60.9062Z" fill="#DBDBDB"/>
<path d="M293.044 68.3569C317.135 72.636 341.146 76.9104 365.077 81.18C364.815 82.1626 364.546 83.1452 364.278 84.1349C340.352 79.8652 316.371 75.5932 292.337 71.3188C292.549 70.3362 292.782 69.3537 293.044 68.3569Z" fill="#DBDBDB"/>
<path d="M291.185 75.8217C315.181 80.1007 339.129 84.3751 363.027 88.6448C362.758 89.6273 362.489 90.6099 362.214 91.5996L290.421 78.7765C290.676 77.7939 290.923 76.8396 291.185 75.8217Z" fill="#DBDBDB"/>
<path d="M289.219 83.2794L360.962 96.1025C360.694 97.0851 360.418 98.0677 360.149 99.0573L288.421 86.2342C288.689 85.2517 288.958 84.262 289.219 83.2794Z" fill="#DBDBDB"/>
<path d="M287.184 90.7372L358.934 103.56C358.665 104.543 358.403 105.525 358.142 106.508C334.183 102.238 310.257 97.9664 286.364 93.692C286.639 92.7094 286.908 91.7198 287.184 90.7372Z" fill="#DBDBDB"/>
<path d="M285.127 98.1949C309.039 102.465 332.991 106.737 356.983 111.011C356.735 112.001 356.488 112.983 356.276 113.966C332.241 109.696 308.263 105.424 284.342 101.15C284.561 100.167 284.851 99.1775 285.127 98.1949Z" fill="#DBDBDB"/>
<path d="M283.147 105.653C307.097 109.922 331.117 114.194 355.208 118.469C354.982 119.458 354.763 120.441 354.544 121.424C330.396 117.154 306.338 112.882 282.37 108.608C282.589 107.618 282.85 106.635 283.147 105.653Z" fill="#DBDBDB"/>
<path d="M281.196 113.11C305.231 117.38 329.355 121.652 353.568 125.927C353.37 126.916 353.187 127.899 353.003 128.881C328.7 124.612 304.524 120.34 280.475 116.065C280.708 115.076 280.949 114.093 281.196 113.11Z" fill="#DBDBDB"/>
<path d="M279.436 120.561C303.574 124.84 327.844 129.115 352.246 133.384C352.084 134.367 351.935 135.356 351.794 136.339C327.307 132.069 302.976 127.788 278.8 123.495C279.005 122.533 279.217 121.551 279.436 120.561Z" fill="#DBDBDB"/>
<path d="M277.895 128.019C302.179 132.293 326.612 136.568 351.193 140.842C351.08 141.825 350.981 142.814 350.889 143.797C326.195 139.518 301.689 135.243 277.372 130.974C277.535 129.991 277.711 129.009 277.895 128.019Z" fill="#DBDBDB"/>
<path d="M321.504 142.574H162.954V257.501H321.504V142.574Z" fill="#F2D6C9"/>
<path d="M218.975 130.67H162.954V142.574H222.192L218.975 130.67Z" fill="#F2D6C9"/>
<g opacity="0.1">
<path d="M321.504 142.574H162.954V257.501H321.504V142.574Z" fill="black"/>
<path d="M218.975 130.67H162.954V142.574H222.192L218.975 130.67Z" fill="black"/>
</g>
<path d="M320.422 214.494C289.467 205.636 259.205 196.885 229.409 188.218C236.902 153.192 257.897 118.879 259.325 83.3361C290.252 91.6845 320.493 100.033 350.302 108.417C342.675 143.995 321.709 178.633 320.422 214.494Z" fill="#EBEBEB"/>
<path d="M320.422 214.494C289.467 205.707 259.184 197.012 229.367 188.416L229.147 188.353L229.19 188.155C236.655 153.121 257.607 118.794 258.964 83.237C258.964 83.131 258.964 83.0179 258.964 82.9119L259.325 83.0108C290.273 91.3805 320.528 99.7714 350.302 108.19L350.55 108.261C350.55 108.332 350.55 108.41 350.5 108.487C342.823 144.058 321.793 178.689 320.422 214.494ZM320.422 214.494C321.624 178.633 342.527 143.995 350.027 108.346C350.09 108.445 350.154 108.544 350.225 108.643C320.45 100.294 290.216 91.9672 259.311 83.6541L259.685 83.4279C258.18 118.964 237.15 153.262 229.621 188.275L229.451 188.02C259.219 196.75 289.509 205.573 320.422 214.494Z" fill="#DBDBDB"/>
<path d="M315.523 149.417C310.921 161.71 296.974 168.56 283.96 164.714C270.946 160.868 264.125 147.883 268.614 135.661C273.102 123.438 286.526 116.482 299.717 120.25C312.908 124.018 320.182 137.117 315.523 149.417Z" fill="#455A64"/>
<path d="M292.083 142.524C286.745 148.618 281.345 154.697 276.078 160.777C272.271 157.972 269.482 154.003 268.135 149.47C266.787 144.937 266.956 140.089 268.614 135.661C273.039 123.495 286.611 116.504 299.717 120.25C312.823 123.997 320.168 137.216 315.537 149.417C307.719 147.112 299.901 144.815 292.083 142.524Z" fill="#DBDBDB"/>
<path d="M292.082 142.524C296.734 148.78 301.336 155.037 306.037 161.314C302.83 163.461 299.19 164.878 295.376 165.466C291.562 166.053 287.665 165.797 283.96 164.714C270.967 160.904 264.167 147.805 268.613 135.661C273.06 123.516 286.611 116.504 299.717 120.25C312.823 123.997 320.167 137.216 315.537 149.417C307.719 147.112 299.901 144.815 292.082 142.524Z" fill="#DBDBDB"/>
<path d="M292.082 142.524L267.49 146.624C266.943 142.933 267.33 139.164 268.613 135.661C273.039 123.495 286.611 116.504 299.717 120.25C312.823 123.997 320.167 137.216 315.537 149.417C307.719 147.112 299.901 144.815 292.082 142.524Z" fill="#F2D6C9"/>
<path d="M266.323 98.7534C278.892 102.245 291.368 105.74 303.753 109.237C303.534 110.149 303.315 111.053 303.082 111.958C290.735 108.457 278.312 104.96 265.814 101.468C265.991 100.563 266.182 99.6582 266.323 98.7534Z" fill="#DBDBDB"/>
<path d="M263.489 168.779C280.044 173.666 296.689 178.569 313.424 183.489C313.176 184.394 312.929 185.299 312.717 186.204C295.907 181.269 279.21 176.359 262.626 171.472C262.895 170.574 263.192 169.676 263.489 168.779Z" fill="#DBDBDB"/>
<path d="M261.325 175.572C277.989 180.473 294.769 185.398 311.663 190.346C311.451 191.251 311.246 192.163 311.048 193.068C294.083 188.105 277.242 183.171 260.527 178.265C260.788 177.367 261.05 176.47 261.325 175.572Z" fill="#DBDBDB"/>
<path d="M259.389 182.372C276.184 187.297 293.126 192.245 310.214 197.217C310.045 198.122 309.882 199.034 309.734 199.946C292.556 194.955 275.541 189.995 258.689 185.066C258.915 184.175 259.148 183.27 259.389 182.372Z" fill="#DBDBDB"/>
<path d="M253.698 168.849L247.675 167.082L248.587 164.396L254.603 166.17C254.299 167.061 253.995 167.959 253.698 168.849Z" fill="#F2D6C9"/>
<path d="M251.556 175.636L245.491 173.854C245.767 172.963 246.049 172.066 246.332 171.168L252.383 172.949C252.1 173.84 251.825 174.738 251.556 175.636Z" fill="#455A64"/>
<path d="M249.647 182.429L243.561 180.64C243.801 179.743 244.049 178.852 244.303 177.954L250.397 179.735C250.128 180.631 249.878 181.529 249.647 182.429Z" fill="#DBDBDB"/>
<path d="M321.086 257.501H162.537L150.307 152.11H308.857L321.086 257.501Z" fill="#F2D6C9"/>
<path d="M205.064 141.196H149.042L150.307 152.11H209.545L205.064 141.196Z" fill="#F2D6C9"/>
<path d="M258.731 71.439C258.481 70.5177 258.362 69.5658 258.378 68.6114C258.358 67.6568 258.477 66.7044 258.731 65.7838C259.204 67.6393 259.204 69.5835 258.731 71.439Z" fill="#263238"/>
<path d="M252.977 73.1002C252.303 72.4263 251.725 71.6628 251.259 70.8311C250.77 70.013 250.399 69.1301 250.156 68.2085C250.831 68.8819 251.409 69.6456 251.874 70.4776C252.363 71.2957 252.734 72.1786 252.977 73.1002Z" fill="#263238"/>
<path d="M248.835 77.4123C247.913 77.1697 247.03 76.7984 246.212 76.3095C245.378 75.848 244.614 75.2696 243.943 74.5918C244.864 74.8344 245.747 75.2057 246.565 75.6946C247.396 76.162 248.159 76.7398 248.835 77.4123Z" fill="#263238"/>
<path d="M247.4 83.2018C245.544 83.6742 243.6 83.6742 241.744 83.2018C243.601 82.7387 245.543 82.7387 247.4 83.2018Z" fill="#263238"/>
<path d="M249.061 88.977C248.387 89.6517 247.624 90.2297 246.792 90.6948C245.974 91.1837 245.091 91.5549 244.169 91.7976C245.537 90.46 247.219 89.4877 249.061 88.97V88.977Z" fill="#263238"/>
<path d="M253.373 93.0983C253.129 94.0194 252.758 94.9021 252.27 95.7209C251.807 96.5519 251.228 97.3134 250.552 97.9829C250.795 97.0635 251.166 96.183 251.655 95.3674C252.119 94.5346 252.697 93.7708 253.373 93.0983Z" fill="#263238"/>
<path d="M259.183 94.5615C259.657 96.4168 259.657 98.3614 259.183 100.217C258.71 98.3614 258.71 96.4168 259.183 94.5615Z" fill="#263238"/>
<path d="M264.938 92.8933C265.61 93.5686 266.188 94.3319 266.655 95.1624C267.144 95.9805 267.516 96.8634 267.758 97.785C267.08 97.1144 266.502 96.3503 266.04 95.5159C265.552 94.6978 265.18 93.8149 264.938 92.8933Z" fill="#263238"/>
<path d="M269.087 88.5812C270.007 88.8238 270.887 89.1951 271.703 89.6839C272.531 90.1489 273.289 90.7271 273.958 91.4017C272.117 90.8871 270.436 89.9143 269.073 88.5741L269.087 88.5812Z" fill="#263238"/>
<path d="M270.515 82.7705C271.437 82.5249 272.388 82.406 273.343 82.417C274.297 82.3978 275.25 82.5169 276.17 82.7705C275.25 83.0241 274.297 83.1431 273.343 83.1239C272.388 83.135 271.437 83.0161 270.515 82.7705Z" fill="#263238"/>
<path d="M268.854 77.0235C269.527 76.3489 270.291 75.7708 271.123 75.3058C271.939 74.8113 272.822 74.4375 273.746 74.1959C273.075 74.8737 272.311 75.4522 271.476 75.9137C270.657 76.4019 269.775 76.7753 268.854 77.0235Z" fill="#263238"/>
<path d="M264.542 72.874C264.784 71.9524 265.156 71.0695 265.645 70.2514C266.106 69.417 266.684 68.6529 267.362 67.9823C267.12 68.9039 266.748 69.7868 266.26 70.6049C265.794 71.437 265.216 72.2006 264.542 72.874Z" fill="#263238"/>
<path d="M261.615 200.094H297.943C299.006 197.823 299.618 195.367 299.745 192.862V163.788H263.418V193.265C263.418 196.185 261.615 200.094 261.615 200.094Z" fill="#455A64"/>
<path d="M267.864 172.356C272.106 172.002 276.411 171.924 280.68 171.903C284.95 171.882 289.227 172.002 293.496 172.356C289.255 172.702 284.95 172.787 280.68 172.801C276.411 172.815 272.134 172.702 267.864 172.356Z" fill="white"/>
<path d="M267.864 177.141C271.71 176.795 275.548 176.71 279.394 176.689C283.239 176.668 287.078 176.788 290.916 177.141C287.078 177.495 283.232 177.572 279.394 177.594C275.555 177.615 271.71 177.495 267.864 177.141Z" fill="white"/>
<path d="M267.864 181.934C271.222 181.58 274.587 181.503 277.944 181.482C281.312 181.463 284.679 181.614 288.032 181.934C284.667 182.28 281.309 182.365 277.944 182.379C274.58 182.393 271.222 182.28 267.864 181.934Z" fill="white"/>
<path d="M267.864 186.72C272.106 186.373 276.411 186.288 280.68 186.267C284.95 186.246 289.227 186.366 293.496 186.72C289.255 187.073 284.95 187.151 280.68 187.172C276.411 187.193 272.134 187.073 267.864 186.72Z" fill="white"/>
</svg>
