<svg width="474" height="285" viewBox="0 0 474 285" fill="none" xmlns="http://www.w3.org/2000/svg">
<path d="M55.2547 153.689C55.6164 144.484 55.4913 135.265 54.8798 126.073C53.5181 107.116 50.6252 88.2996 46.2294 69.8089C43.8145 59.3924 40.8445 49.1561 37.7448 38.9341C37.6583 38.6242 37.1609 38.7107 37.2474 39.0351C46.8205 75.0785 54.6708 112.275 54.1301 149.746C53.9787 160.235 52.7677 170.536 51.7729 180.952C51.7729 181.234 52.2054 181.342 52.2703 181.053C54.2454 172.136 54.887 162.794 55.2547 153.689Z" fill="#EBEBEB"/>
<path d="M37.2474 39.035C37.2474 39.035 22.7435 75.8426 25.9946 84.493C29.2457 93.1434 35.9354 94.9889 35.9354 94.9889C35.9354 94.9889 27.0615 107.626 33.261 119.542C39.4605 131.458 53.2363 130.859 54.1662 144.332C54.1518 144.332 54.9231 88.0036 37.2474 39.035Z" fill="#EBEBEB"/>
<path d="M52.5731 121.07C52.5976 121.007 52.5976 120.938 52.5731 120.875C50.5402 95.8466 46.0852 70.8974 38.5089 46.8348C38.5089 46.7627 38.3719 46.7843 38.3936 46.8348C41.277 57.6045 43.8145 68.4296 46.0059 79.3099C44.0581 77.4657 41.6787 76.1396 39.0856 75.4532C39.076 75.4532 39.0669 75.457 39.0601 75.4638C39.0534 75.4706 39.0496 75.4797 39.0496 75.4893C39.0496 75.4988 39.0534 75.508 39.0601 75.5148C39.0669 75.5215 39.076 75.5253 39.0856 75.5253C41.7672 76.6859 44.3335 78.0268 46.2294 80.3047C46.6547 82.4673 47.0728 84.5722 47.4621 86.706C44.2254 83.1017 39.7272 81.2851 35.2073 79.5766C35.1497 79.5766 35.1136 79.6559 35.2073 79.6775C39.8858 81.5878 44.5786 84.0388 47.7288 88.0757C48.8342 94.1886 49.7953 100.318 50.6123 106.465C48.2677 104.013 45.2632 102.293 41.9619 101.513C41.861 101.513 41.8033 101.635 41.9114 101.664C45.3162 102.646 48.3618 104.597 50.6772 107.28C50.6931 107.298 50.7128 107.313 50.7348 107.323C51.0232 109.485 51.2971 111.648 51.5494 113.811C49.7387 112.277 47.6945 111.044 45.4941 110.156C45.4848 110.16 45.4767 110.166 45.4711 110.174C45.4654 110.183 45.4624 110.193 45.4624 110.203C45.4624 110.213 45.4654 110.223 45.4711 110.231C45.4767 110.239 45.4848 110.246 45.4941 110.25C47.7372 111.222 49.7918 112.581 51.5638 114.265C51.5638 114.265 51.6143 114.265 51.6431 114.301C51.881 116.363 52.1261 118.424 52.364 120.486C49.0981 116.539 44.8592 113.513 40.066 111.706C40.048 111.703 40.0295 111.706 40.0136 111.714C39.9977 111.723 39.9853 111.737 39.9785 111.754C39.9717 111.771 39.971 111.79 39.9764 111.807C39.9819 111.825 39.9931 111.84 40.0083 111.85C44.7415 113.939 48.9008 117.139 52.1333 121.178C52.1662 121.225 52.2134 121.26 52.2679 121.279C52.3225 121.297 52.3815 121.297 52.4361 121.279C52.7533 124.446 53.0296 127.618 53.2651 130.794C53.2651 130.838 53.3372 130.845 53.3372 130.794C53.0921 127.56 52.8374 124.319 52.5731 121.07Z" fill="white"/>
<path d="M40.9238 71.8129C38.408 70.09 35.2145 69.3475 32.2085 69.1024C32.1364 69.1024 32.1364 69.2033 32.2085 69.2106C35.3298 69.6719 37.9754 70.8037 40.8229 72.0219C40.9238 72.0796 41.0319 71.8922 40.9238 71.8129Z" fill="white"/>
<path d="M42.6828 110.79C40.6654 109.635 38.4465 108.874 36.1445 108.548C36.0652 108.548 36.058 108.664 36.1445 108.671C38.4019 109.123 40.5855 109.887 42.6323 110.942C42.6493 110.94 42.6655 110.934 42.679 110.924C42.6924 110.913 42.7025 110.899 42.7079 110.883C42.7133 110.867 42.7138 110.849 42.7093 110.833C42.7048 110.816 42.6956 110.801 42.6828 110.79Z" fill="white"/>
<path d="M93.3813 85.0913C87.2482 89.3333 81.6159 94.257 76.5923 99.7682C71.4146 105.598 67.4168 112.377 64.8205 119.729C59.3163 135.054 56.3577 151.177 56.062 167.458C55.876 176.479 56.7446 185.491 58.6499 194.31C58.6623 194.376 58.7004 194.434 58.7558 194.472C58.8113 194.51 58.8795 194.524 58.9454 194.512C59.0114 194.5 59.0697 194.461 59.1076 194.406C59.1454 194.351 59.1597 194.282 59.1473 194.216C56.781 178.653 56.871 162.816 59.414 147.281C61.9082 132.056 65.8153 115.49 75.4966 103.113C80.7661 96.3729 87.3404 91.0745 93.8355 85.5959C94.1671 85.322 93.7346 84.8462 93.3813 85.0913Z" fill="#EBEBEB"/>
<path d="M58.2246 156.508C61.7226 150.861 65.8323 145.618 70.4794 140.872C77.7385 133.62 83.8443 128.466 84.7886 123.665C85.733 118.864 77.5223 115.339 77.5223 115.339C77.5223 115.339 87.564 117.141 90.3105 112.924C93.057 108.707 94.3834 84.3127 94.3834 84.3127C94.3834 84.3127 76.1166 97.3461 67.6103 115.627C59.1041 133.909 58.2246 156.508 58.2246 156.508Z" fill="#EBEBEB"/>
<path d="M88.0037 90.5627C80.3192 98.1102 72.5843 106.155 68.0573 116.074C66.5117 119.499 65.1663 123.011 64.0276 126.592C63.7969 127.313 63.559 128.033 63.3067 128.754C63.2873 128.79 63.275 128.829 63.2707 128.87C61.1249 136.284 59.3945 143.812 58.0876 151.418C58.0876 151.462 58.1453 151.491 58.1597 151.418C58.9455 147.612 59.8105 143.763 60.7837 139.935C60.8194 139.942 60.8561 139.942 60.8918 139.935C62.4159 139.28 64.0336 138.869 65.6856 138.717C65.7937 138.717 65.7865 138.515 65.6856 138.522C64.0728 138.596 62.4773 138.887 60.9423 139.387C61.829 135.927 62.7877 132.481 63.869 129.086C67.4112 128.219 71.0364 127.736 74.682 127.644V127.579C71.1187 127.436 67.5519 127.756 64.0709 128.531C64.2583 127.947 64.4529 127.37 64.6476 126.786C67.0211 126.222 69.4292 125.815 71.8562 125.568C71.8995 125.568 71.8995 125.489 71.8562 125.489C69.4809 125.536 67.1164 125.823 64.7989 126.347C65.7865 123.405 66.8606 120.508 68.0573 117.696C69.0422 115.383 70.1938 113.145 71.503 110.999C73.4265 110.524 75.3796 110.177 77.3493 109.961C77.4069 109.961 77.3997 109.868 77.3493 109.86C75.5103 109.722 73.6613 109.905 71.8851 110.401C72.8438 108.851 73.853 107.33 74.9343 105.86C79.0289 104.951 83.1811 104.108 87.3765 104.894C87.4486 104.894 87.4703 104.785 87.3765 104.771C83.3901 103.719 79.447 104.324 75.4606 105.11C75.8931 104.533 76.34 103.964 76.787 103.401C79.2662 102.638 81.8416 102.233 84.4354 102.198C84.4469 102.198 84.4579 102.193 84.466 102.185C84.4741 102.177 84.4786 102.166 84.4786 102.154C84.4786 102.143 84.4741 102.132 84.466 102.124C84.4579 102.116 84.4469 102.111 84.4354 102.111C82.0401 101.892 79.6249 102.107 77.306 102.745C80.6869 98.5427 84.4282 94.5924 88.119 90.6781C88.3209 90.4906 88.1839 90.3897 88.0037 90.5627Z" fill="white"/>
<path d="M87.7802 107.2C86.5868 107.03 85.3785 106.986 84.1759 107.071C84.0317 107.071 84.0389 107.33 84.1759 107.33C85.3797 107.33 86.5764 107.28 87.7802 107.33C87.7924 107.324 87.8027 107.315 87.8099 107.304C87.8171 107.292 87.8209 107.279 87.8209 107.265C87.8209 107.252 87.8171 107.238 87.8099 107.227C87.8027 107.215 87.7924 107.206 87.7802 107.2Z" fill="white"/>
<path d="M74.6532 130.874C72.7247 130.917 70.8189 131.301 69.0233 132.005C68.98 132.005 69.0233 132.092 69.0233 132.085C70.8831 131.638 72.7646 131.458 74.6388 131.148C74.6568 131.149 74.6748 131.146 74.6918 131.14C74.7088 131.134 74.7244 131.125 74.7378 131.113C74.7512 131.101 74.762 131.086 74.7698 131.07C74.7776 131.053 74.782 131.036 74.783 131.018C74.7839 131 74.7813 130.982 74.7753 130.965C74.7693 130.948 74.76 130.932 74.748 130.919C74.7359 130.905 74.7214 130.895 74.7051 130.887C74.6889 130.879 74.6712 130.875 74.6532 130.874Z" fill="white"/>
<path d="M70.7173 122.692C69.9145 122.688 69.1132 122.761 68.324 122.908C68.2447 122.908 68.2519 123.052 68.324 123.052C69.1234 123.096 69.9251 123.06 70.7173 122.944C70.8615 122.915 70.8543 122.699 70.7173 122.692Z" fill="white"/>
<path d="M4.64964 110.992C10.5925 113.007 16.2877 115.688 21.6261 118.987C27.1649 122.507 31.9661 127.07 35.7623 132.424C43.7665 143.553 49.8933 155.919 53.8994 169.029C56.1333 176.293 57.5122 183.793 58.0083 191.376C57.9991 191.426 57.9728 191.471 57.934 191.503C57.8951 191.535 57.8462 191.553 57.7957 191.553C57.7451 191.553 57.6962 191.535 57.6574 191.503C57.6185 191.471 57.5922 191.426 57.583 191.376C55.9016 178.234 52.1703 165.437 46.5249 153.451C40.9886 141.708 33.989 129.208 23.2985 121.43C17.4739 117.192 10.9284 114.423 4.40455 111.49C4.06574 111.353 4.31083 110.87 4.64964 110.992Z" fill="#EBEBEB"/>
<path d="M49.6391 160.653C45.507 156.89 40.9745 153.593 36.1228 150.82C28.5753 146.632 22.4263 143.871 20.5664 140.209C18.7066 136.547 24.5168 131.789 24.5168 131.789C24.5168 131.789 16.8107 135.566 13.6173 132.791C10.4238 130.016 3.70532 110.574 3.70532 110.574C3.70532 110.574 21.4964 116.903 32.6122 129.735C43.728 142.566 49.6391 160.653 49.6391 160.653Z" fill="#EBEBEB"/>
<path d="M48.7091 156.645C39.8064 139.935 27.9481 124.826 11.6637 114.834C15.9129 117.582 19.8973 120.72 23.5652 124.206C20.2545 124.025 16.9547 124.721 13.9993 126.224C13.9901 126.232 13.9837 126.243 13.9809 126.255C13.9782 126.267 13.9794 126.279 13.9842 126.29C13.989 126.302 13.9972 126.311 14.0077 126.317C14.0182 126.323 14.0304 126.326 14.0426 126.325C17.1882 125.145 20.531 124.58 23.8896 124.66C23.9297 124.659 23.9681 124.644 23.9978 124.617C24.5817 125.164 25.1511 125.719 25.7134 126.282C23.9936 126.362 22.2838 126.589 20.6025 126.959C20.5929 126.959 20.5837 126.963 20.577 126.97C20.5702 126.977 20.5664 126.986 20.5664 126.995C20.5664 127.005 20.5702 127.014 20.577 127.021C20.5837 127.028 20.5929 127.031 20.6025 127.031C22.3823 126.699 24.1915 126.549 26.0018 126.585C28.9886 129.594 31.8044 132.768 34.4359 136.093C33.2297 135.921 32.0008 136.01 30.8316 136.352C30.8172 136.357 30.8046 136.366 30.7957 136.378C30.7868 136.391 30.782 136.406 30.782 136.421C30.782 136.436 30.7868 136.451 30.7957 136.463C30.8046 136.475 30.8172 136.484 30.8316 136.489C32.0977 136.343 33.3754 136.326 34.645 136.439C35.1352 137.059 35.6254 137.671 36.0867 138.299C32.4495 138.08 28.8005 138.435 25.2737 139.351C25.2232 139.351 25.2377 139.445 25.2737 139.438C28.9256 138.723 32.6542 138.48 36.3679 138.717C36.822 139.315 37.2545 139.935 37.6943 140.548C35.5277 140.485 33.363 140.727 31.2641 141.269C31.2543 141.265 31.2439 141.264 31.2336 141.266C31.2234 141.267 31.2136 141.271 31.2052 141.277C31.1968 141.283 31.1899 141.291 31.1851 141.3C31.1804 141.309 31.1779 141.32 31.1779 141.33C31.1779 141.34 31.1804 141.35 31.1851 141.36C31.1899 141.369 31.1968 141.377 31.2052 141.383C31.2136 141.389 31.2234 141.393 31.2336 141.394C31.2439 141.396 31.2543 141.395 31.2641 141.391C33.4483 140.918 35.6869 140.746 37.9177 140.879C39.8352 143.511 41.6663 146.207 43.4324 148.939C42.4902 148.768 41.5209 148.828 40.6066 149.112C40.597 149.112 40.5878 149.115 40.5811 149.122C40.5743 149.129 40.5705 149.138 40.5705 149.148C40.5705 149.157 40.5743 149.166 40.5811 149.173C40.5878 149.18 40.597 149.184 40.6066 149.184C41.6274 149.105 42.6541 149.154 43.6631 149.328C45.249 151.798 46.7772 154.287 48.2478 156.796C48.4857 157.02 48.8533 156.861 48.7091 156.645Z" fill="white"/>
<path d="M34.8685 142.782C33.1187 142.668 31.363 142.883 29.6927 143.417C29.6494 143.417 29.6927 143.503 29.6927 143.496C31.3951 143.209 33.1144 143.033 34.8397 142.97C34.9622 142.948 34.9839 142.797 34.8685 142.782Z" fill="white"/>
<path d="M19.3409 122.425C18.5451 122.365 17.7448 122.413 16.9621 122.569C16.9476 122.574 16.9351 122.583 16.9262 122.596C16.9173 122.608 16.9125 122.623 16.9125 122.638C16.9125 122.653 16.9173 122.668 16.9262 122.68C16.9351 122.692 16.9476 122.702 16.9621 122.706C17.7478 122.627 18.5191 122.656 19.3049 122.627C19.3316 122.632 19.3592 122.626 19.3815 122.61C19.4038 122.595 19.419 122.571 19.4238 122.544C19.4286 122.517 19.4226 122.49 19.407 122.467C19.3915 122.445 19.3677 122.43 19.3409 122.425Z" fill="white"/>
<path d="M72.5915 215.893H32.4175L38.1484 173.938L39.6118 163.183H65.3972L66.8606 173.938L72.5915 215.893Z" fill="#DBDBDB"/>
<path d="M66.8606 173.938H38.1484L39.6118 163.183H65.3973L66.8606 173.938Z" fill="#C7C7C7"/>
<path d="M69.0809 159.449H35.9209V168.561H69.0809V159.449Z" fill="#DBDBDB"/>
<path d="M378.225 24.4734C376.318 29.3277 375.196 34.4549 374.902 39.6621H361.624H361.458V39.2945L361.566 38.2637C361.728 36.4744 362.017 34.6989 362.431 32.9509C363.127 30.0903 364.13 27.3133 365.423 24.6681C365.447 24.6036 365.492 24.5492 365.551 24.5139C365.61 24.4785 365.679 24.4642 365.747 24.4734H378.204H378.225Z" fill="#EBEBEB"/>
<path d="M377.822 58.3904H365.466C365.401 58.3971 365.336 58.3815 365.281 58.3461C365.226 58.3108 365.184 58.2577 365.163 58.1958C363.737 55.2194 362.707 52.0687 362.1 48.8245C361.793 47.2633 361.591 45.6835 361.494 44.0956C361.494 44.0451 361.494 43.9874 361.458 43.937V43.5621H361.66H374.686C374.924 43.5621 374.917 43.5621 374.931 43.8072C375.018 44.8813 375.09 45.9698 375.191 47.0439C375.362 48.7558 375.639 50.4555 376.02 52.1333C376.466 54.1866 377.051 56.2073 377.771 58.1814C377.778 58.2534 377.793 58.3183 377.822 58.3904Z" fill="#EBEBEB"/>
<path d="M429.782 62.3118C429.782 62.3839 429.71 62.4416 429.681 62.492C428.631 64.0931 427.46 65.6114 426.178 67.0335C424.632 68.7801 422.912 70.3646 421.045 71.7624C419.213 73.1439 417.256 74.3507 415.199 75.3668C413.217 76.356 411.149 77.1619 409.021 77.7745C407.332 78.2554 405.612 78.6215 403.874 78.8702L403.369 78.9567H403.074L402.8 78.7909L403.131 78.5602C406.907 75.9949 410.209 72.795 412.892 69.1024C414.409 67.0208 415.743 64.8115 416.878 62.4993C416.898 62.4365 416.939 62.3827 416.995 62.3471C417.05 62.3116 417.116 62.2965 417.181 62.3046H429.818L429.782 62.3118Z" fill="#EBEBEB"/>
<path d="M417.426 39.6478H400.068V24.5095H400.269H413.613C413.671 24.5023 413.731 24.5166 413.78 24.5497C413.829 24.5828 413.864 24.6326 413.879 24.6897C415.129 27.5401 416.055 30.5214 416.64 33.578C416.954 35.167 417.177 36.7722 417.311 38.3862C417.354 38.7755 417.39 39.2008 417.426 39.6478Z" fill="#EBEBEB"/>
<path d="M417.318 43.6991C417.318 44.0523 417.318 44.42 417.268 44.766C417.196 45.6094 417.131 46.46 417.015 47.2962C416.85 48.4568 416.677 49.6246 416.439 50.778C415.924 53.3089 415.171 55.7853 414.19 58.1741C414.174 58.2442 414.133 58.3059 414.074 58.3472C414.016 58.3885 413.944 58.4065 413.872 58.3976H399.967V43.6991H417.318Z" fill="#EBEBEB"/>
<path d="M396.153 24.5743V39.763H379.206C379.206 39.3738 379.242 38.9989 379.285 38.6241C379.372 37.7734 379.436 36.9228 379.573 36.0794C379.783 34.7963 379.999 33.5059 380.294 32.23C380.852 29.6539 381.666 27.14 382.724 24.7257C382.743 24.6663 382.782 24.6152 382.835 24.5811C382.887 24.547 382.95 24.5319 383.012 24.5383H396.153V24.5743Z" fill="#EBEBEB"/>
<path d="M396.175 43.9009C396.175 48.6586 396.175 53.4188 396.175 58.1813V58.3903H382.615C382.549 58.3996 382.482 58.3842 382.426 58.347C382.37 58.3098 382.33 58.2534 382.313 58.1885C381.284 55.7249 380.511 53.1619 380.006 50.5401C379.754 49.1921 379.559 47.8296 379.393 46.4672C379.278 45.5805 379.249 44.6794 379.191 43.7783C379.189 43.7472 379.189 43.7158 379.191 43.6846H395.937C396.132 43.6774 396.175 43.7279 396.175 43.9009Z" fill="#EBEBEB"/>
<path d="M435.83 39.7559H421.607C421.32 34.5181 420.2 29.3594 418.291 24.4735H431.548C431.613 24.4646 431.68 24.4783 431.736 24.5124C431.793 24.5465 431.836 24.5989 431.858 24.6609C433.376 27.6674 434.48 30.866 435.138 34.1691C435.493 35.9274 435.734 37.7069 435.859 39.4964L435.83 39.7559Z" fill="#EBEBEB"/>
<path d="M435.837 43.5837C435.837 43.9298 435.837 44.2541 435.794 44.5785C435.703 45.8616 435.546 47.1392 435.325 48.4063C434.799 51.3484 433.92 54.2164 432.709 56.9486C432.521 57.3884 432.305 57.8209 432.11 58.2606C432.097 58.3044 432.069 58.3421 432.031 58.3671C431.992 58.3921 431.947 58.4029 431.901 58.3976H418.659C418.817 57.9434 418.976 57.5037 419.127 57.0568C419.894 54.7972 420.482 52.4809 420.886 50.1292C421.191 48.4246 421.396 46.7036 421.499 44.975C421.499 44.5641 421.55 44.1532 421.564 43.7495C421.564 43.6414 421.564 43.5837 421.715 43.5982C421.758 43.6018 421.802 43.6018 421.845 43.5982L435.837 43.5837Z" fill="#EBEBEB"/>
<path d="M429.393 20.6024V20.6673H429.205C425.06 20.6673 420.915 20.6673 416.77 20.6673C416.707 20.675 416.643 20.6614 416.588 20.6288C416.533 20.5962 416.491 20.5464 416.467 20.4871C414.815 17.1835 412.741 14.1084 410.297 11.3393C408.854 9.74186 407.269 8.27962 405.561 6.97079C404.71 6.32201 403.831 5.70927 402.966 5.08212L402.821 4.97398L402.994 4.85144C402.994 4.77935 402.944 4.69285 402.908 4.58472C407.294 5.07702 411.555 6.35663 415.487 8.36207C421.105 11.1676 425.897 15.3858 429.393 20.6024Z" fill="#EBEBEB"/>
<path d="M393.746 78.7909C393.629 78.8274 393.507 78.8468 393.385 78.8486C392.02 78.6702 390.667 78.4078 389.334 78.0628C386.844 77.4264 384.428 76.53 382.125 75.3884C379.489 74.0758 377.018 72.4545 374.765 70.5586C373.163 69.2176 371.685 67.7363 370.346 66.1324C369.346 64.9189 368.423 63.6427 367.585 62.3118C367.56 62.2739 367.541 62.2326 367.528 62.1893H367.729C371.593 62.1893 375.45 62.1893 379.314 62.1893C379.376 62.1842 379.438 62.1999 379.49 62.2338C379.542 62.2677 379.582 62.318 379.602 62.3767C380.81 64.8123 382.236 67.1334 383.862 69.3115C385.367 71.2914 387.036 73.1409 388.851 74.8405C390.344 76.2539 391.95 77.5436 393.652 78.6972L393.746 78.7909Z" fill="#EBEBEB"/>
<path d="M393.594 4.95238C393.061 5.34165 392.441 5.78138 391.835 6.24273C389.814 7.8169 387.935 9.56573 386.22 11.469C383.898 13.9992 381.918 16.8226 380.33 19.8672C380.229 20.0618 380.143 20.2636 380.028 20.4438C380.007 20.4748 379.981 20.5011 379.95 20.5209C379.919 20.5408 379.884 20.5539 379.847 20.5592C379.638 20.5592 379.429 20.5592 379.22 20.5592H367.903C374.21 11.6565 382.68 6.3004 393.465 4.70007C393.465 4.75053 393.414 4.80099 393.385 4.84424L393.594 4.95238Z" fill="#EBEBEB"/>
<path d="M412.243 62.3191C410.636 65.1244 408.7 67.7282 406.476 70.0756C404.523 72.18 402.326 74.0434 399.931 75.6263V62.3191H412.243Z" fill="#EBEBEB"/>
<path d="M396.153 62.3263V75.374C391.253 72.0149 387.216 67.5438 384.374 62.3263H396.153Z" fill="#EBEBEB"/>
<path d="M411.861 20.5519H400.068V8.14575C402.487 9.72302 404.708 11.5841 406.685 13.6892C408.641 15.7936 410.375 18.0932 411.861 20.5519Z" fill="#EBEBEB"/>
<path d="M396.153 8.49902V20.6529H384.836C387.604 15.7711 391.481 11.608 396.153 8.49902Z" fill="#EBEBEB"/>
<path d="M171.574 70.8614H72.505V6.34363H171.574V70.8614ZM73.2259 70.1405H170.853V7.0645H73.2259V70.1405Z" fill="#EBEBEB"/>
<path d="M171.574 15.5419H72.505V6.34363H171.574V15.5419ZM73.2259 14.821H170.853V7.0645H73.2259V14.821Z" fill="#EBEBEB"/>
<path d="M80.8239 11.0293C80.8239 11.457 80.697 11.8751 80.4594 12.2308C80.2218 12.5864 79.884 12.8636 79.4889 13.0273C79.0937 13.191 78.6589 13.2338 78.2394 13.1504C77.8199 13.0669 77.4345 12.8609 77.1321 12.5585C76.8296 12.2561 76.6237 11.8707 76.5402 11.4512C76.4568 11.0317 76.4996 10.5969 76.6633 10.2017C76.827 9.80655 77.1041 9.4688 77.4598 9.23116C77.8154 8.99353 78.2335 8.8667 78.6613 8.8667C79.2348 8.8667 79.7849 9.09455 80.1905 9.50011C80.596 9.90568 80.8239 10.4557 80.8239 11.0293Z" fill="#C7C7C7"/>
<path d="M89.5247 11.0292C89.5246 11.4585 89.3968 11.878 89.1576 12.2344C88.9183 12.5908 88.5784 12.8679 88.1811 13.0304C87.7839 13.193 87.3472 13.2337 86.9267 13.1473C86.5063 13.0609 86.121 12.8513 85.8201 12.5452C85.5191 12.2392 85.316 11.8505 85.2367 11.4286C85.1574 11.0068 85.2054 10.5708 85.3746 10.1764C85.5438 9.78188 85.8266 9.44669 86.187 9.21345C86.5473 8.98021 86.9689 8.85948 87.3981 8.86663C87.6804 8.86659 87.9599 8.92277 88.2203 9.03189C88.4807 9.141 88.7168 9.30088 88.9147 9.50218C89.1127 9.70348 89.2685 9.94219 89.3733 10.2044C89.478 10.4665 89.5295 10.747 89.5247 11.0292Z" fill="#EBEBEB"/>
<path d="M98.2328 11.0293C98.2328 11.457 98.106 11.8751 97.8683 12.2308C97.6307 12.5864 97.293 12.8636 96.8978 13.0273C96.5026 13.191 96.0678 13.2338 95.6483 13.1504C95.2288 13.0669 94.8434 12.8609 94.541 12.5585C94.2386 12.2561 94.0326 11.8707 93.9491 11.4512C93.8657 11.0317 93.9085 10.5969 94.0722 10.2017C94.2359 9.80655 94.5131 9.4688 94.8687 9.23116C95.2244 8.99353 95.6425 8.8667 96.0702 8.8667C96.6438 8.8667 97.1938 9.09455 97.5994 9.50011C98.005 9.90568 98.2328 10.4557 98.2328 11.0293Z" fill="#B0908C"/>
<path d="M237 284.858C367.891 284.858 474 271.523 474 255.072C474 238.622 367.891 225.286 237 225.286C106.108 225.286 0 238.622 0 255.072C0 271.523 106.108 284.858 237 284.858Z" fill="#EBEBEB"/>
<path d="M3.23669 215.893L61.6775 215.72L120.118 215.655L237 215.533L353.882 215.655L412.322 215.72L470.763 215.893L412.322 216.073L353.882 216.131L237 216.253L120.118 216.131L61.6775 216.066L3.23669 215.893Z" fill="#263238"/>
<path d="M376.647 38.7395H96.8126V225.927H376.647V38.7395Z" fill="#DBDBDB"/>
<path d="M374.614 41.0247H98.8455V223.642H374.614V41.0247Z" fill="#263238"/>
<path d="M413.094 239.963H60.3655V252.809H413.094V239.963Z" fill="#C7C7C7"/>
<path d="M60.3655 239.963L96.8126 225.927H376.647L413.094 239.963H60.3655Z" fill="#DBDBDB"/>
<path d="M100.071 234.989L123.593 225.927H349.874L373.396 234.989H100.071Z" fill="#263238"/>
<path d="M359.029 54.9014H114.431V209.773H359.029V54.9014Z" fill="white"/>
<path d="M359.036 54.9014H114.229V60.863H359.036V54.9014Z" fill="#455A64"/>
<path d="M118.965 57.8858C118.965 58.1796 118.877 58.4667 118.713 58.7104C118.549 58.9542 118.316 59.1435 118.044 59.2542C117.772 59.3649 117.473 59.392 117.185 59.332C116.898 59.272 116.634 59.1276 116.429 58.9173C116.224 58.7071 116.086 58.4404 116.033 58.1514C115.981 57.8624 116.015 57.5642 116.132 57.2949C116.25 57.0256 116.445 56.7973 116.693 56.6394C116.94 56.4814 117.229 56.4009 117.523 56.408C117.909 56.4174 118.275 56.5773 118.545 56.8534C118.814 57.1295 118.965 57.5 118.965 57.8858Z" fill="#C7C7C7"/>
<path d="M124.999 57.8858C124.998 58.1796 124.911 58.4667 124.747 58.7104C124.583 58.9542 124.35 59.1435 124.078 59.2542C123.805 59.3649 123.507 59.392 123.219 59.332C122.931 59.272 122.668 59.1276 122.463 58.9173C122.258 58.7071 122.12 58.4404 122.067 58.1514C122.014 57.8624 122.049 57.5642 122.166 57.2949C122.283 57.0256 122.478 56.7973 122.726 56.6394C122.974 56.4814 123.263 56.4009 123.557 56.408C123.942 56.4174 124.309 56.5773 124.579 56.8534C124.848 57.1295 124.999 57.5 124.999 57.8858Z" fill="white"/>
<path d="M131.032 57.8857C131.032 58.178 130.946 58.4637 130.783 58.7068C130.621 58.9498 130.39 59.1392 130.12 59.251C129.85 59.3629 129.553 59.3921 129.266 59.3351C128.979 59.2781 128.716 59.1374 128.509 58.9307C128.303 58.724 128.162 58.4607 128.105 58.174C128.048 57.8874 128.077 57.5902 128.189 57.3202C128.301 57.0502 128.49 56.8194 128.733 56.657C128.976 56.4946 129.262 56.408 129.554 56.408C129.946 56.408 130.322 56.5637 130.599 56.8408C130.877 57.1179 131.032 57.4938 131.032 57.8857Z" fill="#B0908C"/>
<path d="M126.181 140H221.299V73.3844L126.181 73.3844L126.181 140Z" fill="#EBEBEB"/>
<path d="M137.297 92.3217C137.297 93.8801 137.759 95.4034 138.625 96.6991C139.49 97.9948 140.721 99.0047 142.161 99.6011C143.6 100.197 145.184 100.353 146.713 100.049C148.241 99.7454 149.645 98.995 150.747 97.8931C151.849 96.7912 152.599 95.3873 152.903 93.8589C153.207 92.3305 153.051 90.7462 152.455 89.3065C151.859 87.8668 150.849 86.6363 149.553 85.7705C148.257 84.9047 146.734 84.4426 145.176 84.4426C143.086 84.4426 141.082 85.2727 139.604 86.7504C138.127 88.228 137.297 90.2321 137.297 92.3217Z" fill="#DBDBDB"/>
<path d="M168.402 125.647H221.307L194.851 89.7986L168.402 125.647Z" fill="#C7C7C7"/>
<path d="M147.684 125.683H191.355L169.519 102.334L147.684 125.683Z" fill="#DBDBDB"/>
<path d="M221.299 125.647H126.181V140H221.299V125.647Z" fill="#DBDBDB"/>
<path d="M234.83 197.013H287.98V148.924H234.83V197.013Z" fill="#EBEBEB"/>
<path d="M241.7 159.435C241.461 160.633 241.613 161.877 242.135 162.982C242.657 164.087 243.521 164.995 244.598 165.571C245.676 166.148 246.91 166.362 248.119 166.183C249.328 166.004 250.447 165.441 251.311 164.577C252.176 163.713 252.739 162.593 252.918 161.384C253.097 160.175 252.883 158.941 252.306 157.863C251.729 156.786 250.822 155.922 249.717 155.4C248.611 154.878 247.368 154.726 246.169 154.965C245.066 155.186 244.053 155.728 243.258 156.523C242.462 157.318 241.92 158.332 241.7 159.435Z" fill="#DBDBDB"/>
<path d="M249.795 186.647H287.987L268.891 160.768L249.795 186.647Z" fill="#C7C7C7"/>
<path d="M234.837 186.669H266.368L250.603 169.815L234.837 186.669Z" fill="#DBDBDB"/>
<path d="M287.987 186.647H234.837V197.006H287.987V186.647Z" fill="#DBDBDB"/>
<path d="M320.094 73.3916H234.837V77.6952H320.094V73.3916Z" fill="#A6A6A6"/>
<path d="M338.635 82.2944H234.837V86.598H338.635V82.2944Z" fill="#DBDBDB"/>
<path d="M338.635 91.1971H234.837V95.5007H338.635V91.1971Z" fill="#DBDBDB"/>
<path d="M338.635 100.107H234.837V104.411H338.635V100.107Z" fill="#DBDBDB"/>
<path d="M338.635 109.01H234.837V113.313H338.635V109.01Z" fill="#DBDBDB"/>
<path d="M303.745 117.912H234.837V122.216H303.745V117.912Z" fill="#DBDBDB"/>
<path d="M330.432 148.917H292.723V153.156H330.432V148.917Z" fill="#A6A6A6"/>
<path d="M338.628 157.69H292.723V161.929H338.628V157.69Z" fill="#DBDBDB"/>
<path d="M338.628 166.463H292.723V170.702H338.628V166.463Z" fill="#DBDBDB"/>
<path d="M338.628 175.229H292.723V179.467H338.628V175.229Z" fill="#DBDBDB"/>
<path d="M338.628 184.002H292.723V188.24H338.628V184.002Z" fill="#DBDBDB"/>
<path d="M323.879 192.775H292.723V197.013H323.879V192.775Z" fill="#DBDBDB"/>
<path d="M338.635 127.356H234.837V140H338.635V127.356Z" fill="#B0908C"/>
<path d="M221.299 148.917H126.181V161.561H221.299V148.917Z" fill="#A6A6A6"/>
<path d="M221.299 166.167H126.181V170.442H221.299V166.167Z" fill="#DBDBDB"/>
<path d="M221.299 175.02H126.181V179.295H221.299V175.02Z" fill="#DBDBDB"/>
<path d="M221.299 183.879H126.181V188.154H221.299V183.879Z" fill="#DBDBDB"/>
<path d="M191.355 192.731H126.181V197.006H191.355V192.731Z" fill="#DBDBDB"/>
<path d="M359.029 60.8557H352.49V209.766H359.029V60.8557Z" fill="#DBDBDB"/>
<path d="M355.756 138.789C355.308 138.789 354.879 138.611 354.563 138.295C354.247 137.978 354.069 137.549 354.069 137.102V64.0203C354.069 63.573 354.247 63.1439 354.563 62.8276C354.879 62.5112 355.308 62.3335 355.756 62.3335C356.203 62.3335 356.632 62.5112 356.949 62.8276C357.265 63.1439 357.443 63.573 357.443 64.0203V137.102C357.443 137.549 357.265 137.978 356.949 138.295C356.632 138.611 356.203 138.789 355.756 138.789Z" fill="#A6A6A6"/>
<path d="M208.208 138.623V244.288C208.187 246.564 207.265 248.739 205.644 250.336C204.022 251.933 201.834 252.822 199.558 252.809H33.4699C31.194 252.822 29.0055 251.933 27.3841 250.336C25.7626 248.739 24.8404 246.564 24.8195 244.288V138.623C24.8404 136.348 25.7629 134.174 27.3845 132.578C29.0062 130.982 31.1946 130.094 33.4699 130.11H199.515C200.645 130.096 201.767 130.306 202.816 130.727C203.865 131.148 204.82 131.772 205.628 132.562C206.436 133.353 207.079 134.296 207.522 135.336C207.965 136.376 208.198 137.493 208.208 138.623Z" fill="#455A64"/>
<path d="M195.615 135.264H37.7518V247.489H195.615V135.264Z" fill="white"/>
<path d="M47.1447 192.126H117.177V143.085H47.1447V192.126Z" fill="#EBEBEB"/>
<path d="M55.3411 157.034C55.3482 158.173 55.6924 159.285 56.3304 160.228C56.9684 161.172 57.8716 161.905 58.926 162.336C59.9803 162.767 61.1387 162.876 62.255 162.65C63.3713 162.423 64.3955 161.871 65.1984 161.063C66.0013 160.255 66.547 159.228 66.7666 158.11C66.9863 156.992 66.87 155.835 66.4324 154.783C65.9949 153.731 65.2557 152.833 64.3082 152.201C63.3606 151.568 62.2471 151.231 61.108 151.231C60.3476 151.231 59.5948 151.381 58.8927 151.673C58.1907 151.966 57.5533 152.394 57.0174 152.933C56.4814 153.472 56.0573 154.112 55.7696 154.816C55.482 155.52 55.3363 156.274 55.3411 157.034Z" fill="#DBDBDB"/>
<path d="M78.2286 181.565H117.177L97.6993 155.174L78.2286 181.565Z" fill="#C7C7C7"/>
<path d="M62.975 181.587H95.1257L79.0503 164.401L62.975 181.587Z" fill="#DBDBDB"/>
<path d="M117.177 181.565H47.1448V192.133H117.177V181.565Z" fill="#DBDBDB"/>
<path d="M139.394 238.723H186.222V205.931H139.394V238.723Z" fill="#EBEBEB"/>
<path d="M144.866 215.259C144.864 216.027 145.091 216.779 145.517 217.419C145.943 218.059 146.549 218.558 147.259 218.854C147.969 219.149 148.751 219.227 149.505 219.078C150.259 218.928 150.952 218.559 151.496 218.016C152.04 217.473 152.411 216.78 152.561 216.027C152.712 215.273 152.635 214.491 152.342 213.781C152.048 213.07 151.55 212.463 150.911 212.036C150.271 211.608 149.52 211.38 148.751 211.38C148.241 211.379 147.736 211.479 147.265 211.674C146.793 211.868 146.365 212.154 146.004 212.514C145.643 212.874 145.357 213.302 145.162 213.773C144.966 214.244 144.866 214.749 144.866 215.259Z" fill="#DBDBDB"/>
<path d="M160.184 231.658H186.222L173.203 214.012L160.184 231.658Z" fill="#C7C7C7"/>
<path d="M149.984 231.68H171.48L160.732 220.182L149.984 231.68Z" fill="#DBDBDB"/>
<path d="M186.222 231.666H139.394V238.73H186.222V231.666Z" fill="#DBDBDB"/>
<path d="M186.229 143.093H123.218V155.073H186.229V143.093Z" fill="#B0908C"/>
<path d="M186.229 159.622H123.218V161.302H186.229V159.622Z" fill="#DBDBDB"/>
<path d="M186.229 163.565H123.218V165.245H186.229V163.565Z" fill="#DBDBDB"/>
<path d="M186.229 167.508H123.218V169.188H186.229V167.508Z" fill="#DBDBDB"/>
<path d="M186.229 171.451H123.218V173.131H186.229V171.451Z" fill="#DBDBDB"/>
<path d="M186.229 175.395H123.218V177.074H186.229V175.395Z" fill="#DBDBDB"/>
<path d="M186.229 179.338H123.218V181.017H186.229V179.338Z" fill="#DBDBDB"/>
<path d="M159.442 183.281H123.218V184.96H159.442V183.281Z" fill="#DBDBDB"/>
<path d="M132.734 229.597H69.7224V231.276H132.734V229.597Z" fill="#DBDBDB"/>
<path d="M132.734 205.938H69.7224V207.617H132.734V205.938Z" fill="#DBDBDB"/>
<path d="M132.734 209.881H69.7224V211.561H132.734V209.881Z" fill="#DBDBDB"/>
<path d="M132.734 213.824H69.7224V215.504H132.734V213.824Z" fill="#DBDBDB"/>
<path d="M112.693 217.767H69.7224V219.447H112.693V217.767Z" fill="#DBDBDB"/>
<path d="M132.734 225.654H69.7224V227.333H132.734V225.654Z" fill="#DBDBDB"/>
<path d="M112.693 233.54H69.7224V235.219H112.693V233.54Z" fill="#DBDBDB"/>
<path d="M186.229 197.605H47.1448V201.569H186.229V197.605Z" fill="#455A64"/>
<path d="M65.1521 205.938H47.1448V238.73H65.1521V205.938Z" fill="#B0908C"/>
<path d="M32.4174 178.098H32.3093C31.8116 178.098 31.4082 178.501 31.4082 178.999V203.905C31.4082 204.403 31.8116 204.806 32.3093 204.806H32.4174C32.9151 204.806 33.3185 204.403 33.3185 203.905V178.999C33.3185 178.501 32.9151 178.098 32.4174 178.098Z" fill="#37474F"/>
<path d="M206.003 191.448C206.004 192.133 205.802 192.803 205.422 193.373C205.043 193.944 204.502 194.388 203.87 194.651C203.237 194.914 202.541 194.983 201.869 194.85C201.197 194.716 200.58 194.387 200.096 193.902C199.611 193.418 199.282 192.801 199.148 192.129C199.015 191.457 199.084 190.761 199.347 190.128C199.61 189.495 200.054 188.955 200.625 188.576C201.195 188.196 201.865 187.994 202.55 187.995C203.465 187.997 204.342 188.362 204.989 189.009C205.636 189.656 206.001 190.533 206.003 191.448Z" fill="#37474F"/>
<path d="M438.202 107.482H373.965C372.228 107.501 370.569 108.208 369.353 109.449C368.136 110.689 367.462 112.362 367.477 114.099V246.306C367.464 248.043 368.139 249.715 369.355 250.955C370.571 252.195 372.228 252.903 373.965 252.924H438.187C439.924 252.903 441.582 252.195 442.797 250.955C444.013 249.715 444.689 248.043 444.675 246.306V114.114C444.694 112.376 444.023 110.702 442.81 109.459C441.596 108.215 439.939 107.504 438.202 107.482ZM440.645 242.219C440.645 245.701 438.036 248.512 434.821 248.512H377.367C374.145 248.512 371.543 245.701 371.543 242.219V119.109C371.543 112.023 374.145 111.677 377.367 111.677H388.901C389.572 111.677 390.12 112.398 390.12 113.378V113.782C390.12 115.995 391.331 116.002 392.816 116.002H419.38C420.872 116.002 422.069 116.002 422.069 113.782V113.393C422.069 112.448 422.609 111.691 423.294 111.691H434.828C438.043 111.691 440.653 112.636 440.653 119.124L440.645 242.219Z" fill="#455A64"/>
<path d="M409.72 113.241H402.461C402.342 113.241 402.229 113.194 402.145 113.11C402.061 113.027 402.014 112.913 402.014 112.794C402.014 112.676 402.061 112.562 402.145 112.478C402.229 112.395 402.342 112.347 402.461 112.347H409.72C409.839 112.347 409.954 112.394 410.039 112.478C410.124 112.561 410.172 112.675 410.174 112.794C410.172 112.914 410.124 113.027 410.039 113.111C409.954 113.194 409.839 113.241 409.72 113.241Z" fill="white"/>
<path d="M440.645 119.109V242.219C440.645 245.701 438.036 248.512 434.821 248.512H377.368C374.145 248.512 371.543 245.701 371.543 242.219V119.109C371.543 112.023 374.145 111.677 377.368 111.677H388.901C389.572 111.677 390.12 112.398 390.12 113.378V113.782C390.12 115.995 391.331 116.002 392.816 116.002H419.38C420.872 116.002 422.069 116.002 422.069 113.782V113.393C422.069 112.448 422.609 111.691 423.294 111.691H434.828C438.036 111.677 440.645 112.621 440.645 119.109Z" fill="white"/>
<path d="M440.645 119.109V128.293H371.536V119.109C371.536 112.023 374.145 111.677 377.368 111.677H388.901C389.565 111.677 390.113 112.398 390.113 113.378V113.782C390.113 115.995 391.324 116.002 392.801 116.002H419.38C420.872 116.002 422.076 116.002 422.076 113.782V113.393C422.076 112.448 422.617 111.691 423.294 111.691H434.828C438.036 111.677 440.645 112.621 440.645 119.109Z" fill="#B0908C"/>
<path d="M378.088 123.809L376.048 121.899L378.088 119.989L378.406 120.32L376.726 121.899L378.406 123.478L378.088 123.809Z" fill="white"/>
<path d="M434.41 123.982H432.968V123.485C432.968 123.471 432.964 123.458 432.956 123.446C432.948 123.435 432.938 123.426 432.925 123.42L432.766 123.326C432.754 123.321 432.74 123.318 432.727 123.318C432.713 123.318 432.7 123.321 432.687 123.326L432.247 123.586L431.526 122.339L431.966 122.086C431.975 122.075 431.98 122.061 431.98 122.047C431.98 122.032 431.975 122.018 431.966 122.007V121.834C431.975 121.823 431.98 121.809 431.98 121.794C431.98 121.78 431.975 121.766 431.966 121.755L431.526 121.502L432.247 120.255L432.687 120.508C432.699 120.515 432.713 120.518 432.727 120.518C432.741 120.518 432.754 120.515 432.766 120.508L432.925 120.414C432.938 120.408 432.948 120.399 432.956 120.388C432.964 120.376 432.968 120.363 432.968 120.349V119.837H434.41V120.349C434.41 120.363 434.414 120.376 434.422 120.388C434.43 120.399 434.44 120.408 434.453 120.414L434.612 120.508C434.624 120.515 434.637 120.518 434.651 120.518C434.665 120.518 434.679 120.515 434.691 120.508L435.131 120.255L435.852 121.502L435.412 121.755C435.403 121.766 435.398 121.78 435.398 121.794C435.398 121.809 435.403 121.823 435.412 121.834V122.007C435.403 122.018 435.398 122.032 435.398 122.047C435.398 122.061 435.403 122.075 435.412 122.086L435.852 122.339L435.131 123.586L434.691 123.333C434.679 123.327 434.665 123.323 434.651 123.323C434.637 123.323 434.624 123.327 434.612 123.333L434.453 123.427C434.44 123.433 434.43 123.442 434.422 123.453C434.414 123.465 434.41 123.478 434.41 123.492V123.982ZM433.329 123.622H434.049V123.485C434.05 123.405 434.073 123.326 434.115 123.258C434.157 123.189 434.216 123.133 434.287 123.096C434.33 123.076 434.371 123.052 434.41 123.024C434.48 122.983 434.56 122.962 434.641 122.962C434.722 122.962 434.801 122.983 434.871 123.024L435.001 123.103L435.361 122.476L435.232 122.396C435.162 122.357 435.105 122.299 435.067 122.229C435.028 122.159 435.011 122.08 435.015 122V121.856C435.011 121.775 435.029 121.695 435.067 121.623C435.105 121.552 435.162 121.493 435.232 121.452L435.361 121.38L435.001 120.753L434.871 120.832C434.802 120.873 434.724 120.894 434.644 120.894C434.564 120.894 434.486 120.873 434.417 120.832L434.287 120.76C434.216 120.722 434.157 120.666 434.115 120.598C434.073 120.529 434.05 120.451 434.049 120.371V120.219H433.329V120.371C433.327 120.451 433.305 120.529 433.263 120.598C433.221 120.666 433.162 120.722 433.091 120.76C433.048 120.78 433.006 120.804 432.968 120.832C432.898 120.873 432.818 120.894 432.737 120.894C432.656 120.894 432.577 120.873 432.507 120.832L432.377 120.753L432.017 121.38L432.146 121.452C432.216 121.493 432.273 121.552 432.311 121.623C432.349 121.695 432.367 121.775 432.363 121.856V122C432.367 122.081 432.349 122.161 432.311 122.232C432.273 122.303 432.216 122.363 432.146 122.404L432.017 122.476L432.377 123.103L432.507 123.024C432.577 122.983 432.656 122.962 432.737 122.962C432.818 122.962 432.898 122.983 432.968 123.024C433.006 123.052 433.048 123.076 433.091 123.096C433.162 123.133 433.221 123.189 433.263 123.258C433.305 123.326 433.327 123.405 433.329 123.485V123.622ZM433.689 122.966C433.478 122.966 433.272 122.903 433.096 122.786C432.921 122.669 432.784 122.502 432.703 122.307C432.623 122.112 432.601 121.898 432.643 121.691C432.684 121.484 432.785 121.294 432.935 121.145C433.084 120.995 433.274 120.894 433.481 120.853C433.688 120.811 433.902 120.833 434.097 120.913C434.292 120.994 434.459 121.131 434.576 121.306C434.693 121.482 434.756 121.688 434.756 121.899C434.754 122.181 434.641 122.452 434.441 122.651C434.242 122.851 433.971 122.964 433.689 122.966ZM433.689 121.193C433.546 121.193 433.407 121.235 433.289 121.314C433.17 121.393 433.078 121.506 433.023 121.638C432.968 121.769 432.954 121.914 432.982 122.054C433.01 122.194 433.078 122.322 433.179 122.423C433.28 122.524 433.409 122.593 433.548 122.62C433.688 122.648 433.833 122.634 433.965 122.579C434.097 122.525 434.209 122.432 434.288 122.314C434.368 122.195 434.41 122.056 434.41 121.913C434.41 121.722 434.334 121.539 434.199 121.404C434.064 121.268 433.88 121.193 433.689 121.193Z" fill="white"/>
<path d="M386.89 114.438L386.782 114.553L386.717 114.618C386.576 114.474 386.408 114.36 386.222 114.282C386.037 114.204 385.837 114.164 385.636 114.164C385.434 114.164 385.235 114.204 385.049 114.282C384.864 114.36 384.696 114.474 384.555 114.618L384.497 114.553L384.389 114.445C384.431 114.401 384.477 114.36 384.526 114.323C384.625 114.24 384.734 114.169 384.85 114.114C384.988 114.047 385.133 113.999 385.283 113.969H385.499H385.831C385.966 113.986 386.099 114.017 386.227 114.063C386.319 114.099 386.408 114.142 386.494 114.193C386.586 114.242 386.672 114.3 386.753 114.366L386.869 114.474L386.89 114.438Z" fill="white"/>
<path d="M384.922 114.964L384.749 114.791C384.866 114.673 385.006 114.58 385.159 114.516C385.313 114.453 385.477 114.42 385.643 114.42C385.809 114.42 385.974 114.453 386.127 114.516C386.281 114.58 386.42 114.673 386.537 114.791L386.364 114.971C386.172 114.781 385.913 114.674 385.643 114.674C385.373 114.674 385.114 114.781 384.922 114.971V114.964Z" fill="white"/>
<path d="M386.22 115.137L386.047 115.317C386 115.269 385.944 115.231 385.882 115.205C385.82 115.179 385.753 115.166 385.686 115.166C385.619 115.166 385.553 115.179 385.491 115.205C385.429 115.231 385.373 115.269 385.326 115.317L385.153 115.137C385.296 114.998 385.487 114.92 385.686 114.92C385.886 114.92 386.077 114.998 386.22 115.137Z" fill="white"/>
<path d="M385.802 115.476C385.802 115.507 385.792 115.538 385.775 115.564C385.758 115.59 385.733 115.61 385.704 115.622C385.675 115.634 385.643 115.638 385.612 115.631C385.581 115.625 385.553 115.61 385.531 115.588C385.509 115.566 385.494 115.538 385.488 115.507C385.481 115.476 385.485 115.444 385.497 115.415C385.509 115.386 385.529 115.361 385.555 115.344C385.581 115.327 385.612 115.317 385.643 115.317C385.664 115.316 385.685 115.32 385.705 115.327C385.725 115.335 385.743 115.347 385.758 115.361C385.772 115.376 385.784 115.394 385.792 115.414C385.799 115.434 385.803 115.455 385.802 115.476Z" fill="white"/>
<path d="M376.048 114.777C376.048 114.656 376.096 114.541 376.181 114.456C376.267 114.37 376.382 114.323 376.502 114.323C376.624 114.323 376.74 114.37 376.826 114.455C376.913 114.54 376.962 114.656 376.964 114.777C376.964 114.899 376.915 115.016 376.829 115.103C376.742 115.19 376.625 115.238 376.502 115.238C376.381 115.236 376.266 115.187 376.181 115.1C376.096 115.014 376.048 114.898 376.048 114.777Z" fill="white"/>
<path d="M377.49 114.777C377.49 114.656 377.538 114.541 377.623 114.456C377.708 114.37 377.824 114.323 377.944 114.323C378.065 114.323 378.182 114.37 378.268 114.455C378.354 114.54 378.404 114.656 378.406 114.777C378.406 114.899 378.357 115.016 378.27 115.103C378.184 115.19 378.067 115.238 377.944 115.238C377.823 115.236 377.708 115.187 377.623 115.1C377.538 115.014 377.49 114.898 377.49 114.777Z" fill="white"/>
<path d="M378.932 114.777C378.946 114.665 379 114.563 379.084 114.488C379.169 114.414 379.277 114.373 379.39 114.373C379.502 114.373 379.61 114.414 379.695 114.488C379.779 114.563 379.833 114.665 379.847 114.777C379.855 114.842 379.85 114.908 379.83 114.97C379.811 115.033 379.779 115.09 379.736 115.139C379.692 115.189 379.639 115.228 379.579 115.255C379.52 115.282 379.455 115.296 379.39 115.296C379.324 115.296 379.259 115.282 379.2 115.255C379.14 115.228 379.087 115.189 379.044 115.139C379 115.09 378.968 115.033 378.949 114.97C378.929 114.908 378.924 114.842 378.932 114.777Z" fill="white"/>
<path d="M380.374 114.777C380.374 114.685 380.401 114.596 380.451 114.52C380.502 114.444 380.574 114.385 380.658 114.35C380.743 114.316 380.835 114.306 380.925 114.324C381.014 114.342 381.097 114.386 381.161 114.45C381.226 114.515 381.27 114.597 381.287 114.687C381.305 114.776 381.296 114.869 381.261 114.953C381.226 115.038 381.167 115.11 381.091 115.16C381.015 115.211 380.926 115.238 380.835 115.238C380.713 115.238 380.595 115.189 380.509 115.103C380.422 115.016 380.374 114.899 380.374 114.777Z" fill="white"/>
<path d="M381.815 114.777C381.817 114.656 381.867 114.54 381.953 114.455C382.039 114.37 382.156 114.323 382.277 114.323C382.397 114.323 382.513 114.37 382.598 114.456C382.683 114.541 382.731 114.656 382.731 114.777C382.731 114.898 382.683 115.014 382.598 115.1C382.513 115.187 382.398 115.236 382.277 115.238C382.154 115.238 382.037 115.19 381.95 115.103C381.864 115.016 381.815 114.899 381.815 114.777Z" fill="white"/>
<path d="M435.455 115.771H431.735V114.056H435.455V115.771ZM431.916 115.591H435.275V114.236H431.916V115.591Z" fill="white"/>
<path d="M434.439 114.344H432.038V115.483H434.439V114.344Z" fill="white"/>
<path d="M435.794 114.452H435.462V115.375H435.794V114.452Z" fill="white"/>
<path d="M382.039 240.986H381.512V243.401H380.532V242.169H378.795V243.401H377.814V240.986H377.288L379.667 238.535L382.039 240.986Z" fill="#EBEBEB"/>
<path d="M434.907 238.535H429.176V239.357H434.907V238.535Z" fill="#EBEBEB"/>
<path d="M434.907 240.554H429.176V241.376H434.907V240.554Z" fill="#EBEBEB"/>
<path d="M434.907 242.579H429.176V243.401H434.907V242.579Z" fill="#EBEBEB"/>
<path d="M381.931 140.382C381.322 140.762 380.619 140.963 379.901 140.963C379.184 140.963 378.481 140.762 377.872 140.382C377.159 139.941 376.609 139.279 376.306 138.496C376.002 137.714 375.962 136.854 376.192 136.048C376.421 135.241 376.908 134.53 377.577 134.025C378.246 133.519 379.063 133.246 379.901 133.246C380.74 133.246 381.556 133.519 382.226 134.025C382.895 134.53 383.382 135.241 383.611 136.048C383.84 136.854 383.801 137.714 383.497 138.496C383.194 139.279 382.644 139.941 381.931 140.382Z" fill="#DBDBDB"/>
<path d="M381.073 136.662C381.073 136.895 381.004 137.123 380.874 137.316C380.745 137.509 380.561 137.66 380.346 137.749C380.131 137.837 379.894 137.86 379.666 137.814C379.438 137.768 379.228 137.656 379.064 137.491C378.9 137.326 378.789 137.116 378.744 136.887C378.7 136.659 378.724 136.422 378.814 136.208C378.904 135.993 379.056 135.81 379.25 135.682C379.444 135.554 379.672 135.486 379.905 135.487C380.215 135.489 380.512 135.614 380.731 135.834C380.95 136.054 381.073 136.352 381.073 136.662Z" fill="white"/>
<path d="M381.931 139.899V140.382C381.322 140.762 380.619 140.963 379.901 140.963C379.184 140.963 378.481 140.762 377.872 140.382V139.899C377.903 139.382 378.13 138.896 378.507 138.54C378.885 138.185 379.383 137.987 379.901 137.987C380.42 137.987 380.918 138.185 381.295 138.54C381.673 138.896 381.9 139.382 381.931 139.899Z" fill="white"/>
<path d="M413.101 133.469H388.591V135.487H413.101V133.469Z" fill="#EBEBEB"/>
<path d="M409.987 136.835H388.591V138.176H409.987V136.835Z" fill="#EBEBEB"/>
<path d="M423.964 139.416H388.591V140.757H423.964V139.416Z" fill="#EBEBEB"/>
<path d="M371.543 192.537H440.645V144.152H371.543V192.537Z" fill="#EBEBEB"/>
<path d="M379.617 157.906C379.617 159.038 379.952 160.145 380.581 161.086C381.21 162.027 382.104 162.761 383.15 163.194C384.196 163.628 385.347 163.741 386.457 163.52C387.567 163.299 388.587 162.754 389.388 161.954C390.188 161.153 390.733 160.133 390.954 159.023C391.175 157.913 391.062 156.762 390.628 155.716C390.195 154.67 389.462 153.776 388.52 153.147C387.579 152.518 386.472 152.183 385.34 152.183C383.822 152.183 382.367 152.786 381.293 153.859C380.22 154.932 379.617 156.388 379.617 157.906Z" fill="#DBDBDB"/>
<path d="M402.223 182.113H440.645L421.434 156.068L402.223 182.113Z" fill="#C7C7C7"/>
<path d="M387.157 182.135H418.882L403.016 165.18L387.157 182.135Z" fill="#DBDBDB"/>
<path d="M440.645 182.113H371.543V192.537H440.645V182.113Z" fill="#DBDBDB"/>
<path d="M381.931 218.048C381.322 218.428 380.619 218.629 379.901 218.629C379.184 218.629 378.481 218.428 377.872 218.048C377.159 217.607 376.609 216.945 376.306 216.163C376.002 215.381 375.962 214.521 376.192 213.714C376.421 212.907 376.908 212.197 377.577 211.691C378.246 211.186 379.063 210.912 379.901 210.912C380.74 210.912 381.556 211.186 382.226 211.691C382.895 212.197 383.382 212.907 383.611 213.714C383.84 214.521 383.801 215.381 383.497 216.163C383.194 216.945 382.644 217.607 381.931 218.048Z" fill="#DBDBDB"/>
<path d="M379.905 215.504C380.554 215.504 381.08 214.978 381.08 214.329C381.08 213.68 380.554 213.154 379.905 213.154C379.256 213.154 378.73 213.68 378.73 214.329C378.73 214.978 379.256 215.504 379.905 215.504Z" fill="white"/>
<path d="M381.931 217.565V218.048C381.322 218.428 380.619 218.629 379.901 218.629C379.184 218.629 378.481 218.428 377.872 218.048V217.565C377.903 217.048 378.13 216.562 378.507 216.207C378.885 215.851 379.383 215.654 379.901 215.654C380.42 215.654 380.918 215.851 381.295 216.207C381.673 216.562 381.9 217.048 381.931 217.565Z" fill="white"/>
<path d="M420.108 211.135H388.591V213.154H420.108V211.135Z" fill="#EBEBEB"/>
<path d="M428.83 214.502H388.591V215.843H428.83V214.502Z" fill="#EBEBEB"/>
<path d="M402.295 217.082H388.591V218.423H402.295V217.082Z" fill="#EBEBEB"/>
<path d="M440.631 221.818H371.543V233.634H440.631V221.818Z" fill="#EBEBEB"/>
<path d="M390.725 233.641H379.955C380.351 232.529 381.082 231.568 382.046 230.888C383.01 230.208 384.161 229.843 385.34 229.843C386.52 229.843 387.671 230.208 388.635 230.888C389.599 231.568 390.329 232.529 390.725 233.641Z" fill="#DBDBDB"/>
<path d="M376.185 198.203C376.078 197.764 376.104 197.303 376.259 196.878C376.414 196.454 376.692 196.085 377.056 195.818C377.421 195.551 377.857 195.398 378.308 195.379C378.76 195.36 379.207 195.475 379.593 195.71C379.979 195.945 380.287 196.289 380.478 196.699C380.668 197.109 380.733 197.566 380.664 198.012C380.594 198.459 380.394 198.875 380.089 199.208C379.783 199.541 379.385 199.776 378.946 199.883C378.655 199.955 378.352 199.968 378.055 199.923C377.758 199.877 377.473 199.773 377.216 199.617C376.96 199.461 376.736 199.256 376.56 199.013C376.383 198.77 376.255 198.495 376.185 198.203Z" fill="#EBEBEB"/>
<path fill-rule="evenodd" clip-rule="evenodd" d="M378.096 198.571C378.031 198.534 377.98 198.477 377.901 198.484C377.822 198.491 377.901 198.484 377.901 198.448V197.532C377.896 197.525 377.893 197.516 377.893 197.507C377.893 197.498 377.896 197.489 377.901 197.482C378.132 197.367 378.233 197.136 378.377 196.934C378.453 196.832 378.507 196.715 378.536 196.591C378.564 196.467 378.567 196.338 378.543 196.213C378.543 196.148 378.543 196.12 378.629 196.105C378.659 196.093 378.693 196.091 378.724 196.1C378.756 196.109 378.783 196.129 378.802 196.156C378.87 196.281 378.914 196.418 378.932 196.559C378.946 196.672 378.946 196.786 378.932 196.898C378.932 196.985 378.896 197.064 378.881 197.15C378.867 197.237 378.925 197.15 378.946 197.15H379.718C379.826 197.15 379.883 197.15 379.898 197.251C379.905 197.296 379.898 197.342 379.877 197.382C379.857 197.423 379.823 197.455 379.782 197.475C379.782 197.475 379.732 197.475 379.732 197.511C379.732 197.547 379.732 197.511 379.782 197.547C379.833 197.583 379.855 197.742 379.782 197.821C379.71 197.9 379.71 197.821 379.71 197.864C379.71 197.907 379.754 197.864 379.775 197.922C379.792 197.943 379.803 197.968 379.808 197.994C379.814 198.02 379.813 198.047 379.806 198.073C379.799 198.099 379.786 198.123 379.768 198.143C379.75 198.163 379.728 198.178 379.703 198.188H379.653C379.653 198.188 379.653 198.188 379.653 198.224C379.679 198.237 379.701 198.256 379.716 198.28C379.731 198.305 379.74 198.333 379.74 198.361C379.74 198.39 379.731 198.418 379.716 198.443C379.701 198.467 379.679 198.486 379.653 198.498C379.608 198.513 379.56 198.513 379.516 198.498H378.305C378.3 198.52 378.29 198.54 378.275 198.557C378.26 198.573 378.241 198.586 378.22 198.593C378.199 198.6 378.177 198.602 378.155 198.598C378.133 198.594 378.113 198.585 378.096 198.571Z" fill="white"/>
<path fill-rule="evenodd" clip-rule="evenodd" d="M376.942 198.037C376.942 197.842 376.942 197.648 376.942 197.453C376.942 197.417 376.942 197.395 377 197.395C377.231 197.395 377.469 197.395 377.721 197.395C377.764 197.395 377.771 197.395 377.771 197.453V198.621C377.771 198.671 377.771 198.686 377.706 198.686H377.022C376.964 198.686 376.957 198.686 376.957 198.614C376.949 198.455 376.942 198.232 376.942 198.037Z" fill="white"/>
<path d="M380.986 198.203C380.88 197.764 380.906 197.303 381.061 196.879C381.216 196.455 381.493 196.086 381.858 195.82C382.222 195.553 382.657 195.4 383.108 195.381C383.56 195.361 384.006 195.476 384.392 195.71C384.779 195.944 385.087 196.288 385.278 196.697C385.469 197.106 385.534 197.563 385.466 198.009C385.398 198.456 385.199 198.872 384.894 199.205C384.589 199.539 384.193 199.774 383.754 199.882C383.462 199.956 383.159 199.97 382.861 199.925C382.563 199.88 382.277 199.776 382.02 199.62C381.763 199.464 381.539 199.258 381.361 199.015C381.184 198.772 381.056 198.496 380.986 198.203Z" fill="#B0908C"/>
<path d="M384.374 197.95C384.374 198.26 384.251 198.557 384.032 198.776C383.813 198.995 383.516 199.118 383.207 199.118C382.897 199.118 382.6 198.995 382.381 198.776C382.162 198.557 382.039 198.26 382.039 197.95C381.964 197.841 381.914 197.718 381.891 197.587C381.869 197.457 381.874 197.324 381.908 197.196C381.941 197.068 382.002 196.949 382.085 196.847C382.169 196.744 382.274 196.661 382.392 196.602C383.041 196.408 383.207 197.54 383.207 197.54C383.207 197.54 383.372 196.408 384.028 196.602C384.483 196.739 384.663 197.367 384.374 197.95Z" fill="white"/>
<path d="M421.434 197.367H388.974V198.686H421.434V197.367Z" fill="#EBEBEB"/>
<path d="M371.543 205.246L380.179 205.116L388.815 205.044L406.087 204.979L423.359 205.044L431.995 205.116L440.631 205.246L431.995 205.383L423.359 205.455L406.087 205.52L388.815 205.455L380.179 205.383L371.543 205.246Z" fill="#EBEBEB"/>
<path d="M267.759 267.695C267.219 266.166 239.314 230.844 237.44 230.209C237.231 230.123 225.271 239.018 225.271 239.018C224.781 239.696 201.598 235.299 201.598 235.299L201.951 263.146L243.971 261.373C243.971 261.373 249.738 264.595 254.971 267.204C257.205 268.405 259.511 269.464 261.877 270.376C264.004 270.859 268.307 269.208 267.759 267.695Z" fill="#EB9481"/>
<path d="M261.892 270.362C259.528 269.45 257.224 268.391 254.993 267.19C249.745 264.58 243.992 261.358 243.992 261.358L234.621 261.755L219.483 238.42C222.712 238.925 225.113 239.213 225.25 238.997C225.25 238.997 237.202 230.108 237.418 230.195C239.292 230.844 267.197 266.166 267.738 267.68C268.279 269.194 264.004 270.866 261.892 270.362Z" fill="white"/>
<path d="M267.997 267.731C267.428 266.174 239.401 230.873 237.476 230.202C236.755 229.943 230.887 233.735 225.257 239.004L243.351 261.733C243.351 261.733 259.787 270.009 261.971 270.52C264.155 271.032 268.574 269.295 267.997 267.731Z" fill="#B0908C"/>
<path d="M266.195 268.379C261.351 262.612 242.363 238.716 238.017 232.617C238.017 232.538 237.98 232.567 238.017 232.617C242.94 238.262 261.74 262.274 266.253 268.329C266.39 268.379 266.296 268.473 266.195 268.379Z" fill="#263238"/>
<path d="M258.914 269.259C258.373 268.614 257.972 267.864 257.736 267.057C257.5 266.249 257.435 265.401 257.545 264.566C257.729 263.065 258.486 261.694 259.657 260.738C259.693 260.738 259.743 260.774 259.707 260.81C258.695 261.941 258.077 263.37 257.947 264.882C257.817 266.394 258.182 267.907 258.987 269.194C259.023 269.245 258.95 269.302 258.914 269.259Z" fill="#263238"/>
<path d="M245.434 263.124C243.517 260.781 242.176 257.357 242.947 254.359C242.947 254.243 243.142 254.286 243.156 254.359C243.717 257.291 244.589 260.154 245.759 262.901C245.788 262.944 245.8 262.997 245.79 263.048C245.781 263.1 245.751 263.145 245.708 263.175C245.665 263.204 245.612 263.216 245.561 263.206C245.509 263.197 245.464 263.167 245.434 263.124Z" fill="#263238"/>
<path d="M247.597 264.386C245.687 262.043 244.338 258.619 245.11 255.62C245.11 255.505 245.304 255.548 245.326 255.62C245.881 258.553 246.751 261.417 247.921 264.162C247.951 264.205 247.962 264.258 247.953 264.31C247.943 264.361 247.914 264.407 247.871 264.436C247.849 264.451 247.825 264.461 247.8 264.467C247.775 264.472 247.749 264.472 247.723 264.468C247.672 264.458 247.626 264.429 247.597 264.386Z" fill="#263238"/>
<path d="M249.759 265.647C247.849 263.305 246.508 259.88 247.272 256.882C247.272 256.766 247.467 256.81 247.489 256.882C248.048 259.813 248.918 262.677 250.084 265.424C250.113 265.467 250.125 265.52 250.115 265.571C250.106 265.623 250.076 265.668 250.033 265.698C249.99 265.727 249.937 265.739 249.886 265.729C249.834 265.72 249.789 265.69 249.759 265.647Z" fill="#263238"/>
<path d="M251.929 266.938C250.012 264.595 248.671 261.171 249.435 258.172C249.435 258.057 249.63 258.1 249.651 258.172C250.21 261.104 251.082 263.968 252.254 266.714C252.283 266.757 252.295 266.81 252.285 266.862C252.276 266.913 252.246 266.959 252.203 266.988C252.182 267.003 252.158 267.013 252.133 267.019C252.107 267.024 252.081 267.024 252.056 267.02C252.004 267.01 251.959 266.981 251.929 266.938Z" fill="#263238"/>
<path d="M233.59 238.557C231.485 235.89 235.623 232.624 237.728 235.292C239.833 237.959 235.695 241.224 233.59 238.557Z" fill="#263238"/>
<path d="M244.468 267.752C245.103 265.164 244.591 262.396 244.418 259.779C244.409 259.722 244.387 259.668 244.353 259.621C244.32 259.574 244.275 259.536 244.224 259.509C244.173 259.482 244.116 259.468 244.058 259.468C244.001 259.467 243.943 259.48 243.892 259.506C243.883 259.496 243.874 259.489 243.862 259.484C243.851 259.479 243.839 259.476 243.827 259.476C243.814 259.476 243.802 259.479 243.791 259.484C243.78 259.489 243.77 259.496 243.762 259.506C241.736 261.406 240.244 263.804 239.437 266.462C238.997 268.019 239.22 270.304 241.167 270.715C243.113 271.126 244.101 269.266 244.468 267.752ZM242.594 269.418C239.826 271.234 239.963 267.334 240.338 266.202C240.587 265.46 240.891 264.737 241.246 264.04C241.993 262.625 242.811 261.249 243.697 259.916C243.697 261.207 243.82 262.483 243.87 263.766C243.935 265.33 244.115 268.423 242.594 269.418Z" fill="#263238"/>
<path d="M235.558 252.275C234.16 253.717 235.227 255.721 236.459 256.773C238.602 258.55 241.176 259.728 243.92 260.19C243.985 260.19 244.014 260.154 244.014 260.104C244.072 260.098 244.128 260.078 244.177 260.046C244.226 260.014 244.266 259.971 244.295 259.92C244.324 259.869 244.34 259.813 244.343 259.754C244.345 259.696 244.334 259.638 244.31 259.585C243.012 257.307 241.909 254.719 239.984 252.91C238.831 251.85 236.899 250.942 235.558 252.275ZM241.635 256.536C242.306 257.638 242.911 258.77 243.61 259.852C242.169 259.181 240.684 258.576 239.285 257.761C238.611 257.377 237.963 256.948 237.346 256.478C236.409 255.757 234.153 252.556 237.461 252.549C239.307 252.52 240.864 255.224 241.65 256.536H241.635Z" fill="#263238"/>
<path d="M200.236 228.66L181.284 227.167C181.284 227.167 153.891 219.238 138.09 223.383C119.953 228.148 117.394 249.334 135.833 257.826C154.1 266.217 234.383 263.132 234.383 263.132L217.169 237.634C217.169 237.634 190.727 231.428 167.58 232.689L200.351 236.459L200.236 228.66Z" fill="#37474F"/>
<path d="M200.041 234.052C197.222 233.59 194.368 233.331 191.528 233.093C188.687 232.855 185.761 232.617 182.877 232.437C177.14 232.062 171.387 231.975 165.641 232.177C165.101 232.177 164.567 232.228 164.026 232.264C163.91 232.231 163.792 232.204 163.673 232.185C163.399 232.12 163.118 232.055 162.844 232.012C162.318 231.925 161.799 231.86 161.273 231.788C160.184 231.644 159.11 231.55 158.007 231.37C157.942 231.37 157.914 231.464 158.007 231.471C159.103 231.694 160.17 231.983 161.273 232.192L162.217 232.372C160.112 232.523 158.014 232.732 155.917 232.97C155.852 232.97 155.852 233.078 155.917 233.071C158.8 232.841 161.684 232.761 164.524 232.754C167.364 232.747 170.212 232.754 173.059 232.848C178.826 233.057 184.593 233.453 190.302 233.936C193.517 234.203 196.747 234.535 199.976 234.599C200.293 234.614 200.358 234.102 200.041 234.052Z" fill="#263238"/>
<path d="M226.187 262.548C225.127 260.926 224.212 259.188 223.239 257.501L220.298 252.455C218.337 249.103 211.316 237.843 210.631 237.058C210.587 237.007 210.501 237.058 210.523 237.13C210.861 238.002 215.251 245.463 216.29 247.128C218.308 250.451 220.427 253.71 222.511 256.99C223.109 257.927 223.722 258.857 224.327 259.787C224.933 260.717 225.574 261.632 226.129 262.591C226.108 262.663 226.187 262.612 226.187 262.548Z" fill="#263238"/>
<path d="M131.876 272.827C132.344 271.277 158.548 234.679 160.386 233.936C160.595 233.843 172.965 242.154 172.965 242.154C173.484 242.81 196.43 237.324 196.43 237.324L197.395 265.157L155.34 265.373C155.34 265.373 149.753 268.862 144.628 271.724C142.453 273.027 140.199 274.195 137.881 275.22C135.776 275.819 131.4 274.37 131.876 272.827Z" fill="#EB9481"/>
<path d="M137.866 275.22C140.184 274.197 142.435 273.03 144.606 271.724C149.725 268.841 155.318 265.373 155.318 265.373L164.69 265.33L178.711 241.304C175.51 241.96 173.124 242.363 172.944 242.154C172.944 242.154 160.574 233.835 160.365 233.936C158.526 234.657 132.323 271.277 131.854 272.827C131.386 274.377 135.776 275.819 137.866 275.22Z" fill="white"/>
<path d="M131.631 272.885C132.121 271.299 158.454 234.679 160.336 233.958C161.057 233.662 167.09 237.173 172.965 242.161L155.96 265.734C155.96 265.734 139.942 274.773 137.78 275.386C135.617 275.999 131.141 274.471 131.631 272.885Z" fill="#B0908C"/>
<path d="M133.476 273.426C138.039 267.399 155.873 242.673 159.932 236.366C159.932 236.315 159.932 236.294 159.889 236.366C155.239 242.234 137.599 267.111 133.375 273.375C133.281 273.469 133.375 273.541 133.476 273.426Z" fill="#263238"/>
<path d="M140.793 273.973C141.301 273.303 141.664 272.535 141.86 271.717C142.056 270.9 142.081 270.05 141.932 269.223C141.689 267.738 140.884 266.403 139.683 265.496C139.683 265.496 139.596 265.539 139.625 265.575C140.691 266.656 141.376 268.054 141.579 269.558C141.782 271.062 141.491 272.591 140.75 273.916C140.749 273.922 140.749 273.929 140.751 273.936C140.752 273.942 140.755 273.948 140.759 273.954C140.763 273.959 140.768 273.964 140.774 273.967C140.78 273.97 140.786 273.973 140.793 273.973Z" fill="#263238"/>
<path d="M153.963 267.204C155.765 264.775 156.948 261.308 156.032 258.338C156.032 258.222 155.837 258.273 155.823 258.374C155.413 261.326 154.688 264.226 153.66 267.024C153.653 267.062 153.658 267.101 153.674 267.136C153.689 267.171 153.716 267.201 153.749 267.22C153.782 267.24 153.82 267.249 153.858 267.246C153.897 267.243 153.933 267.229 153.963 267.204Z" fill="#263238"/>
<path d="M151.858 268.567C153.66 266.137 154.843 262.67 153.934 259.7C153.934 259.585 153.732 259.635 153.718 259.736C153.308 262.688 152.583 265.588 151.555 268.387C151.548 268.424 151.553 268.464 151.569 268.499C151.584 268.534 151.611 268.563 151.644 268.583C151.677 268.602 151.715 268.611 151.753 268.609C151.792 268.606 151.828 268.591 151.858 268.567Z" fill="#263238"/>
<path d="M149.775 269.929C151.57 267.5 152.752 264.033 151.844 261.063C151.808 260.947 151.649 260.998 151.635 261.063C151.221 264.014 150.496 266.914 149.472 269.713C149.45 269.753 149.444 269.8 149.454 269.845C149.464 269.889 149.491 269.929 149.528 269.955C149.565 269.982 149.611 269.994 149.656 269.989C149.702 269.984 149.744 269.963 149.775 269.929Z" fill="#263238"/>
<path d="M147.656 271.299C149.458 268.862 150.64 265.395 149.725 262.425C149.725 262.31 149.53 262.36 149.515 262.461C149.105 265.413 148.38 268.313 147.353 271.112C147.344 271.15 147.347 271.19 147.362 271.227C147.377 271.263 147.403 271.294 147.436 271.315C147.47 271.336 147.509 271.345 147.549 271.342C147.588 271.34 147.625 271.324 147.656 271.299Z" fill="#263238"/>
<path d="M164.632 242.111C166.607 239.35 162.318 236.279 160.343 239.04C158.368 241.801 162.65 244.872 164.632 242.111Z" fill="#263238"/>
<path d="M158.606 274.572C160.53 274.074 160.646 271.782 160.127 270.246C159.19 267.625 157.579 265.298 155.455 263.499C155.405 263.456 155.362 263.499 155.333 263.499C155.279 263.476 155.221 263.466 155.163 263.47C155.104 263.474 155.048 263.491 154.997 263.52C154.947 263.55 154.904 263.59 154.872 263.639C154.84 263.688 154.82 263.744 154.814 263.802C154.77 266.419 154.388 269.208 155.145 271.767C155.585 273.281 156.782 275.047 158.606 274.572ZM155.542 267.803C155.542 266.52 155.585 265.236 155.542 263.953C156.49 265.24 157.371 266.576 158.18 267.954C158.565 268.625 158.905 269.321 159.197 270.037C159.622 271.155 159.917 275.04 157.092 273.368C155.542 272.438 155.542 269.338 155.542 267.803Z" fill="#263238"/>
<path d="M158.937 256.745C157.07 258.648 156.09 261.286 154.908 263.622C154.886 263.676 154.877 263.734 154.882 263.792C154.887 263.85 154.906 263.906 154.937 263.955C154.968 264.004 155.01 264.046 155.06 264.075C155.11 264.105 155.167 264.123 155.225 264.126C155.223 264.139 155.225 264.151 155.229 264.163C155.234 264.174 155.241 264.185 155.25 264.193C155.259 264.202 155.27 264.208 155.282 264.211C155.294 264.215 155.306 264.215 155.318 264.213C158.038 263.618 160.553 262.321 162.614 260.45C163.789 259.34 164.776 257.264 163.298 255.916C161.821 254.568 160.026 255.634 158.937 256.745ZM161.403 256.269C164.704 256.125 162.599 259.405 161.698 260.19C161.105 260.688 160.479 261.146 159.824 261.56C158.46 262.394 157.055 263.159 155.614 263.852C156.263 262.742 156.818 261.582 157.431 260.45C158.159 259.102 159.579 256.348 161.403 256.269Z" fill="#263238"/>
<path d="M197.475 228.732L216.34 228.234C216.34 228.234 235.803 218.221 251.821 221.624C270.16 225.517 273.101 248.347 259.693 256.802C242.709 267.514 165.858 267.565 165.858 267.565L181.717 238.99C181.717 238.99 207.113 232.934 230.296 233.1L197.734 238.42L197.475 228.732Z" fill="#37474F"/>
<path d="M180.65 240.857C180.668 240.811 180.681 240.762 180.686 240.713V240.59L180.751 240.316C180.801 240.129 180.866 239.948 180.931 239.761C180.996 239.574 181.075 239.401 181.147 239.22C181.235 239.045 181.336 238.876 181.45 238.716C181.45 238.716 181.45 238.716 181.493 238.68H181.529H181.572C184.369 238.081 203.379 234.845 206.212 234.448C209.045 234.052 211.921 233.727 214.79 233.389C220.502 232.74 226.242 232.379 231.99 232.307C232.531 232.307 233.071 232.307 233.612 232.307C233.725 232.268 233.841 232.237 233.958 232.214C234.232 232.141 234.506 232.062 234.78 232.004C235.299 231.889 235.818 231.795 236.337 231.702C237.418 231.507 238.499 231.363 239.581 231.132C239.646 231.132 239.674 231.219 239.581 231.233C238.499 231.507 237.418 231.846 236.358 232.113L235.421 232.336C237.533 232.394 239.638 232.502 241.751 232.639C241.764 232.639 241.777 232.644 241.786 232.654C241.796 232.663 241.801 232.676 241.801 232.689C241.801 232.703 241.796 232.716 241.786 232.725C241.777 232.734 241.764 232.74 241.751 232.74C238.867 232.646 235.984 232.704 233.136 232.826C230.289 232.949 227.456 233.086 224.615 233.331C218.849 233.807 213.154 234.477 207.444 235.227C204.244 235.652 184.86 239.004 181.637 239.228H181.594C181.574 239.304 181.548 239.379 181.515 239.451L181.255 239.977C181.169 240.143 181.082 240.309 180.981 240.475L180.83 240.713L180.751 240.828C180.751 240.864 180.679 240.914 180.671 240.95C180.664 240.986 180.614 240.922 180.65 240.857Z" fill="#263238"/>
<path d="M171.797 265.719C172.785 264.047 173.614 262.274 174.508 260.551L177.204 255.375C179.006 251.936 185.487 240.352 186.136 239.516C186.172 239.465 186.265 239.516 186.244 239.581C185.948 240.475 181.918 248.13 180.989 249.839C179.129 253.256 177.168 256.615 175.222 259.988C174.674 260.954 174.097 261.906 173.542 262.872C172.987 263.838 172.389 264.775 171.877 265.755C171.878 265.764 171.876 265.773 171.873 265.781C171.869 265.789 171.863 265.796 171.856 265.802C171.849 265.807 171.84 265.81 171.832 265.811C171.823 265.812 171.814 265.81 171.806 265.807C171.798 265.803 171.791 265.797 171.785 265.79C171.78 265.783 171.777 265.774 171.776 265.765C171.776 265.756 171.777 265.748 171.781 265.74C171.784 265.731 171.79 265.724 171.797 265.719Z" fill="#263238"/>
<path d="M235.277 152.233L231.305 173.737C231.118 174.371 231.464 174.861 232.077 174.818L242.998 174.097C243.329 174.049 243.64 173.908 243.895 173.692C244.15 173.475 244.339 173.191 244.439 172.872L248.411 151.368C248.599 150.734 248.253 150.251 247.64 150.287L236.726 151.008C236.394 151.055 236.082 151.195 235.826 151.412C235.569 151.629 235.379 151.913 235.277 152.233Z" fill="#37474F"/>
<path d="M236.575 152.139L232.603 173.643C232.415 174.277 232.761 174.767 233.367 174.724L244.288 174.003C244.62 173.956 244.931 173.816 245.186 173.599C245.441 173.382 245.63 173.097 245.73 172.778L249.709 151.274C249.896 150.64 249.55 150.15 248.938 150.193L238.016 150.914C237.686 150.963 237.375 151.104 237.12 151.32C236.865 151.537 236.676 151.821 236.575 152.139Z" fill="#455A64"/>
<path d="M239.631 152.911C239.64 153.095 239.593 153.277 239.498 153.435C239.403 153.592 239.263 153.718 239.096 153.796C238.929 153.874 238.743 153.9 238.561 153.872C238.379 153.844 238.209 153.763 238.073 153.638C237.938 153.514 237.842 153.352 237.799 153.173C237.755 152.994 237.766 152.806 237.829 152.633C237.893 152.46 238.006 152.31 238.155 152.202C238.304 152.093 238.481 152.031 238.665 152.024C238.911 152.014 239.15 152.102 239.331 152.268C239.512 152.434 239.62 152.665 239.631 152.911Z" fill="#263238"/>
<path d="M202.132 186.539C209.045 199.363 223.873 215.698 229.625 215.453C232.358 215.338 237.274 215.72 240.684 212.382C248.13 205.102 253.948 191.629 254.87 184.052C255.195 181.363 241.895 176.296 240.1 178.574C235.89 183.915 231.226 194.188 230.426 194.173C227.47 194.108 215.446 185.17 207.048 178.876C196.855 171.228 199.378 181.428 202.132 186.539Z" fill="#EB9481"/>
<path d="M254.423 170.248C252.751 164.906 251.504 163.76 252.484 158.533C253.126 155.081 251.201 153.192 248.938 156.054C245.24 160.739 245.953 168.085 246.934 170.565L254.423 170.248Z" fill="#EB9481"/>
<path d="M254.366 186.417C254.366 186.417 256.363 178.732 255.144 172.864C254.301 168.806 251.482 160.177 239.768 156.191C236.986 155.246 232.358 155.873 236.337 159.074C239.163 161.345 241.635 161.958 243.041 163.551C243.041 163.551 237.274 165.036 236.409 167.876C235.674 170.337 235.118 172.847 234.744 175.387C235.193 175.562 235.653 175.706 236.121 175.82C236.121 175.82 235.4 178.487 237.562 182.091L254.366 186.417Z" fill="#EB9481"/>
<path d="M253.717 169.116C251.987 167.804 248.267 165.086 244.454 163.918C240.215 162.628 231.709 161.273 230.757 164.409C230.08 166.715 233.28 167.515 233.28 167.515C233.28 167.515 229.676 167.696 229.489 169.909C229.344 171.927 231.86 172.396 231.86 172.396C231.86 172.396 229.698 172.886 229.914 174.854C230.195 177.218 234.729 175.805 237.123 177.954C237.649 178.437 253.717 169.116 253.717 169.116Z" fill="#EB9481"/>
<path d="M243.834 168.626C240.553 167.188 236.913 166.78 233.396 167.458C233.309 167.458 233.28 167.559 233.36 167.552C236.886 167.5 240.406 167.878 243.841 168.676L243.834 168.626Z" fill="#263238"/>
<path d="M242.399 172.864C240.734 172.194 235.818 171.25 231.896 172.316C231.803 172.316 231.781 172.417 231.896 172.41C235.412 172.177 238.943 172.344 242.421 172.908L242.399 172.864Z" fill="#263238"/>
<path d="M255.296 189.545C255.296 189.545 245.802 211.135 239.754 213.903C233.706 216.671 229.972 216.34 227.658 216.116C226.758 215.957 225.904 215.603 225.156 215.078C218.668 210.969 206.659 195.838 201.641 187.238C197.879 180.751 197.929 174.731 203.184 176.389C204.968 177.038 206.632 177.979 208.108 179.172C218.012 186.59 229.424 193.546 229.936 193.243C230.447 192.94 235.414 184.016 235.414 184.016L255.296 189.545Z" fill="#B0908C"/>
<path d="M230.801 197.734C230.733 198.212 230.733 198.698 230.801 199.176C230.871 199.676 231.017 200.162 231.233 200.618C231.304 200.14 231.304 199.654 231.233 199.176C231.163 198.676 231.017 198.19 230.801 197.734Z" fill="white"/>
<path d="M243.192 203.105C243.125 203.583 243.125 204.068 243.192 204.546C243.258 205.028 243.389 205.498 243.582 205.945C243.653 205.467 243.653 204.981 243.582 204.503C243.522 204.02 243.39 203.549 243.192 203.105Z" fill="white"/>
<path d="M221.35 208.317C221.283 208.795 221.283 209.28 221.35 209.758C221.409 210.241 221.541 210.713 221.739 211.157C221.806 210.679 221.806 210.193 221.739 209.715C221.672 209.234 221.541 208.763 221.35 208.317Z" fill="white"/>
<path d="M215.374 187.109C215.252 188.089 215.391 189.083 215.778 189.992C215.845 189.514 215.845 189.029 215.778 188.55C215.711 188.053 215.575 187.568 215.374 187.109Z" fill="white"/>
<path d="M213.413 195.795C213.891 195.862 214.377 195.862 214.855 195.795C215.338 195.736 215.809 195.605 216.253 195.406C215.775 195.339 215.29 195.339 214.812 195.406C214.33 195.473 213.86 195.604 213.413 195.795Z" fill="white"/>
<path d="M238.701 198.311C239.18 198.378 239.665 198.378 240.143 198.311C240.625 198.245 241.095 198.114 241.542 197.922C241.064 197.85 240.578 197.85 240.1 197.922C239.617 197.982 239.146 198.113 238.701 198.311Z" fill="white"/>
<path d="M225.855 205.895C226.334 205.962 226.819 205.962 227.297 205.895C227.78 205.835 228.251 205.704 228.696 205.505C227.715 205.389 226.721 205.531 225.812 205.916L225.855 205.895Z" fill="white"/>
<path d="M250.286 190.864C250.764 190.932 251.249 190.932 251.727 190.864C252.21 190.805 252.682 190.674 253.126 190.475C252.145 190.359 251.152 190.501 250.242 190.886L250.286 190.864Z" fill="white"/>
<path d="M237.771 212.966C238.25 213.033 238.735 213.033 239.213 212.966C239.696 212.907 240.167 212.776 240.612 212.577C240.134 212.505 239.648 212.505 239.17 212.577C238.687 212.637 238.216 212.768 237.771 212.966Z" fill="white"/>
<path d="M200.603 177.103C200.206 177.279 199.786 177.4 199.356 177.463C199.418 177.325 199.495 177.194 199.587 177.074C199.926 177.041 200.267 177.05 200.603 177.103Z" fill="white"/>
<path d="M224.637 192.465C224.252 192.763 223.91 193.112 223.621 193.503C223.322 193.89 223.079 194.317 222.9 194.772C223.669 194.168 224.266 193.372 224.63 192.465H224.637Z" fill="white"/>
<path d="M236.524 204.532C236.138 204.831 235.796 205.183 235.508 205.577C235.211 205.963 234.968 206.387 234.787 206.839C235.173 206.543 235.516 206.193 235.803 205.801C236.102 205.414 236.345 204.987 236.524 204.532Z" fill="white"/>
<path d="M243.279 188.536C242.892 188.832 242.55 189.182 242.262 189.574C241.964 189.961 241.721 190.388 241.542 190.843C241.928 190.544 242.27 190.192 242.558 189.798C242.855 189.412 243.098 188.988 243.279 188.536Z" fill="white"/>
<path d="M217.133 203.026C216.748 203.326 216.406 203.678 216.116 204.071C215.819 204.456 215.577 204.881 215.396 205.332C215.782 205.036 216.124 204.687 216.412 204.294C216.713 203.909 216.956 203.482 217.133 203.026Z" fill="white"/>
<path d="M208.165 182.726C207.779 183.022 207.437 183.371 207.149 183.764C206.847 184.149 206.604 184.577 206.428 185.033C207.198 184.429 207.794 183.634 208.158 182.726H208.165Z" fill="white"/>
<path d="M207.61 192.688C207.312 192.302 206.96 191.959 206.565 191.672C206.181 191.372 205.757 191.129 205.303 190.951C205.596 191.341 205.946 191.683 206.342 191.967C206.727 192.269 207.154 192.511 207.61 192.688Z" fill="white"/>
<path d="M249.615 197.403C249.317 197.018 248.968 196.676 248.577 196.386C248.19 196.087 247.763 195.845 247.308 195.665C247.606 196.05 247.956 196.392 248.347 196.682C248.733 196.981 249.161 197.223 249.615 197.403Z" fill="white"/>
<path d="M236.69 193.517C236.392 193.133 236.043 192.791 235.652 192.501C235.267 192.199 234.839 191.956 234.383 191.78C234.987 192.549 235.782 193.146 236.69 193.51V193.517Z" fill="white"/>
<path d="M222.453 201.49C222.159 201.102 221.809 200.759 221.415 200.474C221.032 200.169 220.604 199.926 220.146 199.753C220.447 200.137 220.798 200.479 221.191 200.769C221.577 201.066 222.001 201.309 222.453 201.49Z" fill="white"/>
<path d="M231.017 213.377C230.721 212.991 230.371 212.649 229.979 212.361C229.592 212.062 229.165 211.819 228.71 211.64C229.009 212.026 229.361 212.369 229.755 212.656C230.141 212.954 230.565 213.196 231.017 213.377Z" fill="white"/>
<path d="M225.156 215.078C218.668 210.969 206.659 195.838 201.641 187.238C197.879 180.751 197.929 174.731 203.184 176.389C206.104 181.471 218.849 203.703 225.156 215.078Z" fill="#263238"/>
<path d="M252.859 193.517C252.138 193.164 245.319 190.929 243.827 190.475C242.335 190.021 236.265 188.118 234.686 187.779C234.679 187.777 234.672 187.776 234.665 187.776C234.658 187.776 234.652 187.778 234.645 187.781C234.639 187.784 234.633 187.788 234.628 187.794C234.624 187.799 234.62 187.805 234.618 187.812C234.615 187.818 234.614 187.825 234.615 187.832C234.615 187.839 234.617 187.846 234.62 187.853C234.623 187.859 234.627 187.865 234.632 187.869C234.637 187.874 234.643 187.878 234.65 187.88C236.135 188.507 242.255 190.454 243.769 190.944C245.283 191.434 252.066 193.496 252.838 193.618C252.917 193.625 252.924 193.539 252.859 193.517Z" fill="#263238"/>
<path d="M218.293 229.33C217.609 230.051 173.513 231.493 173.29 231.219C172.677 230.498 178.105 202.427 182.618 191.686C188.385 177.918 191.701 176.649 193.676 175.827C196.192 174.76 200.798 174.962 201.915 175.416C203.184 175.921 208.72 182.012 210.407 186.95C213.795 196.884 218.892 228.674 218.293 229.33Z" fill="#B0908C"/>
<path d="M198.873 183.706C198.757 184.687 198.899 185.681 199.284 186.59C199.352 186.111 199.352 185.626 199.284 185.148C199.222 184.649 199.083 184.163 198.873 183.706Z" fill="white"/>
<path d="M199.248 204.756C199.126 205.736 199.265 206.73 199.652 207.639C199.719 207.161 199.719 206.676 199.652 206.197C199.585 205.7 199.449 205.215 199.248 204.756Z" fill="white"/>
<path d="M174.176 226.771C174.062 227.751 174.204 228.745 174.587 229.654C174.655 229.176 174.655 228.691 174.587 228.213C174.524 227.714 174.385 227.228 174.176 226.771Z" fill="white"/>
<path d="M192.241 227.643C192.173 228.121 192.173 228.607 192.241 229.085C192.306 229.57 192.44 230.043 192.638 230.491C192.705 230.012 192.705 229.527 192.638 229.049C192.577 228.563 192.443 228.089 192.241 227.643Z" fill="white"/>
<path d="M207.113 217.919C207.046 218.397 207.046 218.882 207.113 219.36C207.172 219.843 207.303 220.315 207.502 220.759C207.57 220.281 207.57 219.795 207.502 219.317C207.438 218.835 207.307 218.364 207.113 217.919Z" fill="white"/>
<path d="M185.905 196.293C185.838 196.771 185.838 197.256 185.905 197.734C185.964 198.217 186.095 198.689 186.294 199.133C186.366 198.655 186.366 198.169 186.294 197.691C186.234 197.208 186.103 196.737 185.905 196.293Z" fill="white"/>
<path d="M183.771 214.833C183.704 215.312 183.704 215.797 183.771 216.275C183.837 216.757 183.968 217.227 184.16 217.674C184.284 216.694 184.144 215.698 183.757 214.79L183.771 214.833Z" fill="white"/>
<path d="M210.263 200.142C210.196 200.62 210.196 201.105 210.263 201.584C210.329 202.065 210.46 202.536 210.652 202.982C210.724 202.504 210.724 202.018 210.652 201.54C210.592 201.058 210.461 200.586 210.263 200.142Z" fill="white"/>
<path d="M194.606 192.609C195.084 192.677 195.569 192.677 196.047 192.609C196.533 192.55 197.007 192.418 197.453 192.22C196.473 192.094 195.476 192.236 194.57 192.631L194.606 192.609Z" fill="white"/>
<path d="M183.973 206.493C184.953 206.609 185.947 206.467 186.856 206.082C186.378 206.014 185.893 206.014 185.415 206.082C184.916 206.145 184.43 206.283 183.973 206.493Z" fill="white"/>
<path d="M200.805 214.365C201.283 214.432 201.769 214.432 202.247 214.365C202.729 214.302 203.2 214.171 203.645 213.975C203.167 213.908 202.682 213.908 202.204 213.975C201.722 214.042 201.252 214.172 200.805 214.365Z" fill="white"/>
<path d="M188.312 223.289C188.791 223.356 189.276 223.356 189.754 223.289C190.236 223.223 190.706 223.092 191.153 222.9C190.674 222.833 190.189 222.833 189.711 222.9C189.23 222.967 188.759 223.098 188.312 223.289Z" fill="white"/>
<path d="M212.945 223.044C213.423 223.111 213.908 223.111 214.386 223.044C214.869 222.985 215.341 222.853 215.785 222.655C215.307 222.583 214.821 222.583 214.343 222.655C213.86 222.715 213.389 222.846 212.945 223.044Z" fill="white"/>
<path d="M197.749 177.507C198.227 177.575 198.712 177.575 199.191 177.507C199.674 177.441 200.147 177.31 200.596 177.117C200.118 177.05 199.633 177.05 199.154 177.117C198.67 177.18 198.196 177.311 197.749 177.507Z" fill="white"/>
<path d="M193.315 181.219C192.925 181.516 192.58 181.868 192.292 182.265C191.993 182.649 191.75 183.074 191.571 183.526C191.959 183.232 192.301 182.882 192.587 182.488C192.888 182.101 193.134 181.674 193.315 181.219Z" fill="white"/>
<path d="M203.595 196.956C202.826 197.562 202.228 198.356 201.858 199.263C202.248 198.968 202.59 198.615 202.874 198.217C203.174 197.834 203.417 197.409 203.595 196.956Z" fill="white"/>
<path d="M213.81 212.757C213.425 213.058 213.083 213.409 212.793 213.802C212.494 214.189 212.252 214.616 212.072 215.071C212.459 214.773 212.801 214.421 213.089 214.026C213.39 213.641 213.633 213.213 213.81 212.757Z" fill="white"/>
<path d="M202.449 224.774C202.062 225.07 201.72 225.42 201.432 225.812C201.131 226.197 200.888 226.625 200.712 227.081C201.101 226.789 201.444 226.439 201.728 226.043C202.029 225.657 202.272 225.23 202.449 224.774Z" fill="white"/>
<path d="M178.927 221.026C178.539 221.322 178.196 221.674 177.91 222.071C177.611 222.454 177.368 222.879 177.19 223.332C177.579 223.04 177.922 222.69 178.206 222.294C178.507 221.909 178.75 221.481 178.927 221.026Z" fill="white"/>
<path d="M192.443 209.874C192.058 210.172 191.716 210.521 191.427 210.912C191.128 211.299 190.885 211.726 190.706 212.18C191.09 211.882 191.432 211.533 191.722 211.142C192.022 210.756 192.265 210.329 192.443 209.874Z" fill="white"/>
<path d="M208.165 182.726C207.779 183.022 207.437 183.371 207.149 183.764C206.847 184.149 206.604 184.577 206.428 185.033C207.198 184.429 207.794 183.634 208.158 182.726H208.165Z" fill="white"/>
<path d="M207.61 192.688C207.312 192.302 206.96 191.959 206.565 191.672C206.181 191.372 205.757 191.129 205.303 190.951C205.596 191.341 205.946 191.683 206.342 191.967C206.727 192.269 207.154 192.511 207.61 192.688Z" fill="white"/>
<path d="M178.653 209.744C178.219 209.576 177.812 209.348 177.442 209.066L177.528 208.67L177.608 208.728C178.002 209.015 178.354 209.358 178.653 209.744Z" fill="white"/>
<path d="M209.088 209.405C208.792 209.019 208.442 208.677 208.05 208.389C207.663 208.09 207.236 207.847 206.781 207.668C207.08 208.054 207.432 208.397 207.827 208.684C208.212 208.982 208.636 209.224 209.088 209.405Z" fill="white"/>
<path d="M210.775 229.936C210.474 229.551 210.123 229.209 209.73 228.919C209.344 228.618 208.917 228.375 208.461 228.198C208.761 228.583 209.113 228.925 209.506 229.215C209.893 229.514 210.32 229.756 210.775 229.936Z" fill="white"/>
<path d="M188.313 189.401C188.014 189.006 187.659 188.656 187.26 188.363C186.875 188.062 186.447 187.819 185.991 187.642C186.285 188.03 186.635 188.373 187.029 188.659C187.419 188.967 187.851 189.217 188.313 189.401Z" fill="white"/>
<path d="M197.186 219.36C196.888 218.974 196.536 218.632 196.141 218.344C195.756 218.047 195.331 217.804 194.88 217.623C195.174 218.009 195.521 218.351 195.91 218.639C196.3 218.939 196.729 219.182 197.186 219.36Z" fill="white"/>
<path d="M184.305 229.07C184.009 228.684 183.659 228.342 183.267 228.054C182.881 227.753 182.454 227.51 181.998 227.333C182.292 227.721 182.642 228.064 183.036 228.35C183.422 228.649 183.849 228.892 184.305 229.07Z" fill="white"/>
<path d="M194.548 200.928C194.25 200.543 193.901 200.201 193.51 199.911C193.125 199.61 192.697 199.367 192.241 199.19C192.539 199.575 192.889 199.917 193.279 200.207C193.666 200.506 194.093 200.748 194.548 200.928Z" fill="white"/>
<path d="M186.402 179.597C167.523 194.072 151.267 214.062 152.904 220.326C154.634 226.944 167.854 234.253 179.475 235.659C181.854 235.947 189.048 218.445 186.604 217.637C184.701 217.032 176.051 214.66 175.005 213.485C174.285 212.671 187.491 193.705 191.751 183.829C196.213 173.527 191.456 175.726 186.402 179.597Z" fill="#EB9481"/>
<path d="M181.695 217.198C181.695 217.198 188.961 217.854 193.69 218.51C196.329 218.877 200.798 219.908 202.615 221.062C205.325 222.792 215.59 231.759 213.464 234.29C211.546 236.582 208.583 233.006 208.583 233.006C208.583 233.006 212.188 236.611 209.585 238.298C206.983 239.984 203.552 234.974 203.552 234.974C203.552 234.974 207.646 238.528 204.698 240.071C202.132 241.405 197.583 236.041 197.583 236.041C197.583 236.041 202.29 239.3 199.796 240.929C197.049 242.724 189.214 235.537 189.214 235.537C183.007 236.258 179.179 235.904 174.796 234.715C173.989 234.499 181.695 217.198 181.695 217.198Z" fill="#EB9481"/>
<path d="M204.655 236.164C204.374 235.782 204.078 235.407 203.79 235.025C203.252 234.266 202.664 233.544 202.031 232.862C201.411 232.199 200.762 231.572 200.084 230.966C199.407 230.361 198.599 229.748 197.922 229.085C197.917 229.08 197.91 229.076 197.904 229.074C197.897 229.072 197.89 229.071 197.883 229.071C197.876 229.071 197.869 229.073 197.863 229.076C197.857 229.079 197.851 229.083 197.846 229.088C197.841 229.094 197.838 229.1 197.835 229.106C197.833 229.113 197.832 229.12 197.832 229.127C197.833 229.134 197.834 229.141 197.837 229.147C197.84 229.154 197.844 229.159 197.85 229.164C198.543 229.81 199.198 230.496 199.81 231.219C200.438 231.903 201.05 232.595 201.67 233.288C202.29 233.98 202.917 234.592 203.537 235.255C203.847 235.58 204.143 235.926 204.438 236.265C204.697 236.607 204.984 236.928 205.296 237.223C205.332 237.223 205.368 237.223 205.354 237.173C205.156 236.813 204.922 236.475 204.655 236.164Z" fill="#263238"/>
<path d="M209.319 233.778C208.357 232.346 207.297 230.983 206.147 229.698C204.976 228.422 203.682 227.265 202.283 226.245C202.278 226.24 202.272 226.236 202.265 226.234C202.258 226.231 202.251 226.23 202.244 226.231C202.237 226.231 202.23 226.233 202.224 226.236C202.218 226.239 202.212 226.243 202.207 226.248C202.203 226.253 202.199 226.26 202.197 226.266C202.194 226.273 202.193 226.28 202.193 226.287C202.194 226.294 202.195 226.301 202.198 226.307C202.201 226.313 202.206 226.319 202.211 226.324C203.379 227.6 204.568 228.861 205.75 230.13C206.327 230.743 208.872 233.634 209.182 233.9C209.254 233.944 209.355 233.835 209.319 233.778Z" fill="#263238"/>
<path d="M200.329 238.536C199.397 237.208 198.379 235.944 197.28 234.751C196.046 233.638 194.733 232.617 193.351 231.694C193.301 231.694 193.236 231.738 193.279 231.774C194.505 232.891 195.752 233.98 196.884 235.147C197.46 235.724 199.601 238.132 200.192 238.629C200.205 238.647 200.224 238.66 200.246 238.664C200.267 238.668 200.29 238.663 200.308 238.651C200.326 238.638 200.338 238.619 200.342 238.598C200.347 238.576 200.342 238.554 200.329 238.536Z" fill="#263238"/>
<path d="M187.397 216.938L177.233 236.366C177.233 236.366 154.331 230.318 152.356 219.944C150.38 209.571 176.62 185.725 184.715 180.087C192.811 174.45 197.749 173.693 191.362 186.532C184.975 199.371 175.092 212.577 175.899 213.24C176.584 213.795 187.397 216.938 187.397 216.938Z" fill="#B0908C"/>
<path d="M171.278 202.78C171.211 203.259 171.211 203.744 171.278 204.222C171.339 204.707 171.47 205.181 171.668 205.628C171.735 205.15 171.735 204.664 171.668 204.186C171.601 203.702 171.47 203.23 171.278 202.78Z" fill="white"/>
<path d="M174.176 226.771C174.062 227.751 174.204 228.745 174.587 229.654C174.655 229.176 174.655 228.691 174.587 228.213C174.524 227.714 174.385 227.228 174.176 226.771Z" fill="white"/>
<path d="M162.354 215.078C162.287 215.557 162.287 216.042 162.354 216.52C162.416 217.003 162.55 217.475 162.751 217.919C162.821 217.441 162.821 216.955 162.751 216.477C162.687 215.994 162.554 215.523 162.354 215.078Z" fill="white"/>
<path d="M185.934 196.372L185.89 196.444C185.887 196.396 185.887 196.348 185.89 196.3C185.908 196.322 185.923 196.346 185.934 196.372Z" fill="white"/>
<path d="M180.441 183.605C180.325 184.586 180.466 185.58 180.852 186.489C180.919 186.01 180.919 185.525 180.852 185.047C180.79 184.548 180.651 184.062 180.441 183.605Z" fill="white"/>
<path d="M184.175 217.688C183.983 217.241 183.852 216.771 183.786 216.289C183.786 216.145 183.771 216.001 183.742 215.857L184.11 215.965C184.11 216.052 184.146 216.145 184.16 216.232C184.234 216.714 184.239 217.204 184.175 217.688Z" fill="white"/>
<path d="M185.602 179.54C186.08 179.608 186.566 179.608 187.044 179.54C187.54 179.477 188.025 179.346 188.486 179.15C187.506 179.027 186.511 179.166 185.602 179.554V179.54Z" fill="white"/>
<path d="M161.763 204.136C162.241 204.203 162.726 204.203 163.205 204.136C163.688 204.076 164.159 203.945 164.603 203.746C164.125 203.679 163.64 203.679 163.161 203.746C162.68 203.812 162.209 203.943 161.763 204.136Z" fill="white"/>
<path d="M171.841 216.477C172.319 216.545 172.804 216.545 173.282 216.477C173.768 216.417 174.241 216.286 174.688 216.088C174.21 216.02 173.725 216.02 173.246 216.088C172.762 216.153 172.289 216.284 171.841 216.477Z" fill="white"/>
<path d="M165.858 230.664C166.336 230.731 166.821 230.731 167.299 230.664C167.785 230.604 168.258 230.473 168.705 230.274C167.724 230.158 166.731 230.3 165.822 230.685L165.858 230.664Z" fill="white"/>
<path d="M154.922 220.802C155.4 220.869 155.885 220.869 156.364 220.802C156.847 220.743 157.318 220.612 157.762 220.413C156.782 220.297 155.788 220.439 154.879 220.824L154.922 220.802Z" fill="white"/>
<path d="M176.072 191.657C176.55 191.725 177.036 191.725 177.514 191.657C177.999 191.598 178.473 191.467 178.92 191.268C177.939 191.152 176.945 191.294 176.036 191.679L176.072 191.657Z" fill="white"/>
<path d="M193.315 181.219C192.925 181.516 192.58 181.868 192.292 182.265C191.993 182.649 191.75 183.074 191.571 183.526C191.959 183.232 192.301 182.882 192.587 182.488C192.888 182.101 193.134 181.674 193.315 181.219Z" fill="white"/>
<path d="M178.927 198.001C178.539 198.298 178.196 198.65 177.91 199.046C177.611 199.43 177.368 199.855 177.19 200.308C177.579 200.016 177.922 199.666 178.206 199.27C178.507 198.884 178.75 198.457 178.927 198.001Z" fill="white"/>
<path d="M178.927 221.026C178.539 221.322 178.196 221.674 177.91 222.071C177.611 222.454 177.368 222.879 177.19 223.332C177.579 223.04 177.922 222.69 178.206 222.294C178.507 221.909 178.75 221.481 178.927 221.026Z" fill="white"/>
<path d="M163.926 224.132C163.157 224.738 162.558 225.533 162.188 226.439C162.578 226.145 162.921 225.792 163.205 225.394C163.505 225.01 163.747 224.586 163.926 224.132Z" fill="white"/>
<path d="M167.588 209.405C167.203 209.703 166.861 210.052 166.571 210.443C166.271 210.829 166.028 211.257 165.85 211.712C166.237 211.416 166.579 211.066 166.867 210.674C167.166 210.287 167.408 209.86 167.588 209.405Z" fill="white"/>
<path d="M178.055 233.143C177.289 233.751 176.693 234.545 176.325 235.45C177.094 234.847 177.691 234.051 178.055 233.143Z" fill="white"/>
<path d="M178.011 209.059L177.846 209.333C177.687 209.239 177.536 209.131 177.384 209.023C176.992 208.735 176.642 208.393 176.346 208.007C176.798 208.188 177.222 208.43 177.608 208.728C177.745 208.836 177.889 208.944 178.011 209.059Z" fill="white"/>
<path d="M158.195 212.577C157.897 212.192 157.547 211.85 157.157 211.561C156.77 211.262 156.343 211.019 155.888 210.84C156.184 211.226 156.534 211.568 156.926 211.856C157.313 212.155 157.74 212.398 158.195 212.577Z" fill="white"/>
<path d="M170.68 223.455C170.384 223.069 170.034 222.726 169.642 222.439C169.255 222.14 168.828 221.897 168.373 221.718C168.672 222.104 169.024 222.446 169.419 222.734C169.804 223.031 170.228 223.274 170.68 223.455Z" fill="white"/>
<path d="M188.313 189.401C188.014 189.006 187.659 188.656 187.26 188.363C186.875 188.062 186.447 187.819 185.991 187.642C186.285 188.03 186.635 188.373 187.029 188.659C187.419 188.967 187.851 189.217 188.313 189.401Z" fill="white"/>
<path d="M171.206 197.403C170.599 196.637 169.804 196.041 168.9 195.673C169.196 196.059 169.545 196.401 169.938 196.689C170.325 196.985 170.752 197.226 171.206 197.403Z" fill="white"/>
<path d="M173.989 233.67C174.472 233.028 177.982 226.778 178.718 225.401C179.453 224.024 182.51 218.438 183.144 216.96C183.147 216.948 183.146 216.935 183.141 216.924C183.137 216.913 183.129 216.903 183.118 216.897C183.108 216.89 183.095 216.887 183.083 216.888C183.071 216.889 183.059 216.894 183.05 216.902C182.149 218.236 179.049 223.866 178.271 225.25C177.492 226.634 174.162 232.891 173.888 233.626C173.866 233.691 173.953 233.713 173.989 233.67Z" fill="#263238"/>
<path d="M187.52 216.873L187.044 217.666C187.109 217.58 187.368 216.989 187.368 216.989C184.269 216.268 181.183 215.497 178.134 214.552C177.752 214.43 177.37 214.307 176.988 214.163C176.578 214.025 176.186 213.838 175.82 213.608C175.789 213.584 175.76 213.557 175.733 213.529C175.688 213.475 175.652 213.414 175.625 213.348C175.598 213.237 175.598 213.121 175.625 213.01C175.661 212.909 175.705 212.793 175.748 212.7C175.791 212.606 175.921 212.325 176.007 212.144C176.188 211.784 176.382 211.424 176.57 211.078C177.334 209.636 178.127 208.281 178.941 206.904C180.592 204.164 182.236 201.425 183.944 198.736C185.559 196.184 187.238 193.301 188.933 190.807C189.033 190.655 189.293 190.518 188.983 191.066C187.426 193.856 186.02 196.264 184.413 198.996L179.554 207.243C178.747 208.619 177.925 209.982 177.154 211.373C176.959 211.719 176.764 212.094 176.584 212.418C176.49 212.591 176.411 212.764 176.325 212.937L176.252 213.132L176.202 213.096C176.206 213.113 176.206 213.13 176.202 213.146C176.202 213.146 176.202 213.211 176.202 213.19V213.139C176.503 213.31 176.816 213.457 177.139 213.579L178.249 213.99C179.741 214.531 181.262 215.014 182.791 215.482L187.52 216.873Z" fill="#263238"/>
<path d="M176.252 213.139V213.19C176.252 213.19 176.252 213.154 176.252 213.146C176.257 213.13 176.257 213.112 176.252 213.096V213.139Z" fill="#263238"/>
<path d="M188.507 194.418C188.723 194.252 188.702 194.418 188.601 194.512C188.046 195.233 187.195 195.99 186.575 196.624C185.849 197.378 185.073 198.084 184.254 198.736C184.893 197.905 185.584 197.116 186.323 196.372C187.004 195.67 187.734 195.018 188.507 194.418Z" fill="#263238"/>
<path d="M200.957 183.057C198.477 183.778 194.007 180.174 192.169 177.125C192.039 176.916 192.263 174.659 192.4 171.906C192.479 170.24 192.53 168.373 192.45 166.672C192.45 166.326 203.263 168.77 203.263 168.77C202.754 170.928 202.512 173.141 202.543 175.359C202.555 175.601 202.588 175.843 202.643 176.079C202.643 176.079 202.643 176.152 202.643 176.195C202.932 177.485 203.35 182.373 200.957 183.057Z" fill="#EB9481"/>
<path d="M193.114 166.687C193.741 169.57 195.86 176.411 201.562 176.274C201.927 176.27 202.292 176.234 202.651 176.166C202.655 176.128 202.655 176.089 202.651 176.051C202.598 175.813 202.561 175.572 202.542 175.33C202.514 173.112 202.756 170.9 203.263 168.741C203.263 168.741 195.449 167.004 193.114 166.687Z" fill="#263238"/>
<path d="M205.765 149.645C205.765 149.645 209.239 151.087 209.881 154.605C210.523 158.123 209.722 161.813 209.42 162.008C209.117 162.203 205.765 149.645 205.765 149.645Z" fill="#263238"/>
<path d="M191.153 154.1C190.144 157.928 192.594 168.791 195.341 171.127C199.385 174.515 205.786 174.609 208.612 169.801C211.351 165.144 207.956 151.058 204.864 148.939C200.308 145.832 192.645 148.441 191.153 154.1Z" fill="#EB9481"/>
<path d="M202.276 161.251C202.276 161.251 202.225 161.302 202.232 161.33C202.42 162.051 202.506 162.923 201.894 163.306C201.894 163.306 201.894 163.356 201.894 163.349C202.694 163.06 202.564 161.914 202.276 161.251Z" fill="#263238"/>
<path d="M201.454 160.631C200.257 160.797 200.683 163.183 201.793 163.024C202.903 162.866 202.463 160.494 201.454 160.631Z" fill="#263238"/>
<path d="M206.414 160.545C206.414 160.545 206.478 160.545 206.478 160.602C206.587 161.323 206.839 162.174 207.545 162.304V162.347C206.724 162.412 206.392 161.266 206.414 160.545Z" fill="#263238"/>
<path d="M206.933 159.658C208.108 159.355 208.619 161.72 207.538 162.001C206.457 162.282 205.952 159.91 206.933 159.658Z" fill="#263238"/>
<path d="M200.027 158.937C200.345 158.847 200.658 158.739 200.964 158.613C201.311 158.544 201.626 158.361 201.858 158.094C201.912 157.996 201.934 157.882 201.92 157.771C201.906 157.659 201.856 157.555 201.778 157.474C201.596 157.339 201.381 157.255 201.155 157.233C200.929 157.21 200.701 157.248 200.495 157.344C200.05 157.468 199.667 157.753 199.421 158.144C199.371 158.237 199.349 158.342 199.358 158.447C199.366 158.552 199.405 158.652 199.469 158.736C199.532 158.819 199.619 158.883 199.718 158.919C199.817 158.954 199.924 158.961 200.027 158.937Z" fill="#263238"/>
<path d="M207.718 157.726C207.388 157.718 207.058 157.691 206.731 157.647C206.378 157.668 206.028 157.572 205.736 157.373C205.656 157.293 205.605 157.189 205.591 157.076C205.576 156.964 205.6 156.851 205.657 156.753C205.799 156.577 205.985 156.442 206.197 156.362C206.408 156.282 206.638 156.26 206.86 156.299C207.324 156.31 207.767 156.49 208.108 156.803C208.18 156.881 208.229 156.977 208.247 157.082C208.266 157.186 208.254 157.294 208.213 157.391C208.172 157.489 208.103 157.573 208.015 157.632C207.927 157.691 207.824 157.724 207.718 157.726Z" fill="#263238"/>
<path d="M202.254 168.33C202.448 168.52 202.704 168.635 202.975 168.654C203.248 168.597 203.508 168.486 203.739 168.33C203.739 168.33 203.79 168.33 203.775 168.33C203.696 168.494 203.574 168.634 203.421 168.734C203.269 168.834 203.092 168.892 202.91 168.9C202.748 168.891 202.592 168.834 202.463 168.734C202.334 168.635 202.239 168.499 202.189 168.344C202.189 168.344 202.225 168.308 202.254 168.33Z" fill="#263238"/>
<path d="M202.643 166.016C202.881 166.276 203.171 166.483 203.494 166.625C203.817 166.766 204.165 166.839 204.518 166.838C204.824 166.843 205.13 166.804 205.426 166.723L205.599 166.672L205.758 166.622C205.795 166.605 205.826 166.578 205.846 166.543C205.867 166.508 205.876 166.467 205.873 166.427C205.875 166.403 205.875 166.379 205.873 166.355V166.29C205.794 165.721 205.585 164.848 205.585 164.848C205.808 164.92 206.954 165.209 206.882 164.913C206.364 162.351 205.587 159.849 204.561 157.445C204.552 157.433 204.539 157.424 204.525 157.419C204.51 157.415 204.495 157.415 204.48 157.42C204.466 157.425 204.454 157.434 204.445 157.446C204.436 157.458 204.431 157.473 204.431 157.488C204.9 159.845 205.772 162.109 206.284 164.473C205.875 164.363 205.453 164.312 205.03 164.322C204.957 164.358 205.462 165.966 205.476 166.225C205.02 166.354 204.541 166.389 204.071 166.329C203.6 166.268 203.146 166.113 202.737 165.872C202.636 165.872 202.586 165.93 202.643 166.016Z" fill="#263238"/>
<path d="M205.044 166.456C204.805 166.918 204.449 167.311 204.013 167.595C203.77 167.74 203.488 167.808 203.206 167.789C202.593 167.739 202.485 167.198 202.485 166.715C202.502 166.459 202.548 166.205 202.622 165.958C203.354 166.382 204.204 166.556 205.044 166.456Z" fill="#263238"/>
<path d="M204.013 167.595C203.77 167.74 203.488 167.808 203.206 167.789C202.593 167.739 202.485 167.198 202.485 166.715C202.801 166.672 203.123 166.735 203.399 166.894C203.676 167.053 203.892 167.3 204.013 167.595Z" fill="#FF98B9"/>
<path d="M192.58 164.401C193.863 164.574 194.656 160.674 194.815 159.204C194.959 157.906 194.707 153.898 194.721 153.624C194.736 153.35 200.611 156.219 203.53 154.814C206.45 153.408 208.043 150.308 207.855 149.047C207.668 147.785 203.328 145.125 199.998 145.507C196.667 145.889 192.912 150.82 192.912 150.82C193.346 150.129 193.726 149.406 194.051 148.658C193.971 148.513 191.982 149.724 191.845 151.303C191.845 151.303 191.946 149.328 191.78 149.321C191.614 149.314 190.23 151.224 190.807 152.392C190.807 152.392 189.17 154.374 189.3 156.219C189.43 158.065 191.081 164.2 192.58 164.401Z" fill="#263238"/>
<path d="M205.599 153.805C204.776 154.451 203.856 154.964 202.874 155.326C201.76 155.61 200.593 155.61 199.479 155.326C198.356 155.094 197.279 154.678 196.293 154.093C195.413 153.588 194.606 152.939 193.698 152.514C193.467 152.406 193.279 152.745 193.438 152.911C195.128 154.61 197.319 155.722 199.688 156.082C200.789 156.251 201.915 156.13 202.955 155.732C203.995 155.334 204.914 154.672 205.621 153.812C205.621 153.812 205.613 153.797 205.599 153.805Z" fill="#263238"/>
<path d="M193.827 162.924C193.827 162.924 191.153 159.535 189.603 160.509C188.053 161.482 190.208 166.499 192.126 167.09C192.368 167.182 192.626 167.225 192.885 167.215C193.143 167.205 193.398 167.143 193.632 167.033C193.866 166.922 194.075 166.766 194.248 166.573C194.42 166.379 194.552 166.153 194.635 165.908L193.827 162.924Z" fill="#EB9481"/>
<path d="M190.252 161.929C190.252 161.929 190.252 161.972 190.252 161.979C191.607 162.441 192.371 163.623 192.933 164.863C192.849 164.735 192.737 164.627 192.607 164.547C192.477 164.466 192.33 164.415 192.178 164.396C192.026 164.378 191.872 164.392 191.726 164.439C191.58 164.486 191.446 164.564 191.333 164.668C191.333 164.668 191.333 164.747 191.376 164.733C191.604 164.646 191.853 164.633 192.09 164.693C192.326 164.754 192.537 164.886 192.695 165.072C192.957 165.383 193.184 165.721 193.373 166.081C193.445 166.196 193.654 166.124 193.604 165.987C193.517 164.272 192.068 161.994 190.252 161.929Z" fill="#263238"/>
<path d="M190.864 177.925C192.046 179.364 193.307 180.736 194.642 182.034C195.867 183.304 197.47 184.144 199.212 184.427C200.906 184.578 202.6 184.232 203.22 182.164C203.66 180.383 203.702 178.527 203.343 176.728C203.339 176.718 203.338 176.708 203.34 176.698C203.341 176.687 203.345 176.678 203.351 176.669C203.357 176.661 203.365 176.654 203.374 176.649C203.383 176.644 203.394 176.642 203.404 176.642C203.414 176.642 203.425 176.644 203.434 176.649C203.443 176.654 203.451 176.661 203.457 176.669C203.463 176.678 203.467 176.687 203.468 176.698C203.47 176.708 203.469 176.718 203.465 176.728C203.854 179.431 204.258 183.627 201.8 184.564C199.046 185.616 196.343 184.196 194.404 182.293C193.047 180.989 191.838 179.538 190.8 177.968C190.821 177.932 190.864 177.896 190.864 177.925Z" fill="#263238"/>
</svg>
