<svg width="459" height="391" viewBox="0 0 459 391" fill="none" xmlns="http://www.w3.org/2000/svg">
<path d="M371.14 319.92V340.66H401.47H434.94V319.92H371.14Z" fill="#F5F5F5"/>
<path d="M368.46 314.12V319.92H437.17V314.12H401.47H368.46Z" fill="#EBEBEB"/>
<path d="M402.81 340.66H434.94V319.92H437.17V314.12H401.47V319.38L402.81 340.66Z" fill="#E0E0E0"/>
<path d="M393 323.26H380.06V326.38H393V323.26Z" fill="#E0E0E0"/>
<path d="M395 330.29H378.39V336.88H395V330.29Z" fill="#E0E0E0"/>
<path d="M448.94 390.58L447.42 67.6797H441.17V131.28H425.02L424.72 67.6898H418.47V131.28H362.91L362.61 67.6898H356.36V131.28H340.26L339.96 67.6898H333.71V390.58H341.48L341.28 347.25H356.36V390.58H364.14L363.93 347.28H418.47V390.58H426.24L426.04 347.25H441.17V390.58H448.94ZM348.41 304.46L342.82 280.52H354.29L348.41 304.46ZM356.36 281.99V338.53L349.59 309.53L356.36 281.99ZM356.36 199.81L349.59 170.81L356.36 143.28V199.81ZM355.15 205H341.15L348.31 175.87L355.15 205ZM348.41 165.74L342.01 138.28H355.15L348.41 165.74ZM347.17 170.8L340.56 197.63L340.3 141.4L347.17 170.8ZM340.97 282.98L347.17 309.52L341.17 333.74L340.97 282.98ZM348.35 314.59L354.35 340.19H342.06L348.35 314.59ZM341.18 273.47L341.13 273.25H340.93L340.64 212.02H356.36V273.43L341.18 273.47ZM363.29 212.06H418.47V273.47H363.56L363.29 212.06ZM432.72 175.87L439.52 205H425.56L432.72 175.87ZM425.32 196.08L425.07 143.08L431.56 170.79L425.32 196.08ZM441.17 201.68L433.96 170.81L441.17 141.49V201.68ZM441.17 204.9V205H440.73L441.17 204.9ZM441.17 283.67V336.76L434.81 309.53L441.17 283.67ZM433.63 304.46L428.04 280.52H439.56L433.63 304.46ZM432.78 165.74L426.38 138.28H439.56L432.78 165.74ZM441.17 212.06V273.47H426.4V273.25L425.74 273.4L425.45 212.06H441.17ZM432.39 309.52L425.98 335.57L425.73 280.97L432.39 309.52ZM433.57 314.59L439.57 340.19H427.28L433.57 314.59ZM418.47 138.28V204.96H363.26L362.95 138.28H418.47ZM364.9 340.19H363.9L363.62 280.52H418.47V340.19H364.9Z" fill="#EBEBEB"/>
<path d="M364.89 205.32V198.03H416.36L416.52 205.32H364.89Z" fill="#E0E0E0"/>
<path d="M416.39 199.22C416.39 199.22 370.74 199.56 367.78 200.22C367.14 200.37 366.5 203.22 367.78 203.43C369.06 203.64 416.39 204.07 416.39 204.07V199.22Z" fill="white"/>
<path d="M370.87 197.74V190.46H411.64L411.77 197.74H370.87Z" fill="#EBEBEB"/>
<path d="M411.66 191.65C411.66 191.65 375.5 191.98 373.16 192.65C372.65 192.8 372.16 195.6 373.16 195.86C374.16 196.12 411.66 196.5 411.66 196.5V191.65Z" fill="white"/>
<path d="M370.69 190.54V183.26H411.46L411.59 190.54H370.69Z" fill="#E0E0E0"/>
<path d="M411.48 184.45C411.48 184.45 375.32 184.78 372.98 185.45C372.47 185.6 371.98 188.45 372.98 188.66C373.98 188.87 411.48 189.3 411.48 189.3V184.45Z" fill="white"/>
<path d="M418.47 83.0198H408.14V131.15H418.47V83.0198Z" fill="#E0E0E0"/>
<path d="M415.56 119.6C415.56 119.993 415.444 120.378 415.226 120.705C415.008 121.033 414.699 121.289 414.336 121.442C413.974 121.595 413.574 121.637 413.188 121.564C412.801 121.491 412.445 121.305 412.163 121.031C411.882 120.756 411.687 120.404 411.605 120.02C411.522 119.635 411.555 119.235 411.698 118.868C411.842 118.502 412.091 118.186 412.413 117.961C412.735 117.735 413.117 117.61 413.51 117.6C414.045 117.6 414.559 117.809 414.942 118.182C415.325 118.556 415.547 119.065 415.56 119.6Z" fill="white"/>
<path d="M415 95.7698H411.84V115.44H415V95.7698Z" fill="white"/>
<path d="M407.98 83.0198H397.65V131.15H407.98V83.0198Z" fill="#EBEBEB"/>
<path d="M403.02 121.65C404.152 121.65 405.07 120.732 405.07 119.6C405.07 118.468 404.152 117.55 403.02 117.55C401.888 117.55 400.97 118.468 400.97 119.6C400.97 120.732 401.888 121.65 403.02 121.65Z" fill="white"/>
<path d="M404.51 95.7698H401.35V115.44H404.51V95.7698Z" fill="white"/>
<path d="M397.99 83.0198H387.66V131.15H397.99V83.0198Z" fill="#F5F5F5"/>
<path d="M395.08 119.6C395.08 119.995 394.963 120.382 394.743 120.711C394.523 121.04 394.211 121.296 393.845 121.447C393.48 121.599 393.078 121.638 392.69 121.561C392.302 121.484 391.945 121.294 391.666 121.014C391.386 120.734 391.196 120.378 391.118 119.99C391.041 119.602 391.081 119.2 391.232 118.834C391.384 118.469 391.64 118.157 391.969 117.937C392.298 117.717 392.684 117.6 393.08 117.6C393.606 117.612 394.108 117.827 394.48 118.2C394.853 118.572 395.067 119.073 395.08 119.6Z" fill="white"/>
<path d="M394.52 95.7698H391.36V115.44H394.52V95.7698Z" fill="white"/>
<path d="M418.47 225.46H408.14V273.59H418.47V225.46Z" fill="#E0E0E0"/>
<path d="M415.56 262.05C415.56 262.443 415.444 262.828 415.226 263.155C415.008 263.483 414.699 263.739 414.336 263.892C413.974 264.045 413.574 264.087 413.188 264.014C412.801 263.941 412.445 263.755 412.163 263.481C411.882 263.206 411.687 262.854 411.605 262.47C411.522 262.085 411.555 261.685 411.698 261.318C411.842 260.952 412.091 260.636 412.413 260.411C412.735 260.185 413.117 260.06 413.51 260.05C413.777 260.043 414.042 260.09 414.291 260.187C414.539 260.285 414.766 260.431 414.957 260.618C415.148 260.804 415.299 261.027 415.403 261.273C415.507 261.519 415.56 261.783 415.56 262.05Z" fill="white"/>
<path d="M415 238.22H411.84V257.89H415V238.22Z" fill="white"/>
<path d="M407.98 225.46H397.65V273.59H407.98V225.46Z" fill="#EBEBEB"/>
<path d="M405.07 262.05C405.07 262.443 404.954 262.828 404.736 263.155C404.518 263.483 404.209 263.739 403.846 263.892C403.484 264.045 403.084 264.087 402.698 264.014C402.311 263.941 401.955 263.755 401.673 263.481C401.392 263.206 401.197 262.854 401.115 262.47C401.032 262.085 401.065 261.685 401.208 261.318C401.352 260.952 401.601 260.636 401.923 260.411C402.245 260.185 402.627 260.06 403.02 260.05C403.287 260.043 403.552 260.09 403.801 260.187C404.049 260.285 404.276 260.431 404.467 260.618C404.658 260.804 404.81 261.027 404.913 261.273C405.017 261.519 405.07 261.783 405.07 262.05Z" fill="white"/>
<path d="M404.51 238.22H401.35V257.89H404.51V238.22Z" fill="white"/>
<path d="M397.99 225.46H387.66V273.59H397.99V225.46Z" fill="#F5F5F5"/>
<path d="M395.08 262.05C395.08 262.445 394.963 262.832 394.743 263.161C394.523 263.49 394.211 263.746 393.845 263.898C393.48 264.049 393.078 264.089 392.69 264.011C392.302 263.934 391.945 263.744 391.666 263.464C391.386 263.184 391.196 262.828 391.118 262.44C391.041 262.052 391.081 261.65 391.232 261.284C391.384 260.919 391.64 260.607 391.969 260.387C392.298 260.167 392.684 260.05 393.08 260.05C393.61 260.05 394.119 260.261 394.494 260.636C394.869 261.011 395.08 261.519 395.08 262.05Z" fill="white"/>
<path d="M394.52 238.22H391.36V257.89H394.52V238.22Z" fill="white"/>
<path d="M374.89 130.41L387.3 88.0698L383.02 86.1998L370.29 128.88L374.89 130.41Z" fill="#E0E0E0"/>
<path d="M82.39 132.87H32.85V197.46L82.39 198.71V132.87Z" fill="#EBEBEB"/>
<path d="M79.13 135.17H35.79V193.75L79.13 195.21V135.17Z" fill="white"/>
<path d="M71.54 145.81L42.78 144.72V185.66H71.54V145.81Z" fill="#EBEBEB"/>
<path d="M42.78 185.66L71.54 164.63L42.78 144.72V185.66Z" fill="#F5F5F5"/>
<path d="M123.99 381.1C122.81 380.1 120.17 376.89 122.21 373.17C122.95 371.8 124.54 371.12 125.97 370.52C127.449 370.029 128.842 369.31 130.1 368.39C132.34 366.5 132.96 363.34 134.45 360.81C136.16 357.91 139.34 355.73 142.71 355.88C146.56 356.06 149.78 359.19 151.24 362.77C152.7 366.35 152.75 370.31 152.77 374.17C152.77 376.3 152.7 378.7 151.12 380.17C149.54 381.64 147.49 381.51 145.52 381.45L124.45 380.81" fill="#F5F5F5"/>
<path d="M160.89 331.08H110.56L119.56 384.93C119.746 386.056 120.249 387.106 121.011 387.956C121.773 388.806 122.761 389.422 123.86 389.73L124.03 389.78C124.178 389.826 124.328 389.863 124.48 389.89C124.809 389.959 125.144 389.999 125.48 390.01H125.73H148.18C148.593 390.011 149.005 389.971 149.41 389.89C150.722 389.699 151.933 389.08 152.856 388.129C153.779 387.177 154.36 385.947 154.51 384.63L158.88 347.52L159.08 346.04L160.81 331.35L160.89 331.08ZM151.39 365.43H146.22L146.74 349.8H152.74L151.39 365.43ZM153.23 349.8H158.23L156.39 365.43H151.94L153.23 349.8ZM138.47 382.8L138.15 369.22H145.56L145.1 382.8H138.47ZM130.47 369.22H137.7L138.02 382.8H131.53L130.47 369.22ZM131.03 382.8H124.96C124.39 379.13 123.64 374.37 122.83 369.22H129.97L131.03 382.8ZM130.18 365.47L128.96 349.84H137.25L137.61 365.47H130.18ZM138.12 365.47L137.75 349.84H146.29L145.77 365.47H138.12ZM137.67 346.09L137.33 331.62H146.9L146.42 346.09H137.67ZM137.17 346.09H128.66L127.53 331.62H136.83L137.17 346.09ZM128.17 346.09H119.17C118.86 344.09 118.55 342.2 118.28 340.5C117.34 334.65 116.99 332.45 116.79 331.62H127.04L128.17 346.09ZM128.46 349.84L129.68 365.47H122.24C121.99 363.89 121.74 362.28 121.49 360.68C120.9 356.99 120.32 353.3 119.77 349.84H128.46ZM121.74 365.47H116.88L114.24 349.84H119.24C119.97 354.63 120.82 360.01 121.68 365.43L121.74 365.47ZM122.33 369.22L124.47 382.8H119.8L117.51 369.22H122.33ZM145.7 382.8L146.16 369.22H151.16L149.99 382.8H145.7ZM146.93 346.09L147.41 331.62H154.41L153.16 346.09H146.93ZM116.26 331.58C116.46 332.63 117.38 338.32 118.61 346.05H113.56L111.12 331.58H116.26ZM154.26 382.76H150.37L151.56 369.18H155.89L154.26 382.76ZM158.58 346.05H153.56L154.8 331.58H160.33L158.58 346.05Z" fill="#EBEBEB"/>
<path d="M13.26 303.34C14.15 303.49 15.15 303.71 16.26 303.82C17.37 303.93 18.61 304.12 19.94 304.18C21.27 304.24 22.68 304.28 24.17 304.3C27.4085 304.229 30.6358 303.895 33.82 303.3C36.9939 302.664 40.1109 301.771 43.14 300.63C44.52 300.06 45.84 299.55 47.02 298.94C48.2 298.33 49.32 297.79 50.3 297.24C51.28 296.69 52.15 296.14 52.91 295.67C53.67 295.2 54.32 294.76 54.83 294.39L55.83 293.73H10.11V302.65L11.01 302.86C11.62 303.02 12.38 303.2 13.26 303.34Z" fill="#F5F5F5"/>
<path d="M40.56 386.61C37.269 386.547 33.9868 386.972 30.82 387.87C28.8834 388.448 27.0234 389.257 25.28 390.28H62.68C59.5 389.65 56.12 388.85 52.57 388.13C48.6246 387.24 44.6028 386.731 40.56 386.61Z" fill="#F5F5F5"/>
<path d="M86.56 380.5C82.31 379.83 77.19 380.34 71.56 380.86C68.5692 381.148 65.5622 381.232 62.56 381.11C59.45 380.98 56.25 380.64 52.99 380.24C46.46 379.42 40.24 378.59 34.57 378.84C29.5466 379.004 24.5983 380.106 19.98 382.09C16.8666 383.435 13.9284 385.155 11.23 387.21L10.08 388.11V390.28H24.8C26.6235 389.07 28.6102 388.128 30.7 387.48C33.8941 386.499 37.2188 386.01 40.56 386.03C44.6378 386.107 48.6978 386.589 52.68 387.47C56.91 388.33 60.9 389.33 64.56 390.03L65.79 390.24H95.56V383.8C92.8496 382.03 89.7717 380.902 86.56 380.5Z" fill="#F5F5F5"/>
<path d="M19.83 381.69C24.4773 379.623 29.4774 378.466 34.56 378.28C40.3 378 46.56 378.82 53.07 379.63C56.33 380.03 59.52 380.38 62.6 380.51C65.5884 380.644 68.5825 380.568 71.56 380.28C77.22 379.79 82.41 379.28 86.71 380.06C89.8823 380.51 92.9095 381.679 95.56 383.48V372.19C93.0849 371.484 90.5239 371.123 87.95 371.12C79.45 370.84 68.16 375.47 55.02 375.12C48.8917 375.088 42.7877 374.346 36.83 372.91C31.33 371.59 26.61 369.7 22.51 368.63C19.3114 367.679 15.9863 367.224 12.65 367.28C11.7998 367.316 10.9521 367.397 10.11 367.52V387.86C10.41 387.6 10.73 387.32 11.11 387.02C13.7669 384.863 16.6994 383.071 19.83 381.69Z" fill="#F5F5F5"/>
<path d="M13.4 329.77C15.67 329.97 18.8 331.09 22.47 332.77C24.4502 333.674 26.484 334.455 28.56 335.11C30.9694 335.79 33.4366 336.245 35.93 336.47C41.6717 336.883 47.4428 336.526 53.09 335.41C59.09 334.34 64.78 332.83 70 331.71C74.6082 330.637 79.2866 329.892 84 329.48C87.1845 329.227 90.3858 329.281 93.56 329.64C94.37 329.73 95.04 329.84 95.56 329.94V314.89L94.67 314.17C92.8017 312.63 90.8378 311.211 88.79 309.92C85.8091 307.947 82.3589 306.798 78.79 306.59C74.79 306.46 70.48 308.03 66.3 310.08C62.3361 311.991 58.5012 314.159 54.82 316.57C53.16 317.69 51.39 318.69 50.69 320.26C50.5171 320.615 50.4533 321.014 50.5067 321.405C50.5601 321.797 50.7283 322.164 50.99 322.46C51.5214 323.019 52.1657 323.459 52.88 323.75C55.0557 324.801 57.4103 325.432 59.82 325.61C61.52 325.73 62.48 325.61 62.48 325.68C62.2567 325.752 62.0245 325.792 61.79 325.8C61.125 325.858 60.4571 325.875 59.79 325.85C57.3309 325.767 54.9133 325.193 52.68 324.16C51.8989 323.849 51.1931 323.375 50.61 322.77C50.2886 322.405 50.079 321.956 50.0063 321.475C49.9335 320.994 50.0008 320.503 50.2 320.06C51.01 318.23 52.85 317.23 54.49 316.06C58.171 313.599 62.0205 311.4 66.01 309.48C70.22 307.42 74.61 305.82 78.8 305.98C82.4614 306.22 85.9911 307.439 89.02 309.51C91.0627 310.845 93.0016 312.332 94.82 313.96L95.55 314.61V302.17C94.0145 301.32 92.4165 300.588 90.77 299.98C85.9078 298.205 80.7192 297.502 75.56 297.92C72.5237 298.181 69.5402 298.875 66.7 299.98C63.6689 301.241 60.7402 302.736 57.94 304.45C55.108 306.179 52.1339 307.665 49.05 308.89C46.1128 309.896 43.0505 310.492 39.95 310.66C34.04 311.01 28.76 310.41 24.33 310.34C20.8377 310.186 17.3393 310.424 13.9 311.05C13.29 311.18 12.75 311.27 12.29 311.39L11.13 311.73C10.8047 311.84 10.47 311.92 10.13 311.97C10.4297 311.825 10.7407 311.704 11.06 311.61L12.21 311.21C12.67 311.07 13.21 310.96 13.81 310.81C17.2606 310.085 20.7861 309.779 24.31 309.9C28.76 309.9 34.05 310.46 39.88 310.08C42.9391 309.899 45.9581 309.293 48.85 308.28C51.8962 307.058 54.8361 305.586 57.64 303.88C60.4616 302.14 63.4216 300.634 66.49 299.38C69.3749 298.261 72.4061 297.564 75.49 297.31C80.734 296.907 86.0023 297.665 90.92 299.53C92.5171 300.14 94.065 300.872 95.55 301.72V293.72H56.05C55.79 293.94 55.45 294.22 54.99 294.58C54.3931 295.071 53.7687 295.529 53.12 295.95C52.37 296.45 51.53 297.06 50.53 297.61C49.4715 298.262 48.3801 298.86 47.26 299.4C46.08 300.03 44.75 300.57 43.36 301.16C40.3085 302.346 37.1601 303.266 33.95 303.91C30.7311 304.52 27.4659 304.855 24.19 304.91C22.68 304.91 21.25 304.91 19.91 304.73C18.6701 304.645 17.4352 304.498 16.21 304.29C15.08 304.15 14.08 303.89 13.21 303.71C12.4524 303.561 11.7044 303.368 10.97 303.13L10.13 302.88V322.05C10.8 321.82 11.68 321.56 12.75 321.3C19.4798 319.675 26.5085 319.754 33.2 321.53C34.2156 321.795 35.2169 322.112 36.2 322.48C36.553 322.595 36.8893 322.756 37.2 322.96C37.2 323.06 35.62 322.54 33.07 321.96C29.7513 321.207 26.3627 320.805 22.96 320.76C19.558 320.744 16.1634 321.079 12.83 321.76C11.71 321.99 10.83 322.2 10.11 322.37V329.88C11.1945 329.674 12.3042 329.637 13.4 329.77ZM65.9 318.03C66.0184 317.766 66.1964 317.533 66.42 317.35C66.8257 317.013 67.295 316.761 67.8 316.61C74.2735 314.662 81.2132 314.94 87.51 317.4C89.3996 318.131 91.2037 319.067 92.89 320.19C93.5 320.57 93.89 320.94 94.22 321.19C94.55 321.44 94.67 321.55 94.65 321.57C92.3516 320.087 89.9092 318.841 87.36 317.85C84.5749 316.832 81.6589 316.215 78.7 316.02C75.0823 315.777 71.4505 316.19 67.98 317.24C67.5581 317.365 67.1666 317.576 66.83 317.86C66.6806 317.953 66.5645 318.092 66.4981 318.255C66.4317 318.418 66.4184 318.598 66.46 318.77C66.69 319.4 67.82 319.45 68.67 319.66L73.85 320.72L82.61 322.54L88.51 323.83L90.1 324.21C90.2911 324.237 90.4767 324.295 90.65 324.38C90.4586 324.394 90.266 324.377 90.08 324.33L88.46 324.07L82.56 322.95L73.73 321.28L68.56 320.28C68.1 320.19 67.67 320.12 67.18 320C66.899 319.949 66.6342 319.832 66.408 319.658C66.1817 319.484 66.0006 319.258 65.88 319C65.8168 318.845 65.786 318.68 65.7894 318.513C65.7929 318.346 65.8305 318.181 65.9 318.03ZM28.05 325.41C29.6893 326.312 31.3902 327.097 33.14 327.76C38.9259 329.939 45.1585 330.664 51.29 329.87C58.51 329.02 64.29 325.37 68.96 324.34C70.7838 323.85 72.6753 323.661 74.56 323.78C75.0749 323.814 75.5863 323.888 76.09 324C76.2667 324.029 76.4384 324.083 76.6 324.16C76.6 324.22 75.87 324.05 74.6 324.02C72.7332 323.998 70.8734 324.251 69.08 324.77C66.4226 325.581 63.8205 326.563 61.29 327.71C58.133 329.086 54.8018 330.021 51.39 330.49C45.1592 331.309 38.8223 330.51 32.99 328.17C31.2329 327.467 29.5399 326.614 27.93 325.62C27.339 325.26 26.7743 324.859 26.24 324.42C26.8696 324.699 27.475 325.03 28.05 325.41Z" fill="#F5F5F5"/>
<path d="M22.65 368.22C26.79 369.22 31.53 371.1 36.99 372.37C42.9095 373.766 48.9681 374.487 55.05 374.52C68.05 374.85 79.32 370.29 87.98 370.68C90.5575 370.707 93.1175 371.108 95.58 371.87V359.77L93.04 360.08C89.4 360.44 84.4 361.15 78.79 361.27C76.1516 361.332 73.5132 361.144 70.91 360.71C68.7795 360.348 66.6964 359.747 64.7 358.92C63.3571 358.359 62.0767 357.658 60.88 356.83C60.5525 356.609 60.2386 356.368 59.94 356.11C59.73 355.94 59.63 355.84 59.64 355.82C61.3081 356.853 63.0572 357.749 64.87 358.5C66.8496 359.262 68.9045 359.811 71 360.14C73.5738 360.533 76.1771 360.701 78.78 360.64C84.33 360.53 89.35 359.88 92.99 359.64L95.58 359.45V330.1C95.04 330.033 94.3734 329.963 93.58 329.89C90.423 329.608 87.2471 329.608 84.09 329.89C79.3915 330.371 74.7309 331.17 70.14 332.28C64.95 333.43 59.29 334.95 53.22 336.03C47.5156 337.149 41.6853 337.485 35.89 337.03C33.3632 336.788 30.8653 336.306 28.43 335.59C26.3331 334.905 24.2822 334.087 22.29 333.14C18.64 331.43 15.6 330.26 13.36 329.99C12.2851 329.822 11.1943 329.782 10.11 329.87V350.64C10.26 350.45 10.43 350.27 10.61 350.08C12.26 348.41 15.36 346.88 19.35 345.84C23.34 344.8 28.26 344.38 33.63 343.68C39.4329 342.778 45.1545 341.413 50.74 339.6C56.3546 337.765 62.0923 336.331 67.91 335.31C72.6833 334.582 77.5164 334.324 82.34 334.54C85.5853 334.696 88.8161 335.073 92.01 335.67C93.14 335.89 94.01 336.08 94.6 336.23C94.9029 336.289 95.2005 336.373 95.49 336.48C95.1832 336.474 94.878 336.433 94.58 336.36C93.98 336.24 93.1 336.1 91.97 335.91C88.7754 335.404 85.5526 335.097 82.32 334.99C77.5289 334.833 72.7338 335.134 68 335.89C62.2152 336.936 56.5086 338.376 50.92 340.2C45.3016 342.03 39.5422 343.394 33.7 344.28C28.3 344.95 23.42 345.28 19.46 346.28C15.5 347.28 12.46 348.7 10.79 350.28C10.5426 350.499 10.3151 350.74 10.11 351V359.72L10.42 359.88L12.68 361.08C15.4665 362.508 18.3272 363.786 21.25 364.91C30.9208 368.628 41.1992 370.513 51.56 370.47C63.72 370.61 74.26 366.86 82.23 366.12C85.3628 365.726 88.5343 365.753 91.66 366.2L93.12 366.47L94.12 366.74C94.4166 366.794 94.7054 366.885 94.98 367.01C94.6793 366.988 94.3813 366.938 94.09 366.86L93.03 366.65L91.58 366.45C88.4709 366.093 85.329 366.133 82.23 366.57C78.29 367.03 73.68 368.1 68.53 369.2C52.6764 372.696 36.138 371.348 21.06 365.33C18.1479 364.152 15.3094 362.799 12.56 361.28L10.36 359.97L10.11 359.81V367.37C10.9442 367.194 11.7896 367.077 12.64 367.02C16.0196 366.877 19.4 367.282 22.65 368.22ZM46.84 348.65C43.5023 350.313 40.3081 352.249 37.29 354.44C37.0003 354.623 36.7585 354.873 36.5847 355.169C36.4108 355.465 36.3098 355.797 36.29 356.14C36.3325 356.444 36.4575 356.73 36.6514 356.968C36.8454 357.206 37.1008 357.387 37.39 357.49C38.3896 357.853 39.4722 357.922 40.51 357.69C41.2025 357.582 41.9094 357.613 42.59 357.78C42.8245 357.837 43.0432 357.947 43.23 358.1C43.23 358.1 43 358 42.55 357.9C41.8891 357.776 41.2109 357.776 40.55 357.9C39.4622 358.186 38.3142 358.144 37.25 357.78C36.8937 357.661 36.5781 357.444 36.3393 357.154C36.1005 356.864 35.9483 356.512 35.9 356.14C35.9105 355.725 36.0227 355.32 36.2267 354.959C36.4307 354.598 36.7203 354.292 37.07 354.07C40.0764 351.791 43.279 349.783 46.64 348.07C50.749 346.031 55.0589 344.426 59.5 343.28C67.6225 341.164 76.0769 340.634 84.4 341.72C85.99 341.96 87.4 342.15 88.66 342.46C89.92 342.77 90.99 342.94 91.84 343.21L93.84 343.8C94.0755 343.857 94.3036 343.941 94.52 344.05C94.2796 344.03 94.0417 343.987 93.81 343.92L91.81 343.45C90.95 343.21 89.87 343.04 88.63 342.8C87.39 342.56 85.95 342.38 84.37 342.17C71.5084 340.692 58.4929 342.938 46.87 348.64L46.84 348.65ZM56.08 356.79C55.5857 356.831 55.0882 356.807 54.6 356.72C54.1891 356.667 53.7955 356.522 53.449 356.295C53.1025 356.068 52.8122 355.765 52.6 355.41C52.4606 355.179 52.3747 354.92 52.3487 354.652C52.3228 354.384 52.3574 354.113 52.45 353.86C52.7068 353.344 53.0884 352.901 53.56 352.57C55.6008 350.811 57.9144 349.395 60.41 348.38C63.4629 347.143 66.6934 346.4 69.98 346.18C75.9667 345.879 81.9511 346.815 87.56 348.93C89.71 349.7 91.4 350.44 92.56 350.93C93.14 351.19 93.56 351.42 93.88 351.57C94.2 351.72 94.33 351.82 94.32 351.84C93.6886 351.655 93.0705 351.428 92.47 351.16C91.29 350.69 89.58 350.02 87.47 349.31C81.9079 347.353 76.0197 346.49 70.13 346.77C66.9069 346.986 63.7364 347.698 60.73 348.88C58.2713 349.849 55.98 351.199 53.94 352.88C53.5266 353.165 53.1845 353.541 52.94 353.98C52.8648 354.181 52.834 354.396 52.8495 354.61C52.865 354.824 52.9266 355.032 53.03 355.22C53.2072 355.54 53.4536 355.816 53.7511 356.029C54.0487 356.242 54.3899 356.385 54.75 356.45C55.96 356.7 56.69 356.62 56.68 356.69C56.4898 356.767 56.2849 356.801 56.08 356.79Z" fill="#F5F5F5"/>
<path d="M13.36 330.01C15.6 330.28 18.64 331.45 22.29 333.16C24.2822 334.107 26.3331 334.925 28.43 335.61C30.8653 336.326 33.3632 336.808 35.89 337.05C41.6853 337.505 47.5156 337.169 53.22 336.05C59.29 334.97 64.95 333.45 70.14 332.3C74.7187 331.205 79.3659 330.42 84.05 329.95C87.2071 329.668 90.383 329.668 93.54 329.95C94.36 330.023 95.0267 330.093 95.54 330.16V330C95.01 329.9 94.34 329.79 93.54 329.7C90.3658 329.341 87.1645 329.287 83.98 329.54C79.2666 329.952 74.5882 330.697 69.98 331.77C64.76 332.89 59.1 334.4 53.07 335.47C47.4228 336.586 41.6517 336.943 35.91 336.53C33.4215 336.284 30.961 335.809 28.56 335.11C26.4768 334.449 24.4362 333.661 22.45 332.75C18.78 331.09 15.65 329.97 13.38 329.75C12.2873 329.597 11.1776 329.614 10.09 329.8V329.87C11.1817 329.787 12.2794 329.834 13.36 330.01Z" fill="#EBEBEB"/>
<path d="M13.19 303.68C14.08 303.86 15.08 304.12 16.19 304.26C17.4152 304.468 18.6501 304.615 19.89 304.7C21.23 304.85 22.66 304.85 24.17 304.88C27.4459 304.825 30.7111 304.49 33.93 303.88C37.1401 303.236 40.2885 302.316 43.34 301.13C44.73 300.54 46.06 300 47.24 299.37C48.376 298.848 49.4842 298.267 50.56 297.63C51.56 297.08 52.4 296.47 53.15 295.97C53.7987 295.549 54.4231 295.091 55.02 294.6C55.48 294.24 55.82 293.96 56.08 293.74H55.83L54.83 294.4C54.32 294.77 53.69 295.22 52.91 295.68C52.13 296.14 51.31 296.73 50.3 297.25C49.29 297.77 48.23 298.4 47.02 298.95C45.81 299.5 44.52 300.07 43.14 300.64C40.1132 301.77 36.9997 302.653 33.83 303.28C30.6458 303.875 27.4185 304.209 24.18 304.28C22.69 304.28 21.27 304.28 19.95 304.16C18.63 304.04 17.39 303.95 16.27 303.8C15.15 303.65 14.15 303.47 13.27 303.32C12.39 303.17 11.63 303 11.02 302.85L10.12 302.64V302.83L10.96 303.08C11.6907 303.324 12.4353 303.525 13.19 303.68Z" fill="#EBEBEB"/>
<path d="M75.56 297.34C72.4761 297.594 69.4449 298.291 66.56 299.41C63.4916 300.664 60.5316 302.17 57.71 303.91C54.9061 305.616 51.9661 307.088 48.92 308.31C46.0394 309.309 43.0341 309.905 39.99 310.08C34.16 310.46 28.87 309.91 24.42 309.9C20.8961 309.779 17.3706 310.085 13.92 310.81C13.32 310.96 12.78 311.07 12.32 311.21L11.17 311.61C10.8507 311.704 10.5397 311.825 10.24 311.97C10.58 311.92 10.9147 311.84 11.24 311.73L12.4 311.39C12.86 311.27 13.4 311.18 14.01 311.05C17.4493 310.424 20.9477 310.186 24.44 310.34C28.87 310.41 34.15 311.01 40.06 310.66C43.1604 310.492 46.2228 309.896 49.16 308.89C52.2439 307.665 55.218 306.179 58.05 304.45C60.8502 302.736 63.7789 301.241 66.81 299.98C69.6152 298.885 72.5609 298.191 75.56 297.92C80.7259 297.499 85.9216 298.202 90.79 299.98C92.4365 300.588 94.0345 301.32 95.57 302.17V301.75C94.085 300.902 92.5371 300.17 90.94 299.56C86.0378 297.702 80.7874 296.944 75.56 297.34Z" fill="#EBEBEB"/>
<path d="M89.05 309.54C86.0211 307.469 82.4914 306.25 78.83 306.01C74.64 305.85 70.25 307.45 66.04 309.51C62.0642 311.432 58.2281 313.631 54.56 316.09C52.92 317.23 51.08 318.23 50.27 320.09C50.0708 320.533 50.0035 321.025 50.0763 321.505C50.149 321.986 50.3586 322.435 50.68 322.8C51.2631 323.405 51.9689 323.879 52.75 324.19C54.9833 325.223 57.4009 325.797 59.86 325.88C60.5271 325.905 61.1951 325.888 61.86 325.83C62.0945 325.822 62.3267 325.782 62.55 325.71C62.55 325.71 61.55 325.76 59.89 325.64C57.4803 325.462 55.1257 324.831 52.95 323.78C52.2357 323.489 51.5914 323.049 51.06 322.49C50.7983 322.194 50.6301 321.827 50.5767 321.435C50.5233 321.044 50.5871 320.645 50.76 320.29C51.46 318.72 53.23 317.72 54.89 316.6C58.5712 314.189 62.4061 312.021 66.37 310.11C70.55 308.06 74.83 306.49 78.86 306.62C82.4289 306.828 85.8791 307.977 88.86 309.95C90.9078 311.241 92.8717 312.66 94.74 314.2L95.63 314.92V314.67L94.9 314.02C93.0666 312.38 91.111 310.882 89.05 309.54Z" fill="#EBEBEB"/>
<path d="M67.17 319.95C67.66 320.07 68.09 320.14 68.55 320.23L73.73 321.23L82.52 322.93L88.46 324.02L90.08 324.28C90.266 324.327 90.4586 324.344 90.65 324.33C90.4767 324.245 90.2911 324.187 90.1 324.16L88.51 323.78L82.61 322.49L73.85 320.67L68.67 319.61C67.82 319.4 66.67 319.35 66.46 318.72C66.4184 318.548 66.4317 318.368 66.4981 318.205C66.5645 318.042 66.6806 317.903 66.83 317.81C67.1666 317.526 67.5581 317.315 67.98 317.19C71.4505 316.14 75.0823 315.727 78.7 315.97C81.6589 316.165 84.5749 316.782 87.36 317.8C89.9092 318.791 92.3517 320.037 94.65 321.52C94.65 321.52 94.52 321.37 94.22 321.14C93.92 320.91 93.5 320.55 92.89 320.14C91.2037 319.017 89.3996 318.081 87.51 317.35C81.2132 314.89 74.2735 314.612 67.8 316.56C67.295 316.711 66.8257 316.963 66.42 317.3C66.1964 317.483 66.0184 317.716 65.9 317.98C65.78 318.275 65.78 318.605 65.9 318.9C66.0114 319.164 66.1851 319.398 66.4062 319.581C66.6273 319.763 66.8894 319.89 67.17 319.95Z" fill="#EBEBEB"/>
<path d="M22.96 320.74C26.3627 320.785 29.7513 321.187 33.07 321.94C35.62 322.51 37.17 323.03 37.2 322.94C36.8893 322.736 36.553 322.575 36.2 322.46C35.2169 322.092 34.2156 321.775 33.2 321.51C26.5021 319.731 19.4662 319.652 12.73 321.28C11.66 321.54 10.73 321.8 10.11 322.03V322.28C10.8 322.11 11.71 321.9 12.83 321.67C16.1658 321.013 19.5604 320.701 22.96 320.74Z" fill="#EBEBEB"/>
<path d="M19.46 346.28C23.46 345.28 28.3 344.94 33.7 344.28C39.5416 343.401 45.301 342.043 50.92 340.22C56.5086 338.396 62.2152 336.956 68 335.91C72.7338 335.154 77.5289 334.853 82.32 335.01C85.5526 335.117 88.7754 335.424 91.97 335.93C93.1 336.12 93.97 336.26 94.58 336.38C94.8779 336.453 95.1832 336.494 95.49 336.5C95.1866 336.401 94.8755 336.327 94.56 336.28C93.98 336.13 93.1 335.94 91.97 335.72C88.7762 335.123 85.5453 334.746 82.3 334.59C77.4764 334.374 72.6433 334.632 67.87 335.36C62.0523 336.381 56.3146 337.815 50.7 339.65C45.1145 341.463 39.3929 342.828 33.59 343.73C28.22 344.43 23.31 344.81 19.31 345.89C15.31 346.97 12.22 348.46 10.57 350.13C10.39 350.32 10.22 350.5 10.07 350.69V351.03C10.275 350.77 10.5026 350.529 10.75 350.31C12.43 348.71 15.5 347.28 19.46 346.28Z" fill="#EBEBEB"/>
<path d="M27.92 325.62C29.5299 326.614 31.2229 327.467 32.98 328.17C38.8123 330.51 45.1492 331.309 51.38 330.49C54.7918 330.021 58.123 329.086 61.28 327.71C63.8105 326.563 66.4126 325.581 69.07 324.77C70.8634 324.251 72.7232 323.998 74.59 324.02C75.91 324.02 76.59 324.22 76.59 324.16C76.4284 324.083 76.2567 324.029 76.08 324C75.5796 323.888 75.0715 323.815 74.56 323.78C72.662 323.656 70.7567 323.846 68.92 324.34C64.2 325.34 58.47 329.02 51.25 329.87C45.1185 330.664 38.8858 329.939 33.1 327.76C31.3502 327.097 29.6493 326.312 28.01 325.41C27.4322 325.026 26.8234 324.692 26.19 324.41C26.7368 324.854 27.3149 325.259 27.92 325.62Z" fill="#EBEBEB"/>
<path d="M84.34 342.18C85.92 342.39 87.34 342.55 88.6 342.81C89.86 343.07 90.92 343.22 91.78 343.46L93.78 343.93C94.0117 343.997 94.2496 344.04 94.49 344.06C94.2736 343.951 94.0455 343.867 93.81 343.81L91.81 343.22C90.96 342.95 89.88 342.74 88.63 342.47C87.38 342.2 85.96 341.97 84.37 341.73C76.0574 340.645 67.6136 341.171 59.5 343.28C55.0292 344.44 50.6922 346.066 46.56 348.13C43.1989 349.843 39.9964 351.851 36.99 354.13C36.6403 354.352 36.3507 354.658 36.1467 355.019C35.9427 355.38 35.8305 355.785 35.82 356.2C35.8683 356.572 36.0205 356.924 36.2593 357.214C36.498 357.504 36.8137 357.721 37.17 357.84C38.2342 358.204 39.3822 358.246 40.47 357.96C41.1309 357.836 41.8091 357.836 42.47 357.96C42.92 358.06 43.14 358.19 43.15 358.16C42.9632 358.007 42.7445 357.897 42.51 357.84C41.8294 357.673 41.1225 357.642 40.43 357.75C39.3922 357.982 38.3096 357.913 37.31 357.55C37.0208 357.447 36.7654 357.266 36.5714 357.028C36.3775 356.79 36.2525 356.504 36.21 356.2C36.2298 355.857 36.3308 355.525 36.5046 355.229C36.6785 354.933 36.9203 354.683 37.21 354.5C50.8092 344.675 67.5955 340.301 84.26 342.24L84.34 342.18Z" fill="#EBEBEB"/>
<path d="M52.94 355.28C52.8366 355.092 52.775 354.884 52.7595 354.67C52.744 354.456 52.7748 354.241 52.85 354.04C53.0945 353.601 53.4366 353.225 53.85 352.94C55.89 351.259 58.1813 349.91 60.64 348.94C63.6464 347.758 66.8169 347.046 70.04 346.83C75.9297 346.55 81.8179 347.413 87.38 349.37C89.53 350.08 91.24 350.75 92.38 351.22C92.9805 351.488 93.5986 351.716 94.23 351.9C94.23 351.9 94.09 351.79 93.79 351.63C93.49 351.47 93.05 351.25 92.47 350.99C91.32 350.46 89.63 349.72 87.47 348.99C81.8767 346.882 75.91 345.946 69.94 346.24C66.6534 346.46 63.4229 347.203 60.37 348.44C57.8925 349.441 55.5929 350.836 53.56 352.57C53.0884 352.901 52.7068 353.344 52.45 353.86C52.3574 354.113 52.3227 354.384 52.3487 354.652C52.3747 354.92 52.4605 355.179 52.6 355.41C52.8121 355.766 53.1025 356.068 53.449 356.295C53.7955 356.522 54.1891 356.667 54.6 356.72C55.0882 356.807 55.5857 356.831 56.08 356.79C56.2529 356.798 56.4258 356.774 56.59 356.72C56.59 356.65 55.87 356.72 54.66 356.48C54.3026 356.419 53.9631 356.28 53.6657 356.072C53.3684 355.865 53.1205 355.594 52.94 355.28Z" fill="#EBEBEB"/>
<path d="M12.56 361.28C15.3203 362.783 18.1688 364.119 21.09 365.28C36.1629 371.314 52.7014 372.68 68.56 369.2C73.71 368.1 78.32 367.03 82.26 366.57C85.359 366.133 88.5009 366.093 91.61 366.45L93.06 366.65L94.12 366.86C94.4113 366.938 94.7093 366.988 95.01 367.01C94.7354 366.885 94.4466 366.794 94.15 366.74L93.15 366.47L91.69 366.2C88.5643 365.753 85.3928 365.726 82.26 366.12C74.26 366.86 63.75 370.61 51.59 370.47C41.2359 370.511 30.9646 368.625 21.3 364.91C18.3772 363.786 15.5165 362.508 12.73 361.08L10.47 359.88L10.16 359.72V359.83L10.41 359.99L12.56 361.28Z" fill="#EBEBEB"/>
<path d="M78.78 360.64C76.1771 360.701 73.5738 360.533 71 360.14C68.9044 359.811 66.8496 359.262 64.87 358.5C63.0572 357.749 61.3081 356.853 59.64 355.82C59.64 355.82 59.73 355.94 59.94 356.11C60.2386 356.368 60.5525 356.609 60.88 356.83C62.0767 357.658 63.3571 358.359 64.7 358.92C66.6964 359.747 68.7795 360.348 70.91 360.71C73.5132 361.144 76.1516 361.332 78.79 361.27C84.4 361.15 89.4 360.44 93.04 360.08L95.58 359.77V359.44L92.99 359.63C89.35 359.88 84.33 360.53 78.78 360.64Z" fill="#EBEBEB"/>
<path d="M22.56 368.66C26.66 369.73 31.38 371.66 36.88 372.94C42.8377 374.376 48.9417 375.118 55.07 375.15C68.21 375.47 79.5 370.84 88 371.15C90.5739 371.154 93.1349 371.514 95.61 372.22V371.9C93.1475 371.138 90.5875 370.737 88.01 370.71C79.35 370.32 68.08 374.88 55.08 374.55C48.9981 374.517 42.9395 373.796 37.02 372.4C31.56 371.13 26.82 369.29 22.68 368.25C19.4321 367.32 16.0552 366.922 12.68 367.07C11.8295 367.127 10.9842 367.244 10.15 367.42V367.55C10.992 367.427 11.8398 367.347 12.69 367.31C16.0296 367.253 19.3582 367.708 22.56 368.66Z" fill="#EBEBEB"/>
<path d="M20.01 382.09C24.6158 380.111 29.5502 379.009 34.56 378.84C40.23 378.59 46.45 379.42 52.98 380.24C56.24 380.64 59.44 380.98 62.55 381.11C65.5522 381.232 68.5592 381.148 71.55 380.86C77.22 380.34 82.34 379.86 86.55 380.5C89.7617 380.902 92.8396 382.03 95.55 383.8V383.48C92.8789 381.67 89.8266 380.499 86.63 380.06C82.33 379.32 77.14 379.79 71.48 380.28C68.5252 380.558 65.5546 380.628 62.59 380.49C59.51 380.36 56.32 380.01 53.06 379.61C46.56 378.8 40.32 377.98 34.56 378.28C29.4693 378.47 24.4622 379.634 19.81 381.71C16.6794 383.091 13.7469 384.883 11.09 387.04C10.71 387.34 10.39 387.62 10.09 387.88V388.13L11.24 387.23C13.9436 385.166 16.8886 383.44 20.01 382.09Z" fill="#EBEBEB"/>
<path d="M52.7 387.47C48.7112 386.588 44.6445 386.105 40.56 386.03C37.2142 385.995 33.8825 386.47 30.68 387.44C28.5902 388.088 26.6035 389.031 24.78 390.24H25.26C27.0084 389.23 28.8718 388.435 30.81 387.87C33.98 386.971 37.2656 386.546 40.56 386.61C44.5981 386.718 48.6166 387.214 52.56 388.09C56.11 388.81 59.49 389.61 62.67 390.24H65.8L64.56 390.03C60.92 389.33 56.93 388.33 52.7 387.47Z" fill="#EBEBEB"/>
<path d="M71.96 324.61H10.11V325.82H71.96V324.61Z" fill="#E0E0E0"/>
<path d="M71.97 356.45H10.11V357.66H71.97V356.45Z" fill="#E0E0E0"/>
<path d="M48.08 325.22H35.01V327.99H48.08V325.22Z" fill="#E0E0E0"/>
<path d="M48.08 293.74H35.01V296.51H48.08V293.74Z" fill="#E0E0E0"/>
<path d="M48.08 356.89H35.01V359.66H48.08V356.89Z" fill="#E0E0E0"/>
<path d="M95.58 293.74H71.96V390.29H95.58V293.74Z" fill="#EBEBEB"/>
<path d="M18.45 253.99H10.11V293.74H18.45V253.99Z" fill="#EBEBEB"/>
<path d="M28.51 258.04H22.69V293.75H28.51V258.04Z" fill="#EBEBEB"/>
<path d="M22.69 258.04H18.45V293.75H22.69V258.04Z" fill="#E0E0E0"/>
<path d="M32.8 262.14H28.5V293.75H32.8V262.14Z" fill="#F5F5F5"/>
<path d="M41.9 251.31H32.8V293.74H41.9V251.31Z" fill="#EBEBEB"/>
<path d="M48.33 275L47.47 278.58L48.33 279.87V282.01L47.47 284.01L48.33 284.73V289.73L47.47 290.3L48.33 291.02V293.73H94.26V290.44L93.4 288.87L94.26 281.72L93.56 278.28C93.2468 277.691 93.0051 277.066 92.84 276.42C92.84 275.99 92.99 274.99 92.99 274.99L48.33 275Z" fill="#EBEBEB"/>
<g opacity="0.24">
<path d="M71.96 293.74L70.86 288.56L71.96 286.42V284.37L70.86 283.3L71.96 281.66V275H92.97L92.83 276.43L93.54 278.29L94.26 281.72L93.4 288.88L94.26 290.45V293.74H71.96Z" fill="#E0E0E0"/>
</g>
<path d="M458.86 390.28C458.86 390.43 356.14 390.54 229.44 390.54C102.74 390.54 0 390.47 0 390.28C0 390.09 102.71 390.02 229.44 390.02C356.17 390.02 458.86 390.18 458.86 390.28Z" fill="#263238"/>
<path d="M140.964 98.9722L106.934 99.1088L107.107 142.078L141.136 141.942L140.964 98.9722Z" fill="white"/>
<path d="M107.12 142.06H107.76H109.59L116.5 141.97L141.15 141.76L140.94 141.98C140.87 129.7 140.8 114.92 140.72 98.9797C140.66 98.9097 141.21 99.4597 140.97 99.2297H136.41H131.91H123.16H106.95L107.18 98.9997C107.18 111.71 107.18 122.42 107.18 130C107.18 133.76 107.18 136.74 107.18 138.81C107.18 139.81 107.18 140.6 107.18 141.16C107.18 141.41 107.18 141.61 107.18 141.77C107.184 141.84 107.184 141.91 107.18 141.98C107.174 141.92 107.174 141.86 107.18 141.8C107.18 141.64 107.18 141.45 107.18 141.21C107.18 140.66 107.18 139.9 107.18 138.91C107.18 136.85 107.13 133.91 107.08 130.15C107.02 122.56 106.94 111.8 106.84 99.0197V98.7897H107.07L123.29 98.6997H132.04H136.54H141.1L141.37 98.9597C141.37 114.87 141.46 129.65 141.5 141.96V142.18H116.5H109.64H107.85C107.31 142.08 107.12 142.06 107.12 142.06Z" fill="#263238"/>
<path d="M126.708 141.016L121.988 141.034L121.993 142.184L126.713 142.166L126.708 141.016Z" fill="#263238"/>
<path d="M129.394 114.049L119.074 114.09L119.134 129L129.454 128.959L129.394 114.049Z" fill="#FF725E"/>
<path opacity="0.5" d="M129.394 114.049L119.074 114.09L119.134 129L129.454 128.959L129.394 114.049Z" fill="#B9A5FF"/>
<path d="M127.202 98.4278L122.482 98.4467L122.486 99.4267L127.206 99.4078L127.202 98.4278Z" fill="#263238"/>
<path d="M215.79 95.7998C228.404 95.7998 238.63 85.5739 238.63 72.9597C238.63 60.3456 228.404 50.1198 215.79 50.1198C203.176 50.1198 192.95 60.3456 192.95 72.9597C192.95 85.5739 203.176 95.7998 215.79 95.7998Z" fill="#534741"/>
<path d="M226.28 73.6597C225.287 73.8015 224.283 73.8583 223.28 73.8297C221.39 73.8297 218.77 73.9097 215.81 73.9197H215.56V72.1797C215.56 68.8697 215.56 65.8797 215.63 63.7097C215.606 62.5366 215.67 61.3634 215.82 60.1997C215.963 61.364 216.023 62.5369 216 63.7097C216.05 65.8797 216.08 68.8697 216.08 72.1797V73.6597L215.82 73.3997C218.82 73.3997 221.4 73.3997 223.29 73.4897C224.29 73.4617 225.29 73.5185 226.28 73.6597Z" fill="white"/>
<path d="M215.86 53.8698C216 53.8698 216.12 54.7298 216.12 55.7898C216.12 56.8498 216 57.7098 215.86 57.7098C215.72 57.7098 215.6 56.8498 215.6 55.7898C215.6 54.7298 215.71 53.8698 215.86 53.8698Z" fill="white"/>
<path d="M226.26 56.9497C226.37 57.0497 225.85 57.7297 225.11 58.4697C224.37 59.2097 223.69 59.7297 223.59 59.6297C223.49 59.5297 224 58.8397 224.74 58.0997C225.48 57.3597 226.16 56.8497 226.26 56.9497Z" fill="white"/>
<path d="M232.35 63.5997C232.41 63.7297 231.71 64.2097 230.83 64.7497C229.95 65.2897 229.2 65.6797 229.12 65.5597C229.04 65.4397 229.66 64.8497 230.56 64.2997C231.46 63.7497 232.29 63.4697 232.35 63.5997Z" fill="white"/>
<path d="M235.91 73.4597C234.184 73.8064 232.406 73.8064 230.68 73.4597C232.406 73.113 234.184 73.113 235.91 73.4597Z" fill="white"/>
<path d="M199.64 73.1097C198.012 73.4565 196.328 73.4565 194.7 73.1097C196.328 72.763 198.012 72.763 199.64 73.1097Z" fill="white"/>
<path d="M202.2 80.4597C202.3 80.5697 201.49 81.3597 200.41 82.2397C199.33 83.1197 198.41 83.7297 198.28 83.6097C198.15 83.4897 199 82.6997 200.08 81.8297C200.687 81.2345 201.408 80.7684 202.2 80.4597Z" fill="white"/>
<path d="M208.56 86.1398C208.29 86.9495 207.896 87.7121 207.39 88.3998C206.67 89.5898 206.08 90.5598 205.94 90.4898C206.085 89.636 206.427 88.8278 206.94 88.1298C207.64 86.9098 208.42 86.0498 208.56 86.1398Z" fill="white"/>
<path d="M215.86 93.4597C215.513 91.7336 215.513 89.9558 215.86 88.2297C216.207 89.9558 216.207 91.7336 215.86 93.4597Z" fill="white"/>
<path d="M227.13 89.9797C226.283 89.7023 225.518 89.2216 224.9 88.5797C223.8 87.5797 223.11 86.6497 223.22 86.5797C223.953 87.0355 224.626 87.5833 225.22 88.2097C226.31 89.1197 227.22 89.8497 227.13 89.9797Z" fill="white"/>
<path d="M232.43 84.2797C232.32 84.3797 231.51 83.7297 230.61 82.8297C229.71 81.9297 229.07 81.1197 229.17 81.0197C229.27 80.9197 230.08 81.5597 230.98 82.4597C231.88 83.3597 232.56 84.1697 232.43 84.2797Z" fill="white"/>
<path d="M201.96 66.0798C201.86 66.1798 201.14 65.6298 200.35 64.8398C199.56 64.0498 199.01 63.3297 199.11 63.2297C199.21 63.1297 199.94 63.6798 200.72 64.4698C201.5 65.2598 202.06 65.9798 201.96 66.0798Z" fill="white"/>
<path d="M208.49 59.1997C208.39 59.2997 207.68 58.7597 206.91 57.9897C206.14 57.2197 205.6 56.5197 205.7 56.4097C205.8 56.2997 206.51 56.8497 207.28 57.6197C208.05 58.3897 208.56 59.0997 208.49 59.1997Z" fill="white"/>
<path d="M321.408 142.411L286.515 145.722L288.746 169.236L323.639 165.926L321.408 142.411Z" fill="white"/>
<path d="M323.64 165.93C323.603 165.786 323.579 165.638 323.57 165.49C323.57 165.17 323.49 164.76 323.43 164.23C323.31 163.11 323.14 161.51 322.92 159.49C322.51 155.38 321.92 149.49 321.2 142.43L321.42 142.62L286.56 145.98C286.51 146.04 287 145.45 286.8 145.7V145.87V146.07V146.46L286.87 147.24L287.02 148.8C287.12 149.8 287.22 150.86 287.31 151.88C287.5 153.88 287.69 155.88 287.88 157.88C288.25 161.82 288.6 165.6 288.93 169.19L288.67 168.97L313.76 166.71L320.97 166.09L322.9 165.94H323.4H323.59C323.382 165.984 323.172 166.014 322.96 166.03L321.08 166.24L313.94 166.98L288.72 169.49H288.48V169.25C288.13 165.67 287.77 161.89 287.39 157.95C287.203 155.95 287.013 153.95 286.82 151.95L286.52 148.87L286.37 147.31L286.3 146.53V146.14V145.94V145.77L286.53 145.49L321.42 142.23H321.63V142.44C322.27 149.61 322.79 155.5 323.15 159.64C323.32 161.64 323.45 163.23 323.55 164.35C323.55 164.86 323.62 165.26 323.64 165.57C323.66 165.88 323.64 165.94 323.64 165.93Z" fill="#263238"/>
<path d="M321.4 142.41C321.088 142.884 320.733 143.33 320.34 143.74L317.34 147.26C314.74 150.26 311.11 154.26 307.04 158.82L306.89 158.99L306.7 158.87L305.77 158.28C300.43 154.87 295.61 151.76 292.13 149.49L288.03 146.78L286.93 146.02C286.683 145.84 286.563 145.74 286.57 145.72C286.717 145.774 286.858 145.844 286.99 145.93L288.14 146.61L292.33 149.18C295.86 151.37 300.71 154.43 306.05 157.84L306.98 158.43H306.65C310.72 153.91 314.4 149.87 317.07 146.98L320.24 143.57C320.603 143.16 320.991 142.773 321.4 142.41Z" fill="#263238"/>
<path d="M318.55 26.8297H274.31V92.6697H318.55V26.8297Z" fill="#B9A5FF"/>
<path opacity="0.3" d="M318.55 26.8297H274.31V92.6697H318.55V26.8297Z" fill="black"/>
<path d="M319.06 93.1797H273.79V26.2797H319.06V93.1797ZM274.82 92.1797H318.03V27.3397H274.82V92.1797Z" fill="#263238"/>
<path d="M314.17 30.8897H278.76V88.5697H314.17V30.8897Z" fill="white"/>
<path d="M306.36 47.2397H286.48V70.5397H306.36V47.2397Z" fill="#B9A5FF"/>
<path d="M247.33 141.2C247.644 141.167 247.944 141.054 248.2 140.87C248.501 140.645 248.716 140.324 248.81 139.96C248.87 139.442 248.886 138.92 248.86 138.4C248.86 135.96 248.86 132.5 248.93 128.26C248.93 127.193 248.93 126.073 248.93 124.9C248.93 124.31 248.93 123.72 248.93 123.11C248.951 122.82 248.951 122.529 248.93 122.24C248.876 121.973 248.748 121.727 248.56 121.53C248.367 121.335 248.119 121.202 247.85 121.15C247.54 121.129 247.23 121.129 246.92 121.15H244.92H240.79H222.38C222.035 121.156 221.704 121.291 221.453 121.527C221.202 121.764 221.047 122.086 221.02 122.43C221.02 123.23 221.02 124.03 221.02 124.81C221.02 126.4 220.97 127.97 220.95 129.51C220.95 132.59 220.85 135.56 220.81 138.39C220.81 138.74 220.81 139.1 220.81 139.44C220.785 139.745 220.859 140.05 221.02 140.31C221.173 140.562 221.405 140.755 221.68 140.86C221.974 140.952 222.283 140.986 222.59 140.96H226.49H233.49L243.63 141.04L246.39 141.09H247.1C247.183 141.074 247.267 141.074 247.35 141.09C247.267 141.103 247.183 141.103 247.1 141.09H246.39H243.63L233.49 141.18H226.49H222.56C222.196 141.214 221.829 141.177 221.48 141.07C221.111 140.925 220.799 140.666 220.59 140.33C220.385 139.993 220.284 139.603 220.3 139.21C220.3 138.86 220.3 138.51 220.3 138.15C220.3 135.32 220.37 132.35 220.41 129.27C220.41 127.73 220.41 126.17 220.47 124.58C220.47 123.78 220.47 122.97 220.47 122.16C220.507 121.685 220.721 121.241 221.069 120.915C221.417 120.59 221.874 120.406 222.35 120.4H240.76H246.87C247.203 120.376 247.537 120.376 247.87 120.4C248.228 120.469 248.556 120.647 248.81 120.91C249.053 121.17 249.219 121.491 249.29 121.84C249.322 122.172 249.322 122.507 249.29 122.84C249.29 123.44 249.29 124.04 249.29 124.62C249.29 125.79 249.29 126.91 249.22 127.98C249.13 132.23 249.05 135.68 249 138.12C249.012 138.655 248.976 139.191 248.89 139.72C248.785 140.127 248.536 140.482 248.19 140.72C247.986 140.856 247.753 140.942 247.51 140.97C247.41 141.22 247.33 141.21 247.33 141.2Z" fill="#263238"/>
<path d="M235.94 129.33L239.35 131.4L235.87 133.45L232.38 135.49L232.45 131.37L232.53 127.26L235.94 129.33Z" fill="#263238"/>
<path d="M165.1 188.71L139.56 174.95C142.543 172.901 144.98 170.155 146.66 166.95L156.01 149.04C156.888 147.412 158.158 146.028 159.705 145.014C161.252 144 163.027 143.386 164.87 143.23L188.56 155.96C185.768 157.275 183.473 159.452 182.01 162.17L171.43 181.76C169.927 184.575 167.757 186.978 165.11 188.76L165.1 188.71Z" fill="white"/>
<path d="M165.1 188.71L165.38 188.49L166.21 187.84C167.257 187 168.215 186.055 169.07 185.02C169.693 184.277 170.258 183.488 170.76 182.66C171.3 181.75 171.82 180.66 172.42 179.66L176.42 172.18C177.91 169.41 179.53 166.38 181.27 163.12C181.697 162.275 182.175 161.457 182.7 160.67C183.265 159.862 183.908 159.112 184.62 158.43C185.36 157.734 186.167 157.115 187.03 156.58C187.47 156.31 187.92 156.06 188.39 155.83C188.39 156.67 188.39 156.06 188.39 156.24H188.31L188.14 156.15L187.8 155.96L187.11 155.6L175.67 149.28L169.56 146.03L166.46 144.35L164.89 143.51L164.79 143.45H164.74H164.86H164.64L164.21 143.5C163.92 143.56 163.63 143.6 163.35 143.67C161.082 144.218 159.051 145.485 157.56 147.28C156.835 148.16 156.224 149.127 155.74 150.16L154.16 153.16L148.16 164.71C147.28 166.546 146.253 168.309 145.09 169.98C143.937 171.526 142.593 172.92 141.09 174.13C140.73 174.42 140.36 174.7 139.98 174.96L139.85 175.06L139.78 175.11C139.78 174.39 139.78 174.92 139.78 174.76L140.07 174.92L140.67 175.24L142.97 176.49L147.3 178.85L160.35 185.99L163.89 187.99L164.8 188.51C164.909 188.564 165.012 188.628 165.11 188.7C164.995 188.667 164.884 188.62 164.78 188.56L163.84 188.08L160.26 186.2L147.13 179.2L142.78 176.87L140.47 175.63L139.88 175.31L139.58 175.15C139.58 174.99 139.58 175.5 139.58 174.78L139.65 174.73L139.79 174.63C140.16 174.37 140.52 174.1 140.87 173.81C142.338 172.618 143.652 171.248 144.78 169.73C145.921 168.075 146.925 166.329 147.78 164.51L153.78 152.94L155.36 149.94C155.854 148.865 156.482 147.857 157.23 146.94C158.811 145.076 160.95 143.772 163.33 143.22C163.62 143.14 163.93 143.1 164.23 143.04L164.68 142.99H164.91H165.08H165.13L165.23 143.04L166.8 143.89L169.9 145.56L175.96 148.84L187.42 155.04L188.11 155.41L188.44 155.6L188.61 155.69H188.7C188.7 155.89 188.7 155.28 188.7 156.13C188.247 156.346 187.807 156.586 187.38 156.85C186.54 157.36 185.756 157.957 185.04 158.63C184.348 159.287 183.721 160.01 183.17 160.79C182.649 161.564 182.175 162.369 181.75 163.2L176.85 172.2L172.78 179.65C172.18 180.74 171.65 181.77 171.08 182.65C170.558 183.478 169.977 184.266 169.34 185.01C168.445 186.043 167.439 186.976 166.34 187.79C165.97 188.06 165.68 188.27 165.48 188.39C165.371 188.516 165.243 188.624 165.1 188.71Z" fill="#263238"/>
<path d="M176.97 162.71C176.97 162.8 172.74 160.61 167.62 157.82C162.5 155.03 158.4 152.7 158.45 152.61C158.5 152.52 162.68 154.72 167.8 157.5C172.92 160.28 177.02 162.63 176.97 162.71Z" fill="#263238"/>
<path d="M175.56 166.28C175.56 166.37 171.19 164.1 165.9 161.22C160.61 158.34 156.37 155.93 156.42 155.84C156.47 155.75 160.79 158.02 166.08 160.9C171.37 163.78 175.62 166.18 175.56 166.28Z" fill="#263238"/>
<path d="M173.88 169.38C173.88 169.46 169.5 167.2 164.22 164.32C158.94 161.44 154.69 159.02 154.73 158.93C154.77 158.84 159.11 161.11 164.39 163.99C169.67 166.87 173.92 169.28 173.88 169.38Z" fill="#263238"/>
<path d="M172.18 172.48C172.13 172.57 167.81 170.3 162.52 167.42C157.23 164.54 152.99 162.13 153.04 162.04C153.09 161.95 157.41 164.22 162.7 167.1C167.99 169.98 172.23 172.39 172.18 172.48Z" fill="#263238"/>
<path d="M170.49 175.58C170.44 175.67 166.12 173.41 160.83 170.52C155.54 167.63 151.3 165.23 151.35 165.14C151.4 165.05 155.72 167.32 161.01 170.2C166.3 173.08 170.56 175.5 170.49 175.58Z" fill="#263238"/>
<path d="M159.56 173.67C159.034 173.496 158.528 173.268 158.05 172.99C157.13 172.53 155.88 171.87 154.51 171.12C153.14 170.37 151.9 169.68 151.02 169.12C150.522 168.867 150.053 168.562 149.62 168.21C150.152 168.374 150.663 168.603 151.14 168.89C152.06 169.35 153.31 170.01 154.68 170.76C156.05 171.51 157.29 172.2 158.17 172.76C158.666 173.011 159.132 173.316 159.56 173.67Z" fill="#263238"/>
<path d="M165.62 181.7C165.62 181.7 165.72 181.45 165.82 180.99C165.954 180.353 165.876 179.689 165.6 179.1C165.377 178.629 165.028 178.229 164.592 177.944C164.156 177.659 163.649 177.501 163.129 177.486C162.608 177.472 162.093 177.602 161.642 177.862C161.191 178.123 160.82 178.503 160.572 178.961C160.324 179.419 160.207 179.936 160.235 180.457C160.263 180.977 160.434 181.479 160.73 181.908C161.026 182.336 161.435 182.675 161.912 182.885C162.388 183.096 162.914 183.17 163.43 183.1C164.076 183.013 164.676 182.718 165.14 182.26C165.47 181.93 165.59 181.7 165.62 181.72C165.546 181.96 165.416 182.18 165.24 182.36C164.784 182.889 164.158 183.243 163.47 183.36C162.954 183.445 162.424 183.397 161.931 183.223C161.438 183.048 160.997 182.751 160.65 182.36C160.214 181.878 159.938 181.273 159.861 180.628C159.784 179.983 159.91 179.33 160.221 178.759C160.532 178.189 161.013 177.729 161.597 177.445C162.181 177.16 162.839 177.064 163.48 177.17C163.998 177.25 164.486 177.461 164.899 177.783C165.312 178.105 165.636 178.527 165.84 179.01C166.108 179.643 166.15 180.349 165.96 181.01C165.898 181.262 165.782 181.497 165.62 181.7Z" fill="#263238"/>
<path d="M167.733 153.161L160.35 149.133L159.77 150.196L167.153 154.223L167.733 153.161Z" fill="white"/>
<path d="M140.94 72.9598L134.4 66.0098V89.0398L148.29 73.4498L140.94 72.9598Z" fill="white"/>
<path opacity="0.5" d="M140.94 72.9598L134.4 66.0098V89.0398L148.29 73.4498L140.94 72.9598Z" fill="#263238"/>
<path d="M134.55 88.8697L142.68 73.0697L140.94 72.9597L139.87 71.8297L134.55 88.8697Z" fill="#FF725E"/>
<path d="M140.94 72.9597C140.782 73.795 140.541 74.6124 140.22 75.3997C139.7 76.8897 138.93 78.9197 138.01 81.1397C137.09 83.3597 136.2 85.3297 135.55 86.7597C135.244 87.5563 134.859 88.3201 134.4 89.0397C134.591 88.2087 134.862 87.3982 135.21 86.6197C135.78 85.1497 136.6 83.1497 137.53 80.9397C138.46 78.7297 139.2 76.9397 139.87 75.2697C140.144 74.4642 140.503 73.6899 140.94 72.9597Z" fill="#263238"/>
<path d="M140.89 69.9097C140.937 71.5937 140.634 73.2691 140 74.8297C139.884 73.9897 139.946 73.1347 140.18 72.3197C140.249 71.4763 140.491 70.656 140.89 69.9097Z" fill="#263238"/>
<path d="M143.5 60.2797C143.517 61.1268 143.356 61.968 143.03 62.7497C142.858 63.5829 142.517 64.3723 142.03 65.0697C142.015 64.2228 142.175 63.3819 142.5 62.5997C142.672 61.7666 143.013 60.9772 143.5 60.2797Z" fill="#263238"/>
<path d="M147.18 50.9697C147.091 51.8114 146.836 52.6272 146.43 53.3697C146.176 54.1747 145.761 54.9198 145.21 55.5597C145.296 54.7173 145.551 53.901 145.96 53.1597C146.211 52.3534 146.627 51.6077 147.18 50.9697Z" fill="#263238"/>
<path d="M151.85 42.1298C151.684 42.9618 151.343 43.7491 150.85 44.4398C150.5 45.1959 150.003 45.8755 149.39 46.4398C149.569 45.6118 149.909 44.827 150.39 44.1298C150.739 43.3728 151.235 42.6929 151.85 42.1298Z" fill="#263238"/>
<path d="M157.47 33.8598C157.203 34.6624 156.778 35.4036 156.22 36.0398C155.42 37.1598 154.67 38.0398 154.55 37.9198C154.812 37.1147 155.237 36.3725 155.8 35.7398C156.61 34.6098 157.36 33.7798 157.47 33.8598Z" fill="#263238"/>
<path d="M163.97 26.2797C163.612 27.0394 163.106 27.7195 162.48 28.2797C161.56 29.2797 160.72 30.0497 160.61 29.9497C160.5 29.8497 161.17 28.9497 162.1 27.9497C163.03 26.9497 163.86 26.1697 163.97 26.2797Z" fill="#263238"/>
<path d="M171.29 19.4597C171.38 19.5697 170.62 20.3997 169.58 21.3097C169.008 21.9205 168.322 22.4131 167.56 22.7597C167.46 22.6497 168.23 21.8297 169.27 20.9097C170.31 19.9897 171.2 19.3497 171.29 19.4597Z" fill="#263238"/>
<path d="M179.36 13.5697C179.44 13.6997 178.56 14.3797 177.44 15.1797C176.795 15.7268 176.047 16.1383 175.24 16.3897C175.15 16.2797 176 15.5397 177.14 14.7497C177.779 14.1902 178.539 13.7864 179.36 13.5697Z" fill="#263238"/>
<path d="M188.09 8.69971C188.16 8.82971 187.21 9.44971 185.99 10.0797C185.284 10.5482 184.486 10.8618 183.65 10.9997C184.251 10.4042 184.965 9.93499 185.75 9.61971C186.458 9.15542 187.255 8.84223 188.09 8.69971Z" fill="#263238"/>
<path d="M197.34 4.90973C196.673 5.43086 195.908 5.81182 195.09 6.02973C194.332 6.40669 193.505 6.6245 192.66 6.66973C193.323 6.14069 194.09 5.75583 194.91 5.53973C195.669 5.16676 196.496 4.95239 197.34 4.90973Z" fill="#263238"/>
<path d="M206.97 2.21973C206.248 2.65814 205.446 2.94719 204.61 3.06973C203.814 3.35891 202.965 3.47814 202.12 3.41973C203.637 2.6897 205.288 2.28115 206.97 2.21973Z" fill="#263238"/>
<path d="M216.85 0.669727C216.08 1.02223 215.247 1.21608 214.4 1.23973C213.576 1.43098 212.722 1.4514 211.89 1.29973C212.655 0.942194 213.486 0.744821 214.33 0.719727C215.157 0.527807 216.016 0.510778 216.85 0.669727Z" fill="#263238"/>
<path d="M226.83 0.279732C226.027 0.539382 225.18 0.634609 224.34 0.559731C223.5 0.654069 222.649 0.575804 221.84 0.329731C222.642 0.0672407 223.489 -0.0313789 224.33 0.0397302C225.171 -0.0575277 226.023 0.0242655 226.83 0.279732Z" fill="#263238"/>
<path d="M236.79 1.04975C235.961 1.2136 235.109 1.2136 234.28 1.04975C233.436 1.03763 232.603 0.857459 231.83 0.519756C233.516 0.344574 235.22 0.528612 236.83 1.05975L236.79 1.04975Z" fill="#263238"/>
<path d="M246.56 3.01976C244.874 2.99212 243.213 2.60339 241.69 1.87976C243.374 1.92362 245.031 2.31158 246.56 3.01976Z" fill="#263238"/>
<path d="M256.06 6.20972C254.391 5.96112 252.794 5.36492 251.37 4.45972C252.218 4.50103 253.048 4.71543 253.81 5.08972C254.626 5.31239 255.39 5.6929 256.06 6.20972Z" fill="#263238"/>
<path d="M264.98 10.7097C263.351 10.222 261.845 9.39372 260.56 8.27972C261.394 8.44919 262.184 8.78969 262.88 9.27972C263.67 9.60859 264.385 10.0952 264.98 10.7097Z" fill="#263238"/>
<path d="M273 16.6497C272.9 16.7597 272 16.1397 270.9 15.2797C269.8 14.4197 269.04 13.6197 269.13 13.4997C269.22 13.3797 270.13 13.9997 271.23 14.8697C272.33 15.7397 273.1 16.5497 273 16.6497Z" fill="#263238"/>
<path d="M279.84 23.8998C279.72 23.9698 279.03 23.0998 278.16 22.0398C277.57 21.4526 277.074 20.778 276.69 20.0398C276.79 19.9398 277.69 20.6498 278.56 21.7298C279.165 22.332 279.606 23.079 279.84 23.8998Z" fill="#263238"/>
<path d="M254.05 130.16C253.236 130.364 252.39 130.405 251.56 130.28C250.715 130.316 249.871 130.18 249.08 129.88C249.9 129.671 250.754 129.63 251.59 129.76C252.429 129.723 253.266 129.859 254.05 130.16Z" fill="#263238"/>
<path d="M264.03 129.66C263.25 129.993 262.408 130.156 261.56 130.14C260.732 130.308 259.878 130.308 259.05 130.14C260.668 129.645 262.371 129.496 264.05 129.7L264.03 129.66Z" fill="#263238"/>
<path d="M273.79 127.52C272.287 128.281 270.642 128.724 268.96 128.82C270.463 128.059 272.108 127.616 273.79 127.52Z" fill="#263238"/>
<path d="M282.91 123.46C282.339 124.092 281.631 124.585 280.84 124.9C280.123 125.364 279.309 125.655 278.46 125.75C278.4 125.61 279.38 125.06 280.6 124.44C281.307 123.981 282.089 123.649 282.91 123.46Z" fill="#263238"/>
<path d="M290.75 117.28C290.86 117.38 290.16 118.28 289.13 119.2C288.554 119.83 287.838 120.316 287.04 120.62C286.95 120.5 287.76 119.73 288.78 118.82C289.8 117.91 290.65 117.21 290.75 117.28Z" fill="#263238"/>
<path d="M296.69 109.28C296.524 110.119 296.16 110.908 295.63 111.58C294.88 112.75 294.11 113.58 294 113.49C294.271 112.696 294.677 111.955 295.2 111.3C295.94 110.15 296.56 109.28 296.69 109.28Z" fill="#263238"/>
<path d="M300.07 99.9297C300.105 101.627 299.647 103.298 298.75 104.74C298.778 103.9 298.951 103.071 299.26 102.29C299.4 101.464 299.674 100.667 300.07 99.9297Z" fill="#263238"/>
<path d="M300.42 91.9998C300.56 91.9998 300.71 92.6398 300.75 93.4698C300.79 94.2998 300.7 94.9597 300.56 94.9597C300.42 94.9597 300.27 94.2998 300.23 93.4898C300.19 92.6798 300.27 92.0198 300.42 91.9998Z" fill="#263238"/>
<path d="M177.7 144.62C177.393 145.405 176.949 146.129 176.39 146.76C175.58 147.87 174.9 148.76 174.78 148.68C174.995 147.853 175.402 147.088 175.97 146.45C176.78 145.28 177.56 144.53 177.7 144.62Z" fill="#263238"/>
<path d="M184.88 137.7C184.97 137.81 184.15 138.57 183.11 139.47C182.07 140.37 181.19 141.06 181.11 140.95C181.03 140.84 181.74 139.95 182.79 139.07C183.84 138.19 184.79 137.58 184.88 137.7Z" fill="#263238"/>
<path d="M193.43 132.53C192.834 133.131 192.123 133.607 191.34 133.93C190.636 134.401 189.843 134.724 189.01 134.88C189.606 134.275 190.316 133.796 191.1 133.47C191.804 132.999 192.597 132.679 193.43 132.53Z" fill="#263238"/>
<path d="M202.89 129.28C201.362 129.973 199.736 130.428 198.07 130.63C198.753 130.117 199.548 129.775 200.39 129.63C201.185 129.321 202.041 129.201 202.89 129.28Z" fill="#263238"/>
<path d="M212.81 128.28C212.005 128.529 211.161 128.63 210.32 128.58C209.489 128.709 208.642 128.686 207.82 128.51C209.436 127.986 211.163 127.907 212.82 128.28H212.81Z" fill="#263238"/>
<path d="M218.41 128.75C218.391 128.822 218.345 128.884 218.282 128.923C218.219 128.962 218.143 128.975 218.07 128.96C218.032 128.958 217.994 128.95 217.96 128.934C217.925 128.918 217.894 128.896 217.868 128.868C217.842 128.84 217.822 128.807 217.808 128.772C217.795 128.736 217.789 128.698 217.79 128.66C217.809 128.585 217.856 128.521 217.921 128.48C217.986 128.439 218.065 128.425 218.14 128.44C218.31 128.47 218.44 128.6 218.41 128.75Z" fill="#263238"/>
<path d="M190.42 211.28C191.24 211.496 192.006 211.881 192.67 212.41C193.83 213.16 194.67 213.86 194.67 213.98C193.848 213.769 193.08 213.383 192.42 212.85C191.22 212.07 190.34 211.37 190.42 211.28Z" fill="#263238"/>
<path d="M182.4 205.28C183.189 205.586 183.909 206.045 184.52 206.63C185.59 207.49 186.4 208.27 186.31 208.39C186.22 208.51 185.31 207.9 184.19 207.04C183.07 206.18 182.3 205.4 182.4 205.28Z" fill="#263238"/>
<path d="M176.28 197.46C176.41 197.39 177.03 198.32 177.76 199.46C178.274 200.123 178.676 200.866 178.95 201.66C178.84 201.75 178.06 200.92 177.32 199.74C176.803 199.07 176.447 198.289 176.28 197.46Z" fill="#263238"/>
<path d="M172.46 188.28C173.345 189.714 173.917 191.319 174.14 192.99C173.629 192.315 173.261 191.542 173.06 190.72C172.699 189.955 172.495 189.125 172.46 188.28Z" fill="#263238"/>
<path d="M246.51 301.57L244.45 390.56H240.53L240.78 301.79L246.51 301.57Z" fill="#455A64"/>
<path d="M260.69 300.58L279.77 390.56H284.15L268.26 300.58H260.69Z" fill="#455A64"/>
<path d="M224.91 301.57L203.8 390.56H199.42L218.59 301.2L224.91 301.57Z" fill="#455A64"/>
<path d="M279.83 216.28C279.83 216.28 300.91 215.08 298.83 239.46C296.75 263.84 295.52 288.53 287.69 296.96C279.86 305.39 200.99 305.69 194.37 298.77C187.75 291.85 207.01 292.14 210.62 292.14C214.23 292.14 236.51 294.25 243.74 275.29C250.97 256.33 249.13 215.03 279.83 216.28Z" fill="#455A64"/>
<path d="M281.18 216.28C281.18 216.28 297.29 219.58 295.79 236.44C294.29 253.3 290.07 282.8 282.24 290.33C274.41 297.86 243.74 299.49 227.15 298.46C207.88 297.25 195.72 293.58 195.72 293.58C195.72 293.58 192.2 295.84 193.27 297.3C194.34 298.76 203.73 304.61 249.27 303.64C294.81 302.67 291.64 295.94 293.53 288.64C295.42 281.34 299.39 242.17 298.84 233.57C298.29 224.97 293.95 217.75 281.18 216.28Z" fill="#455A64"/>
<path opacity="0.2" d="M281.18 216.28C281.18 216.28 297.29 219.58 295.79 236.44C294.29 253.3 290.07 282.8 282.24 290.33C274.41 297.86 243.74 299.49 227.15 298.46C207.88 297.25 195.72 293.58 195.72 293.58C195.72 293.58 192.2 295.84 193.27 297.3C194.34 298.76 203.73 304.61 249.27 303.64C294.81 302.67 291.64 295.94 293.53 288.64C295.42 281.34 299.39 242.17 298.84 233.57C298.29 224.97 293.95 217.75 281.18 216.28Z" fill="black"/>
<path d="M267.97 249.06C268.051 249.388 268.222 249.686 268.465 249.922C268.707 250.157 269.011 250.319 269.341 250.39C269.672 250.46 270.015 250.437 270.333 250.321C270.651 250.206 270.929 250.003 271.137 249.737C271.345 249.471 271.474 249.151 271.508 248.815C271.543 248.479 271.483 248.14 271.334 247.836C271.185 247.533 270.954 247.278 270.666 247.1C270.379 246.922 270.048 246.828 269.71 246.83C269.449 246.862 269.198 246.945 268.969 247.074C268.74 247.204 268.54 247.377 268.378 247.584C268.217 247.791 268.097 248.028 268.027 248.281C267.957 248.534 267.938 248.799 267.97 249.06Z" fill="#455A64"/>
<path d="M269.16 239.19C268.822 240.243 268.62 241.335 268.56 242.44C268.551 243.624 268.814 244.794 269.33 245.86C269.628 246.482 270.016 247.058 270.48 247.57C270.772 247.839 271.043 248.129 271.29 248.44C271.426 248.632 271.521 248.85 271.571 249.08C271.621 249.31 271.624 249.548 271.58 249.78C271.341 250.532 271.044 251.264 270.69 251.97C270.507 252.62 270.42 253.294 270.43 253.97C270.455 255.153 270.756 256.314 271.31 257.36C271.863 258.308 272.535 259.182 273.31 259.96C273.31 259.96 273 259.85 272.53 259.47C271.882 258.937 271.334 258.294 270.91 257.57C270.257 256.482 269.889 255.247 269.84 253.98C269.807 253.224 269.895 252.468 270.1 251.74C270.425 251.06 270.713 250.362 270.96 249.65C271.12 248.98 270.57 248.51 270.02 247.95C269.521 247.388 269.11 246.754 268.8 246.07C268.27 244.922 268.033 243.661 268.11 242.4C268.153 241.558 268.339 240.729 268.66 239.95C268.772 239.664 268.942 239.405 269.16 239.19Z" fill="#455A64"/>
<path d="M264.38 246.17C264.48 246.17 264.38 246.7 264.63 247.44C264.929 248.405 265.546 249.24 266.38 249.81C267.249 250.348 268.225 250.689 269.24 250.81C270.04 250.93 270.55 250.94 270.55 251.03C270.55 251.12 270.05 251.24 269.21 251.23C268.086 251.219 266.988 250.894 266.04 250.29C265.567 249.971 265.162 249.563 264.848 249.087C264.534 248.612 264.317 248.079 264.21 247.52C264.08 246.66 264.32 246.15 264.38 246.17Z" fill="#455A64"/>
<g opacity="0.2">
<path d="M267.97 249.06C268.051 249.388 268.222 249.686 268.465 249.922C268.707 250.157 269.011 250.319 269.341 250.39C269.672 250.46 270.015 250.437 270.333 250.321C270.651 250.206 270.929 250.003 271.137 249.737C271.345 249.471 271.474 249.151 271.508 248.815C271.543 248.479 271.483 248.14 271.334 247.836C271.185 247.533 270.954 247.278 270.666 247.1C270.379 246.922 270.048 246.828 269.71 246.83C269.449 246.862 269.198 246.945 268.969 247.074C268.74 247.204 268.54 247.377 268.378 247.584C268.217 247.791 268.097 248.028 268.027 248.281C267.957 248.534 267.938 248.799 267.97 249.06Z" fill="black"/>
<path d="M269.16 239.19C268.822 240.243 268.62 241.335 268.56 242.44C268.551 243.624 268.814 244.794 269.33 245.86C269.628 246.482 270.016 247.058 270.48 247.57C270.772 247.839 271.043 248.129 271.29 248.44C271.426 248.632 271.521 248.85 271.571 249.08C271.621 249.31 271.624 249.548 271.58 249.78C271.341 250.532 271.044 251.264 270.69 251.97C270.507 252.62 270.42 253.294 270.43 253.97C270.455 255.153 270.756 256.314 271.31 257.36C271.863 258.308 272.535 259.182 273.31 259.96C273.31 259.96 273 259.85 272.53 259.47C271.882 258.937 271.334 258.294 270.91 257.57C270.257 256.482 269.889 255.247 269.84 253.98C269.807 253.224 269.895 252.468 270.1 251.74C270.425 251.06 270.713 250.362 270.96 249.65C271.12 248.98 270.57 248.51 270.02 247.95C269.521 247.388 269.11 246.754 268.8 246.07C268.27 244.922 268.033 243.661 268.11 242.4C268.153 241.558 268.339 240.729 268.66 239.95C268.772 239.664 268.942 239.405 269.16 239.19Z" fill="black"/>
<path d="M264.38 246.17C264.48 246.17 264.38 246.7 264.63 247.44C264.929 248.405 265.546 249.24 266.38 249.81C267.249 250.348 268.225 250.689 269.24 250.81C270.04 250.93 270.55 250.94 270.55 251.03C270.55 251.12 270.05 251.24 269.21 251.23C268.086 251.22 266.988 250.894 266.04 250.29C265.567 249.972 265.162 249.563 264.848 249.088C264.534 248.612 264.317 248.079 264.21 247.52C264.08 246.66 264.32 246.15 264.38 246.17Z" fill="black"/>
</g>
<path d="M243.79 155.39C243.52 155.29 243.17 155.18 242.71 155.06C241.149 154.646 239.529 154.501 237.92 154.63C235.49 154.802 233.193 155.809 231.42 157.48C230.372 158.472 229.567 159.694 229.07 161.05C228.815 161.771 228.667 162.526 228.63 163.29C228.63 164.07 228.69 164.83 228.63 165.57C228.634 165.918 228.567 166.264 228.433 166.585C228.299 166.907 228.1 167.197 227.85 167.44C227.297 167.879 226.671 168.218 226 168.44C225.307 168.697 224.661 169.069 224.09 169.54C223.313 170.206 222.742 171.08 222.444 172.06C222.147 173.04 222.135 174.084 222.41 175.07C222.762 176.125 223.242 177.132 223.84 178.07C224.08 178.45 224.28 178.82 224.47 179.18C224.505 179.492 224.505 179.807 224.47 180.12C224.246 181.49 223.583 182.75 222.58 183.71C221.575 184.656 220.701 185.733 219.98 186.91C219.627 187.506 219.455 188.192 219.485 188.885C219.515 189.578 219.746 190.246 220.15 190.81C221.15 191.97 222.92 191.97 224.46 191.93C229.807 191.898 235.15 192.196 240.46 192.82L244.78 155.64C244.48 155.566 244.15 155.483 243.79 155.39ZM230.32 161.97C230.08 163.44 230.32 165.03 229.59 166.34C228.86 167.65 227.27 168.44 226.08 169.48C225.157 170.311 224.46 171.362 224.055 172.536C223.649 173.709 223.548 174.966 223.76 176.19C223.87 176.81 224.07 177.42 224.24 178.04L224.18 177.94C223.615 176.998 223.168 175.991 222.85 174.94C222.525 173.761 222.66 172.502 223.23 171.42C223.522 170.836 223.93 170.319 224.43 169.9C224.966 169.468 225.571 169.13 226.22 168.9C226.946 168.649 227.623 168.274 228.22 167.79C228.518 167.502 228.755 167.157 228.916 166.775C229.078 166.394 229.161 165.984 229.16 165.57C229.16 164.76 229.09 164 229.16 163.28C229.191 162.567 229.325 161.863 229.56 161.19C230.026 159.904 230.778 158.741 231.76 157.79C233.453 156.177 235.641 155.183 237.97 154.97C238.478 154.914 238.989 154.888 239.5 154.89C238.32 154.93 237.154 155.149 236.04 155.54C234.607 156.017 233.325 156.862 232.321 157.991C231.318 159.119 230.627 160.491 230.32 161.97Z" fill="#263238"/>
<path d="M237.66 199.37C237.97 197.66 237.42 190.44 237.42 190.44C237.42 190.44 231.02 189.63 230.74 183.09C230.46 176.55 231.12 161.5 231.12 161.5L242.9 155.84L253.19 167.57L253.38 199.27L237.66 199.37Z" fill="#FFBE9D"/>
<path d="M232.77 172.5C232.77 172.661 232.818 172.82 232.908 172.954C232.997 173.089 233.125 173.194 233.274 173.256C233.423 173.319 233.588 173.335 233.746 173.305C233.905 173.274 234.051 173.197 234.166 173.083C234.281 172.969 234.36 172.824 234.393 172.666C234.426 172.507 234.411 172.343 234.35 172.193C234.29 172.043 234.186 171.914 234.053 171.823C233.919 171.731 233.762 171.682 233.6 171.68C233.382 171.68 233.172 171.766 233.017 171.919C232.861 172.073 232.773 172.281 232.77 172.5Z" fill="#263238"/>
<path d="M231.43 171.58C231.53 171.69 232.14 171.17 233.02 171.14C233.9 171.11 234.55 171.55 234.64 171.43C234.73 171.31 234.58 171.18 234.3 170.97C233.921 170.703 233.463 170.573 233 170.6C232.534 170.617 232.087 170.789 231.73 171.09C231.47 171.28 231.38 171.53 231.43 171.58Z" fill="#263238"/>
<path d="M242.31 172.5C242.31 172.661 242.358 172.82 242.448 172.954C242.537 173.089 242.665 173.194 242.814 173.256C242.963 173.319 243.128 173.335 243.286 173.305C243.445 173.274 243.591 173.197 243.706 173.083C243.821 172.969 243.9 172.824 243.933 172.666C243.966 172.507 243.951 172.343 243.89 172.193C243.83 172.043 243.726 171.914 243.593 171.823C243.459 171.731 243.302 171.682 243.14 171.68C242.922 171.68 242.712 171.766 242.557 171.919C242.401 172.073 242.313 172.281 242.31 172.5Z" fill="#263238"/>
<path d="M241.15 171.75C241.25 171.86 241.86 171.34 242.74 171.31C243.62 171.28 244.27 171.72 244.36 171.6C244.45 171.48 244.3 171.35 244.02 171.14C243.64 170.874 243.183 170.741 242.72 170.76C242.255 170.781 241.809 170.953 241.45 171.25C241.19 171.49 241.1 171.7 241.15 171.75Z" fill="#263238"/>
<path d="M237.85 179.28C237.385 179.145 236.904 179.071 236.42 179.06C236.2 179.06 235.99 179.06 235.95 178.85C235.922 178.602 235.968 178.352 236.08 178.13C236.29 177.54 236.5 176.92 236.72 176.27C237.314 174.695 237.786 173.077 238.13 171.43C237.424 172.957 236.832 174.535 236.36 176.15C236.15 176.8 235.95 177.42 235.75 178.01C235.614 178.307 235.579 178.641 235.65 178.96C235.683 179.042 235.735 179.115 235.801 179.174C235.866 179.233 235.945 179.276 236.03 179.3C236.156 179.313 236.284 179.313 236.41 179.3C236.889 179.354 237.373 179.348 237.85 179.28Z" fill="#263238"/>
<path d="M237.42 190.44C240.457 190.357 243.404 189.391 245.9 187.66C245.9 187.66 243.9 192.42 237.53 192.04L237.42 190.44Z" fill="#EB996E"/>
<path d="M269.22 176.28C268.809 176.347 268.391 176.347 267.98 176.28C267.24 175.12 265.91 174.28 264.92 173.21C264.729 172.256 264.812 171.268 265.16 170.36C265.346 169.853 265.499 169.335 265.62 168.81C265.76 168.227 265.729 167.615 265.53 167.05C265.006 165.966 264.086 165.125 262.96 164.7C262.08 163.47 260.47 162.9 259.35 161.85C259.12 161.283 258.952 160.693 258.85 160.09C258.713 159.105 258.455 158.141 258.08 157.22C257.696 156.429 257.126 155.743 256.42 155.22C255.603 154.581 254.629 154.177 253.6 154.05C252.879 153.675 252.102 153.418 251.3 153.29C250.084 153.112 248.843 153.218 247.674 153.598C246.505 153.977 245.44 154.621 244.56 155.48C242.77 155.027 240.908 154.939 239.083 155.221C237.259 155.503 235.51 156.148 233.94 157.12C232.5 157.884 231.327 159.07 230.58 160.52C230.079 161.878 229.865 163.325 229.95 164.77C229.95 165.77 229.95 166.84 229.95 167.87C229.922 168.136 229.974 168.404 230.1 168.64C230.245 168.792 230.424 168.909 230.621 168.982C230.819 169.055 231.031 169.081 231.24 169.06L236.03 169.24C236.355 169.282 236.684 169.23 236.98 169.09C237.23 168.927 237.432 168.7 237.564 168.433C237.696 168.165 237.753 167.867 237.73 167.57C237.73 167.12 237.73 166.2 237.73 165.94C237.887 166.566 238.077 167.184 238.3 167.79C238.343 168.122 238.454 168.441 238.626 168.729C238.798 169.016 239.028 169.265 239.3 169.46C239.735 169.647 240.208 169.726 240.68 169.69C241.37 169.69 242.06 169.69 242.75 169.69C243.101 169.712 243.451 169.624 243.75 169.44C243.939 169.237 244.073 168.988 244.137 168.718C244.202 168.448 244.196 168.166 244.12 167.9C243.937 167.199 243.827 166.482 243.79 165.76C244.41 166.98 244.71 168.5 245.47 168.7C246.243 168.815 247.032 168.757 247.78 168.53C248.55 168.29 249.09 168.1 249.65 167.92C249.603 168.24 249.526 168.554 249.42 168.86C248.84 170.43 247.53 171.94 247.98 173.55C248.43 175.16 250.05 175.72 250.89 176.99C251.28 177.723 251.498 178.534 251.529 179.364C251.56 180.194 251.403 181.019 251.07 181.78C250.392 183.288 249.801 184.834 249.3 186.41C248.93 188.02 249.19 189.95 250.51 190.94C251.61 191.601 252.893 191.891 254.17 191.77L265.79 191.87C266.538 191.921 267.29 191.84 268.01 191.63C268.371 191.524 268.698 191.325 268.958 191.053C269.218 190.781 269.401 190.445 269.49 190.08C269.514 189.638 269.43 189.196 269.245 188.794C269.061 188.391 268.781 188.04 268.43 187.77C267.722 187.217 267.122 186.539 266.66 185.77C266.05 184.46 266.66 182.93 267.32 181.66C267.98 180.39 268.78 179.01 268.53 177.59C268.473 177.24 268.358 176.902 268.19 176.59C268.568 176.609 268.946 176.565 269.31 176.46C269.647 176.374 269.964 176.221 270.24 176.01C270.42 175.87 270.5 175.78 270.49 175.76C270.094 175.994 269.666 176.169 269.22 176.28ZM254.37 154.5C255.033 154.717 255.65 155.057 256.19 155.5C256.837 156.01 257.351 156.668 257.69 157.42C258.03 158.315 258.262 159.249 258.38 160.2C258.38 160.4 258.46 160.61 258.5 160.82C257.94 159.82 257.66 158.69 257.17 157.66C256.538 156.376 255.57 155.288 254.37 154.51V154.5ZM263.37 165.5C264.106 165.866 264.696 166.473 265.04 167.22C265.265 168.23 265.145 169.286 264.7 170.22C264.414 170.971 264.304 171.779 264.38 172.58C264.175 172.302 264.007 172 263.88 171.68C263.12 169.78 264.07 167.44 263.38 165.55L263.37 165.5Z" fill="#263238"/>
<path d="M238.17 181.59C238.222 181.315 238.34 181.058 238.515 180.84C238.689 180.622 238.914 180.451 239.17 180.34C239.347 180.258 239.54 180.216 239.735 180.216C239.93 180.216 240.123 180.258 240.3 180.34C240.477 180.435 240.622 180.581 240.714 180.759C240.807 180.938 240.844 181.14 240.82 181.34C240.769 181.554 240.655 181.749 240.493 181.898C240.331 182.048 240.128 182.146 239.91 182.18C239.476 182.248 239.032 182.221 238.61 182.1C238.49 182.077 238.374 182.033 238.27 181.97C238.218 181.938 238.177 181.892 238.152 181.836C238.127 181.781 238.119 181.719 238.13 181.66" fill="#EB996E"/>
<path d="M240.34 179.28C240.41 179.28 240.52 179.52 240.49 179.94C240.437 180.507 240.181 181.036 239.77 181.43C239.354 181.819 238.81 182.043 238.24 182.06C237.81 182.06 237.57 181.94 237.58 181.88C237.59 181.82 238.58 181.81 239.41 181.05C240.24 180.29 240.2 179.28 240.34 179.28Z" fill="#263238"/>
<path d="M225.12 202.51C225.12 202.51 205.75 219.35 205.25 217.28C202.52 206.13 203.25 191.9 203.73 186.46C204.03 185.99 204.38 185.46 204.79 184.9C205.29 184.269 205.887 183.722 206.56 183.28C207.365 182.671 208.25 182.177 209.19 181.81C210.08 181.55 210.19 180.36 209.45 180.08C208.71 179.8 206.2 180.43 203.9 182.35C201.6 184.27 202.54 179.71 202.85 178.04C203.16 176.37 203.85 171.17 203.44 170.68C202.8 169.97 201.89 170.54 201.61 172.21C201.33 173.88 200.17 178.85 199.3 178.67C198.43 178.49 200.13 170.01 200.13 170.01C200.13 170.01 200.79 168.25 199.79 168.01C197.97 167.56 196.84 176.69 196.79 177.56C196.73 178.16 195.79 178 195.87 177.35C195.95 176.7 197.76 168.93 195.87 168.46C194.46 168.1 194.87 175.96 193.6 177.39C192.33 178.82 193.9 171.39 192.54 171.09C192.03 170.99 191.63 170.98 191.35 175.36C191.28 178.887 191.407 182.416 191.73 185.93C190.53 197.93 188.18 234.78 204.81 233.51C224.44 232.02 228.96 216.51 228.96 216.51L225.12 202.51Z" fill="#FFBE9D"/>
<path d="M279.38 229.28L276.02 212.44C273.55 198.65 254.22 197.7 254.22 197.7L239.05 197.45C239.05 197.45 228.95 197.13 220.86 203.76C212.77 210.39 207.35 215.5 207.35 215.5L220.04 230.18L227.56 225.18C227.56 225.18 224.85 230.06 225.3 234.18C225.73 238.18 229.93 241.24 229.93 241.24L226.77 275.11L276.31 273.11L269.93 229.28H279.38Z" fill="#97A8B2"/>
<path d="M277.02 216.12C276.86 216.548 276.666 216.962 276.44 217.36C274.723 220.34 271.961 222.577 268.69 223.64C266.028 224.475 263.179 224.507 260.5 223.73C258.935 223.285 257.481 222.519 256.23 221.48C254.826 220.346 253.927 218.703 253.73 216.91C253.663 215.941 253.868 214.972 254.322 214.113C254.776 213.254 255.461 212.54 256.3 212.05C256.758 211.809 257.262 211.667 257.779 211.632C258.296 211.598 258.814 211.672 259.3 211.85C260.286 212.213 261.133 212.878 261.72 213.75C262.334 214.633 262.681 215.674 262.72 216.75C262.735 217.831 262.502 218.902 262.04 219.88C261.068 221.861 259.588 223.548 257.75 224.77C255.86 226.08 253.73 227.003 251.481 227.487C249.233 227.971 246.912 228.006 244.65 227.59C242.343 227.167 240.162 226.226 238.27 224.84C236.404 223.504 234.986 221.636 234.2 219.48C233.471 217.367 233.546 215.06 234.41 213C234.819 212.003 235.472 211.125 236.309 210.447C237.146 209.769 238.14 209.313 239.2 209.12C240.235 208.958 241.294 209.179 242.179 209.74C243.064 210.301 243.714 211.164 244.01 212.17C244.218 213.155 244.039 214.183 243.51 215.04C243.027 215.868 242.338 216.557 241.51 217.04C239.906 217.833 238.082 218.065 236.33 217.7C234.748 217.418 233.195 216.993 231.69 216.43C229.046 215.561 226.677 214.012 224.82 211.94C223.459 210.324 222.675 208.301 222.59 206.19C222.523 204.862 222.821 203.541 223.45 202.37C223.67 201.966 223.947 201.596 224.27 201.27C224.27 201.27 223.97 201.64 223.54 202.42C222.969 203.587 222.714 204.883 222.8 206.18C222.916 208.232 223.703 210.189 225.04 211.75C226.881 213.763 229.219 215.256 231.82 216.08C233.304 216.622 234.833 217.031 236.39 217.3C238.048 217.643 239.773 217.421 241.29 216.67C242.052 216.235 242.687 215.607 243.13 214.85C243.6 214.081 243.754 213.16 243.56 212.28C243.287 211.39 242.701 210.63 241.91 210.139C241.12 209.648 240.178 209.46 239.26 209.61C238.284 209.793 237.369 210.219 236.6 210.848C235.832 211.477 235.233 212.289 234.86 213.21C234.046 215.157 233.982 217.338 234.68 219.33C235.43 221.387 236.786 223.169 238.57 224.44C240.4 225.771 242.505 226.676 244.73 227.09C249.164 227.902 253.74 226.92 257.45 224.36C259.214 223.194 260.639 221.583 261.58 219.69C262.011 218.777 262.23 217.779 262.22 216.77C262.182 215.793 261.862 214.849 261.3 214.05C260.777 213.257 260.018 212.648 259.13 212.31C258.704 212.154 258.251 212.087 257.798 212.115C257.346 212.142 256.904 212.263 256.5 212.47C255.737 212.921 255.114 213.575 254.699 214.358C254.285 215.142 254.095 216.025 254.15 216.91C254.238 217.742 254.49 218.549 254.892 219.284C255.294 220.018 255.837 220.666 256.49 221.19C257.687 222.208 259.089 222.958 260.6 223.39C263.209 224.177 265.991 224.177 268.6 223.39C270.564 222.783 272.366 221.741 273.87 220.34C274.824 219.455 275.655 218.446 276.34 217.34L276.84 216.46L277.02 216.12Z" fill="white"/>
<path d="M274.95 267.58L274.68 267.7C274.5 267.76 274.23 267.88 273.87 267.98C272.81 268.296 271.715 268.484 270.61 268.54C268.855 268.638 267.096 268.435 265.41 267.94C263.165 267.287 261.107 266.108 259.41 264.5C257.818 262.964 256.577 261.101 255.772 259.04C254.968 256.979 254.619 254.768 254.75 252.56C254.81 250.868 255.283 249.216 256.13 247.75C256.598 246.982 257.242 246.337 258.01 245.87C258.81 245.397 259.731 245.167 260.66 245.21C261.142 245.22 261.618 245.329 262.056 245.53C262.495 245.732 262.887 246.021 263.21 246.38C263.865 247.122 264.221 248.08 264.21 249.07C264.212 250.055 263.923 251.018 263.38 251.84C262.831 252.652 262.128 253.349 261.31 253.89C259.658 254.965 257.797 255.677 255.85 255.98C251.992 256.569 248.05 255.775 244.72 253.74C243.142 252.786 241.761 251.541 240.65 250.07C239.541 248.67 238.817 247.005 238.55 245.24C238.429 244.389 238.488 243.522 238.722 242.696C238.957 241.869 239.361 241.101 239.91 240.44C240.435 239.797 241.127 239.313 241.91 239.04C242.684 238.786 243.515 238.765 244.3 238.98C245.067 239.164 245.763 239.571 246.3 240.15C246.819 240.713 247.117 241.444 247.14 242.21C247.125 242.911 246.955 243.6 246.642 244.228C246.329 244.855 245.881 245.406 245.33 245.84C244.385 246.651 243.282 247.257 242.09 247.62C241.048 247.967 239.966 248.179 238.87 248.25C237.11 248.359 235.347 248.089 233.7 247.46C232.671 247.05 231.705 246.498 230.83 245.82C230.599 245.647 230.378 245.46 230.17 245.26C230.03 245.13 229.96 245.06 229.97 245.05C229.98 245.04 230.28 245.3 230.89 245.73C233.201 247.413 236.042 248.205 238.89 247.96C239.961 247.876 241.016 247.654 242.03 247.3C243.174 246.945 244.231 246.352 245.13 245.56C245.633 245.16 246.042 244.655 246.328 244.079C246.613 243.504 246.767 242.872 246.78 242.23C246.723 241.546 246.444 240.899 245.985 240.388C245.527 239.877 244.914 239.53 244.24 239.4C243.54 239.209 242.799 239.23 242.11 239.46C241.398 239.708 240.769 240.147 240.29 240.73C239.788 241.346 239.419 242.06 239.206 242.825C238.993 243.591 238.94 244.393 239.05 245.18C239.306 246.858 239.996 248.44 241.05 249.77C242.126 251.19 243.463 252.391 244.99 253.31C248.216 255.269 252.028 256.034 255.76 255.47C257.634 255.178 259.426 254.497 261.02 253.47C261.797 253.019 262.449 252.382 262.917 251.615C263.385 250.848 263.654 249.977 263.7 249.08C263.718 248.22 263.427 247.383 262.88 246.72C262.6 246.416 262.262 246.171 261.886 245.999C261.51 245.827 261.103 245.732 260.69 245.72C259.857 245.685 259.031 245.89 258.31 246.31C257.607 246.736 257.015 247.322 256.58 248.02C255.776 249.421 255.323 250.995 255.26 252.61C255.166 254.142 255.305 255.679 255.67 257.17C256.343 259.857 257.744 262.307 259.72 264.25C261.363 265.837 263.357 267.016 265.54 267.69C268.252 268.518 271.139 268.591 273.89 267.9C274.56 267.69 274.94 267.56 274.95 267.58Z" fill="white"/>
<path d="M258.18 211.38C258.316 211.723 258.407 212.083 258.45 212.45C258.61 213.26 258.8 214.25 259.03 215.45C259.54 218.07 260.2 221.45 260.92 225.2C261.64 228.95 262.27 232.48 262.67 234.99C262.86 236.25 263.01 237.27 263.09 237.99C263.156 238.356 263.177 238.729 263.15 239.1C263.022 238.751 262.935 238.388 262.89 238.02C262.73 237.21 262.53 236.23 262.3 235.07C261.79 232.45 261.14 229.07 260.41 225.31C259.68 221.55 259.06 218.04 258.67 215.52C258.47 214.26 258.33 213.24 258.25 212.52C258.174 212.145 258.151 211.761 258.18 211.38Z" fill="#263238"/>
<path d="M279.69 229.42C276.648 229.697 273.593 229.794 270.54 229.71C267.488 229.806 264.434 229.733 261.39 229.49C264.432 229.211 267.487 229.111 270.54 229.19C273.592 229.099 276.646 229.176 279.69 229.42Z" fill="#263238"/>
<path d="M220.04 230.15C217.812 227.829 215.71 225.393 213.74 222.85C211.637 220.421 209.67 217.877 207.85 215.23C210.079 217.545 212.182 219.979 214.15 222.52C216.248 224.957 218.214 227.503 220.04 230.15Z" fill="#263238"/>
<path d="M252.87 197.75C252.12 197.931 251.351 198.018 250.58 198.01C249.16 198.09 247.2 198.14 245.03 198.11C242.86 198.08 240.91 197.97 239.49 197.84C238.719 197.825 237.953 197.714 237.21 197.51C237.975 197.431 238.745 197.431 239.51 197.51L245.04 197.63L250.57 197.68C251.337 197.628 252.107 197.652 252.87 197.75Z" fill="#263238"/>
<path d="M225.42 229.53C225.627 228.83 225.919 228.158 226.29 227.53L227.37 225.39C227.911 224.631 228.175 223.71 228.12 222.78C227.75 220.78 227.39 218.88 227.18 217.54C227.016 216.815 226.935 216.073 226.94 215.33C227.225 216.016 227.426 216.735 227.54 217.47C227.85 218.81 228.26 220.63 228.63 222.71C228.738 223.252 228.675 223.814 228.45 224.32C228.254 224.762 228.034 225.192 227.79 225.61C227.37 226.35 226.98 227.05 226.62 227.71C226.289 228.359 225.887 228.97 225.42 229.53Z" fill="#263238"/>
<path d="M185.25 385.15V374.84L203.72 374.72L203.88 390.14L202.73 390.22C197.63 390.55 176.8 391.22 173.38 390.13C169.56 388.95 185.25 385.15 185.25 385.15Z" fill="#263238"/>
<path d="M172.94 389.19C172.94 389.36 179.85 389.5 188.38 389.5C196.91 389.5 203.81 389.36 203.81 389.19C203.81 389.02 196.9 388.87 188.38 388.87C179.86 388.87 172.94 389.02 172.94 389.19Z" fill="#263238"/>
<path d="M184.92 387.28C185.07 387.2 184.92 386.65 184.55 386.12C184.18 385.59 183.67 385.29 183.55 385.41C183.43 385.53 183.68 385.99 184.04 386.49C184.4 386.99 184.77 387.34 184.92 387.28Z" fill="#263238"/>
<path d="M183.74 387.94C183.9 387.88 183.82 387.27 183.46 386.62C183.1 385.97 182.62 385.62 182.46 385.7C182.3 385.78 182.56 386.33 182.89 386.93C183.22 387.53 183.56 388 183.74 387.94Z" fill="#263238"/>
<path d="M198.25 389.12C198.32 389.17 198.59 388.9 198.99 388.44C199.481 387.853 200.023 387.311 200.61 386.82C201.192 386.365 201.88 386.065 202.61 385.95C203.17 385.87 203.54 385.95 203.61 385.87C203.68 385.79 203.29 385.54 202.61 385.5C201.749 385.492 200.912 385.782 200.24 386.32C199.6 386.836 199.06 387.467 198.65 388.18C198.32 388.71 198.18 389.07 198.25 389.12Z" fill="#263238"/>
<path d="M184.87 385.28C184.78 385.42 185.09 385.78 185.62 385.98C186.15 386.18 186.62 386.1 186.62 385.93C186.62 385.76 186.27 385.56 185.81 385.39C185.35 385.22 184.96 385.17 184.87 385.28Z" fill="#263238"/>
<path d="M185.16 384.28C185.16 384.45 185.63 384.6 186.26 384.61C186.89 384.62 187.38 384.49 187.36 384.31C187.34 384.13 186.86 383.99 186.26 383.98C185.66 383.97 185.17 384.15 185.16 384.28Z" fill="#263238"/>
<path d="M224.25 385.15V374.84L242.72 374.72L242.88 390.14L241.73 390.22C236.64 390.55 215.8 391.22 212.38 390.13C208.56 388.95 224.25 385.15 224.25 385.15Z" fill="black"/>
<path d="M211.95 389.19C211.95 389.36 218.86 389.5 227.38 389.5C235.9 389.5 242.81 389.36 242.81 389.19C242.81 389.02 235.91 388.87 227.38 388.87C218.85 388.87 211.95 389.02 211.95 389.19Z" fill="#263238"/>
<path d="M223.92 387.28C224.08 387.2 223.92 386.65 223.55 386.12C223.18 385.59 222.67 385.29 222.55 385.41C222.43 385.53 222.68 385.99 223.04 386.49C223.4 386.99 223.77 387.34 223.92 387.28Z" fill="#263238"/>
<path d="M222.75 387.94C222.91 387.88 222.82 387.27 222.46 386.62C222.1 385.97 221.62 385.62 221.46 385.7C221.3 385.78 221.56 386.33 221.89 386.93C222.22 387.53 222.56 388 222.75 387.94Z" fill="#263238"/>
<path d="M237.25 389.12C237.32 389.17 237.6 388.9 238 388.44C238.486 387.848 239.028 387.305 239.62 386.82C240.2 386.361 240.889 386.062 241.62 385.95C242.18 385.87 242.55 385.95 242.62 385.87C242.69 385.79 242.31 385.54 241.62 385.5C240.759 385.492 239.922 385.782 239.25 386.32C238.612 386.839 238.074 387.469 237.66 388.18C237.32 388.71 237.18 389.07 237.25 389.12Z" fill="#263238"/>
<path d="M223.87 385.28C223.78 385.42 224.09 385.78 224.62 385.98C225.15 386.18 225.62 386.1 225.62 385.93C225.62 385.76 225.27 385.56 224.81 385.39C224.35 385.22 223.96 385.17 223.87 385.28Z" fill="#263238"/>
<path d="M224.16 384.28C224.16 384.45 224.63 384.6 225.26 384.61C225.89 384.62 226.38 384.49 226.37 384.31C226.36 384.13 225.86 383.99 225.27 383.98C224.68 383.97 224.17 384.15 224.16 384.28Z" fill="#263238"/>
<path d="M281.45 242.76C280.45 234.67 279.38 229.45 279.38 229.45L261.77 229.72C261.77 229.72 263.35 238.61 262.86 240.99C262.44 243.07 228.45 244.44 219.59 244.58C219.07 244.19 218.3 244.85 217.59 244.26C216.985 243.729 216.475 243.1 216.08 242.4C215.552 241.543 215.145 240.618 214.87 239.65C214.856 239.457 214.781 239.274 214.655 239.128C214.529 238.981 214.359 238.879 214.171 238.837C213.983 238.794 213.786 238.813 213.609 238.891C213.432 238.969 213.285 239.102 213.19 239.27C212.83 240.03 213.19 242.55 214.91 244.99C216.63 247.43 212.19 246.16 210.57 245.73C208.95 245.3 203.9 244.2 203.37 244.61C202.61 245.2 203.09 246.15 204.71 246.55C206.33 246.95 211.12 248.47 210.86 249.33C210.6 250.19 202.41 247.87 202.41 247.87C202.41 247.87 200.73 247.08 200.41 248.07C199.8 249.85 208.69 251.66 209.54 251.81C210.13 251.91 209.88 252.86 209.25 252.72C208.62 252.58 201.13 250.21 200.49 252.02C200.01 253.41 207.79 253.57 209.08 254.95C210.37 256.33 203.19 254.2 202.78 255.55C202.63 256.05 205.61 256.28 209.9 256.88C214.31 257.308 218.741 257.468 223.17 257.36C233.17 257.9 268.32 258.63 275.84 258.1C284.62 257.48 281.78 245.54 281.45 242.76Z" fill="#FFBE9D"/>
<path d="M200.33 271.28C215.491 269.767 230.755 269.573 245.95 270.7L226.67 298.39L209.27 298.46L205.63 383.53H182.56L184.76 288.64C184.859 284.365 186.482 280.266 189.337 277.083C192.192 273.9 196.091 271.841 200.33 271.28Z" fill="#263238"/>
<path opacity="0.2" d="M200.33 271.28C215.491 269.767 230.755 269.573 245.95 270.7L226.67 298.39L209.27 298.46L205.63 383.53H182.56L184.76 288.64C184.859 284.365 186.482 280.266 189.337 277.083C192.192 273.9 196.091 271.841 200.33 271.28Z" fill="black"/>
<path d="M242.69 300.57C242.69 300.57 277.16 302.91 276.3 271.96C276.3 271.96 228.37 266.13 219.19 276.02C211.49 284.31 218.53 383.53 218.53 383.53L244.16 382.28" fill="#263238"/>
<path d="M249.86 270.28C249.634 270.307 249.406 270.307 249.18 270.28L247.23 270.36C245.54 270.43 243.1 270.57 240.08 270.79L235.15 271.17C233.38 271.34 231.48 271.49 229.54 271.84C227.497 272.215 225.49 272.764 223.54 273.48C221.54 274.25 219.54 275.4 218.54 277.48C217.635 279.509 217.058 281.669 216.83 283.88C216.582 285.951 216.439 288.034 216.4 290.12C216.31 294.12 216.12 297.72 215.99 300.75C215.86 303.78 215.77 306.15 215.7 307.9C215.7 308.71 215.65 309.35 215.63 309.85C215.635 310.077 215.618 310.305 215.58 310.53C215.535 310.306 215.518 310.078 215.53 309.85C215.53 309.41 215.53 308.75 215.53 307.9C215.53 306.21 215.53 303.76 215.65 300.73C215.77 297.7 215.88 294.1 215.95 290.11C215.972 288.007 216.109 285.907 216.36 283.82C216.581 281.55 217.168 279.331 218.1 277.25C218.621 276.181 219.401 275.259 220.37 274.57C221.3 273.925 222.308 273.4 223.37 273.01C225.353 272.293 227.394 271.748 229.47 271.38C231.47 271.04 233.37 270.9 235.14 270.75C236.91 270.6 238.58 270.51 240.09 270.43C243.09 270.26 245.56 270.18 247.26 270.16C248.1 270.16 248.76 270.16 249.21 270.16C249.43 270.176 249.648 270.217 249.86 270.28Z" fill="#455A64"/>
<path d="M244.36 375.82C244.035 375.917 243.699 375.971 243.36 375.98C242.71 376.04 241.75 376.12 240.57 376.2C238.22 376.37 234.96 376.56 231.36 376.74C227.76 376.92 224.5 377.06 222.14 377.13C220.96 377.13 220 377.19 219.34 377.19C219.006 377.217 218.67 377.2 218.34 377.14C218.666 377.049 219.002 376.999 219.34 376.99C220 376.92 220.95 376.85 222.13 376.77C224.48 376.6 227.74 376.41 231.34 376.22C234.94 376.03 238.2 375.91 240.56 375.83C241.74 375.83 242.7 375.78 243.36 375.78C243.694 375.753 244.029 375.766 244.36 375.82Z" fill="#455A64"/>
<path d="M206.39 376.98C206.39 377.12 201.04 377.24 194.39 377.24C187.74 377.24 182.39 377.12 182.39 376.98C182.39 376.84 187.75 376.72 194.39 376.72C201.03 376.72 206.39 376.83 206.39 376.98Z" fill="#455A64"/>
<path d="M216.98 281.47C216.884 281.485 216.786 281.485 216.69 281.47L215.84 281.4C215.1 281.33 214 281.24 212.58 281.18C211.16 281.12 209.42 281.06 207.41 281.18C206.338 281.226 205.269 281.336 204.21 281.51C203.031 281.664 201.889 282.03 200.84 282.59C200.291 282.876 199.849 283.332 199.58 283.89C199.32 284.507 199.103 285.142 198.93 285.79C198.562 287.173 198.285 288.58 198.1 290C197.81 293 197.55 296.15 197.31 299.5C196.83 306.21 196.48 313.59 196.2 321.34C195.68 336.86 195.09 350.9 194.67 361.07C194.45 366.12 194.27 370.22 194.14 373.07C194.06 374.46 194.01 375.56 193.97 376.34C193.97 376.69 193.97 376.97 193.91 377.19C193.922 377.286 193.922 377.383 193.91 377.48C193.899 377.383 193.899 377.286 193.91 377.19V376.34C193.91 375.55 193.91 374.46 193.99 373.06C194.07 370.18 194.2 366.06 194.35 361.06C194.71 350.86 195.2 336.83 195.73 321.33C196.01 313.58 196.38 306.19 196.88 299.48C197.133 296.146 197.413 292.97 197.72 289.95C197.913 288.511 198.207 287.087 198.6 285.69C198.772 285.022 199 284.37 199.28 283.74C199.587 283.115 200.084 282.604 200.7 282.28C201.796 281.711 202.985 281.341 204.21 281.19C205.283 281.029 206.365 280.932 207.45 280.9C209.181 280.849 210.913 280.886 212.64 281.01C214.06 281.11 215.16 281.24 215.9 281.33L216.75 281.46C216.827 281.454 216.904 281.457 216.98 281.47Z" fill="#455A64"/>
<path d="M270.56 271.37C270.575 271.486 270.575 271.603 270.56 271.72C270.56 271.95 270.51 272.3 270.43 272.72C270.189 274.038 269.719 275.304 269.04 276.46C268.151 277.949 266.938 279.218 265.49 280.174C264.043 281.13 262.399 281.747 260.68 281.98C259.204 282.11 257.721 282.153 256.24 282.11H240.46C239.46 282.11 238.46 282.11 237.52 282.11C236.538 282.146 235.572 282.378 234.68 282.79C233.759 283.215 232.931 283.818 232.245 284.564C231.558 285.311 231.026 286.186 230.68 287.14C230.334 288.135 230.178 289.187 230.22 290.24V293.55C230.22 298 230.22 302.61 230.22 307.34C230.22 326.22 230.16 343.34 230.14 355.72C230.14 361.88 230.08 366.89 230.06 370.38C230.06 372.09 230.06 373.38 230.06 374.38C230.06 374.81 230.06 375.15 230.06 375.38C230.06 375.61 230.06 375.73 230.06 375.73C230.046 375.613 230.046 375.496 230.06 375.38C230.06 375.12 230.06 374.78 230.06 374.38C230.06 373.38 230.06 372.1 230.06 370.38C230.06 366.89 230.06 361.88 229.98 355.72C229.98 343.31 229.93 326.22 229.9 307.34C229.9 302.61 229.9 298 229.9 293.55V290.28C229.864 289.167 230.037 288.058 230.41 287.01C230.782 285.993 231.353 285.061 232.09 284.267C232.826 283.474 233.714 282.836 234.7 282.39C235.645 281.961 236.663 281.72 237.7 281.68C238.7 281.68 239.7 281.68 240.7 281.68H246.34L256.46 281.74C257.924 281.792 259.39 281.762 260.85 281.65C262.531 281.434 264.142 280.845 265.566 279.926C266.99 279.008 268.191 277.782 269.08 276.34C269.772 275.211 270.269 273.974 270.55 272.68C270.64 272.24 270.68 271.9 270.72 271.68C270.76 271.46 270.56 271.37 270.56 271.37Z" fill="#455A64"/>
<path d="M243.03 293.71C243.234 296.355 243.083 299.015 242.58 301.62C242.405 300.292 242.405 298.947 242.58 297.62C242.563 296.303 242.715 294.989 243.03 293.71Z" fill="#455A64"/>
<path d="M99.91 236.57C99.91 236.57 98.8 227.74 99.67 227.74C100.54 227.74 101.08 236.57 101.08 236.57H99.62" fill="#263238"/>
<path d="M102.79 236.57C102.79 236.57 101.68 227.74 102.56 227.74C103.44 227.74 103.96 236.57 103.96 236.57H102.5" fill="#FF725E"/>
<path opacity="0.3" d="M102.79 236.57C102.79 236.57 101.68 227.74 102.56 227.74C103.44 227.74 103.96 236.57 103.96 236.57H102.5" fill="black"/>
<path d="M107.2 236.57C107.2 236.57 106.09 227.74 106.97 227.74C107.85 227.74 108.37 236.57 108.37 236.57H106.91" fill="#263238"/>
<path d="M104.62 237.03C104.62 237.03 104.62 228.14 105.5 228.25C106.38 228.36 105.78 237.18 105.78 237.18L104.33 237" fill="#455A64"/>
<path d="M101.92 236.57C101.92 236.57 100.81 227.74 101.69 227.74C102.57 227.74 103.09 236.57 103.09 236.57H101.63" fill="#FF725E"/>
<path opacity="0.5" d="M101.92 236.57C101.92 236.57 100.81 227.74 101.69 227.74C102.57 227.74 103.09 236.57 103.09 236.57H101.63" fill="white"/>
<path d="M99.73 250.46L98.26 236.57H110.04V250.46H99.73Z" fill="#B9A5FF"/>
<path d="M350.2 250.52H89.91V257.47H103.83L96.62 390.11H100.59L107.8 257.47H336L342.15 390.09L346.54 390.32L339.97 257.47H350.2V250.52Z" fill="#263238"/>
<path d="M175.12 209.47L189.56 251.65H254.92L254.43 249.47L228 248.66L215.83 209.45L175.12 209.47Z" fill="#263238"/>
<path d="M204.09 229.28C204.52 231.01 203.78 232.7 202.43 233.06C201.08 233.42 199.65 232.31 199.22 230.58C198.79 228.85 199.53 227.16 200.87 226.8C202.21 226.44 203.66 227.55 204.09 229.28Z" fill="white"/>
<path d="M330.56 237.62C329.395 236.756 327.956 236.344 326.51 236.46C326.51 235.67 326.51 235.19 326.51 235.19H304.34C304.34 235.19 303.65 249.8 314.83 250.32C319.83 250.55 322.71 248.32 324.35 245.48C325.168 245.68 326.007 245.784 326.85 245.79C328.09 245.836 329.313 245.486 330.34 244.79C330.9 244.349 331.344 243.777 331.634 243.125C331.923 242.474 332.049 241.761 332 241.05C332.032 240.407 331.919 239.765 331.67 239.171C331.421 238.577 331.042 238.047 330.56 237.62ZM329.05 243.05C328.05 243.76 326.41 243.65 325.31 243.45C325.868 241.901 326.231 240.288 326.39 238.65C327.36 238.532 328.34 238.758 329.16 239.29C329.398 239.515 329.582 239.791 329.698 240.098C329.814 240.404 329.859 240.733 329.83 241.06C329.87 241.431 329.818 241.806 329.681 242.152C329.543 242.499 329.323 242.807 329.04 243.05H329.05Z" fill="#27160C"/>
<path d="M324.64 233.65C324.435 233.469 324.257 233.26 324.11 233.03C323.666 232.377 323.357 231.643 323.2 230.87C322.935 229.635 323.05 228.348 323.53 227.18C324.297 225.72 325.351 224.431 326.63 223.39C328.076 222.067 329.058 220.314 329.43 218.39C329.872 216.202 329.445 213.928 328.24 212.05C327.597 211.043 326.761 210.173 325.78 209.49C324.719 208.819 323.567 208.303 322.36 207.96C321.049 207.596 319.822 206.978 318.75 206.14C318.21 205.672 317.774 205.096 317.47 204.45C317.136 203.778 317.041 203.013 317.2 202.28L317.29 201.98L317.62 202.31C317.041 202.575 316.547 202.996 316.194 203.526C315.841 204.056 315.642 204.673 315.62 205.31C315.555 206.582 315.839 207.847 316.44 208.97C316.99 210.12 317.67 211.2 318.16 212.37C318.712 213.507 318.953 214.769 318.86 216.03C318.702 217.24 318.121 218.356 317.22 219.18C316.4 219.944 315.461 220.569 314.44 221.03C312.5 221.91 310.59 222.43 309.07 223.34C307.693 224.137 306.602 225.348 305.95 226.8C305.455 227.896 305.199 229.086 305.2 230.29C305.231 231.314 305.427 232.327 305.78 233.29C305.78 233.29 305.78 233.23 305.68 233.11C305.584 232.934 305.504 232.75 305.44 232.56C305.172 231.828 305.023 231.058 305 230.28C304.961 229.037 305.197 227.801 305.69 226.66C306.336 225.134 307.454 223.855 308.88 223.01C310.628 222.115 312.424 221.317 314.26 220.62C315.228 220.174 316.116 219.572 316.89 218.84C317.711 218.086 318.239 217.066 318.38 215.96C318.461 214.784 318.23 213.607 317.71 212.55C317.23 211.43 316.55 210.35 315.98 209.16C315.326 207.958 315.024 206.595 315.11 205.23C315.184 204.521 315.416 203.837 315.79 203.23C316.179 202.594 316.771 202.108 317.47 201.85L317.94 201.69L317.8 202.18L317.73 202.43C317.645 203.062 317.727 203.705 317.969 204.295C318.212 204.885 318.605 205.4 319.11 205.79C320.132 206.576 321.297 207.156 322.54 207.5C323.791 207.865 324.983 208.407 326.08 209.11C327.116 209.827 327.994 210.75 328.66 211.82C329.92 213.803 330.354 216.2 329.87 218.5C329.445 220.49 328.394 222.291 326.87 223.64C325.606 224.637 324.555 225.878 323.78 227.29C323.3 228.401 323.161 229.629 323.38 230.82C323.573 231.848 324.005 232.818 324.64 233.65Z" fill="#263238"/>
<path d="M120.36 214.16L120.23 204.6L153.74 207.44L154.69 215.97L120.36 214.16Z" fill="#263238"/>
<path d="M124.05 214.36C123.735 212.81 123.584 211.231 123.6 209.65C123.457 208.075 123.483 206.489 123.68 204.92C123.996 206.469 124.144 208.048 124.12 209.63C124.271 211.204 124.247 212.79 124.05 214.36Z" fill="#455A64"/>
<path d="M125.31 205.03C125.603 206.575 125.724 208.148 125.67 209.72C125.796 211.291 125.743 212.871 125.51 214.43C125.223 212.88 125.102 211.305 125.15 209.73C125.03 208.162 125.084 206.586 125.31 205.03Z" fill="#455A64"/>
<path d="M128.36 209.28C134.2 209.92 141.06 210.28 147 210.82L128.36 209.28Z" fill="white"/>
<path d="M147 210.78C146.087 210.845 145.17 210.828 144.26 210.73C142.56 210.65 140.26 210.5 137.66 210.31C135.06 210.12 132.75 209.9 131.07 209.7C130.153 209.639 129.245 209.485 128.36 209.24C129.274 209.184 130.191 209.214 131.1 209.33L137.69 209.79C140.27 209.98 142.6 210.18 144.28 210.37C145.198 210.415 146.109 210.552 147 210.78Z" fill="#455A64"/>
<path d="M149.45 215.69C148.964 212.867 148.823 209.996 149.03 207.14C149.516 209.962 149.657 212.833 149.45 215.69Z" fill="#455A64"/>
<path d="M151.56 215.8C151.163 214.412 150.935 212.982 150.88 211.54C150.651 210.115 150.597 208.668 150.72 207.23C151.11 208.619 151.338 210.048 151.4 211.49C151.623 212.915 151.677 214.362 151.56 215.8Z" fill="#455A64"/>
<path d="M133.33 211.38C137.02 211.63 139.83 211.81 142.77 211.88L133.33 211.38Z" fill="white"/>
<path d="M142.77 211.88C141.198 212.058 139.612 212.058 138.04 211.88C136.456 211.879 134.877 211.708 133.33 211.37C134.902 211.192 136.488 211.192 138.06 211.37C139.644 211.37 141.223 211.541 142.77 211.88Z" fill="#455A64"/>
<path d="M126.84 250.64L125.93 241.12L159.55 241.18L161.38 250.52L126.84 250.64Z" fill="#B9A5FF"/>
<path opacity="0.5" d="M126.84 250.64L125.93 241.12L159.55 241.18L161.38 250.52L126.84 250.64Z" fill="#B9A5FF"/>
<path d="M133.602 244.839L133.599 246.559L154.629 246.596L154.632 244.876L133.602 244.839Z" fill="#263238"/>
<path d="M122.1 241.92L121.29 232.4L154.91 232.81L156.48 241.26L122.1 241.92Z" fill="#263238"/>
<path d="M121.4 233.69L121.93 240.12L154.63 239.79L153.59 233.91L121.4 233.69Z" fill="white"/>
<path d="M151.87 236.54C151.481 236.612 151.085 236.638 150.69 236.62H147.47C144.75 236.62 141 236.62 136.86 236.52C132.72 236.42 128.97 236.35 126.25 236.26L123.04 236.12C122.643 236.129 122.247 236.089 121.86 236C122.249 235.926 122.645 235.9 123.04 235.92H126.26C128.97 235.92 132.72 235.92 136.87 236.02C141.02 236.12 144.76 236.19 147.48 236.28L150.69 236.42C151.087 236.41 151.483 236.45 151.87 236.54Z" fill="#263238"/>
<path d="M151.87 237.35C151.48 237.438 151.08 237.479 150.68 237.47L147.44 237.6C144.71 237.69 140.93 237.77 136.76 237.83C132.59 237.89 128.76 237.91 126.07 237.9H122.83C122.431 237.92 122.031 237.889 121.64 237.81C122.032 237.734 122.431 237.693 122.83 237.69L126.07 237.56C128.8 237.48 132.58 237.4 136.75 237.34C140.92 237.28 144.7 237.25 147.44 237.26H150.68C151.079 237.25 151.477 237.28 151.87 237.35Z" fill="#263238"/>
<path d="M122.6 232.83L121.97 223.29L155.58 224.35L156.98 232.82L122.6 232.83Z" fill="#455A64"/>
<path d="M123.93 231.63L156.64 231.16L155.73 225.22L123.32 224.62L123.93 231.63Z" fill="white"/>
<path d="M123.52 223.47L123.21 213.92L156.76 216.11L157.88 224.62L123.52 223.47Z" fill="#B9A5FF"/>
<path d="M130.392 216.471L130.288 218.191L151.318 219.452L151.422 217.732L130.392 216.471Z" fill="#263238"/>
<path d="M156.06 227.67C155.638 227.744 155.209 227.778 154.78 227.77L151.28 227.87C148.28 227.93 144.28 227.97 139.74 227.99C135.2 228.01 131.15 227.99 128.19 227.99L124.7 227.92C124.268 227.934 123.835 227.901 123.41 227.82C123.832 227.745 124.261 227.712 124.69 227.72L128.19 227.62C131.19 227.56 135.19 227.52 139.74 227.5C144.29 227.48 148.33 227.5 151.28 227.5L154.78 227.57C155.209 227.554 155.638 227.588 156.06 227.67Z" fill="#263238"/>
<path d="M156.45 229.52C156.021 229.591 155.585 229.618 155.15 229.6H151.63C148.63 229.6 144.54 229.6 140 229.51C135.46 229.42 131.36 229.37 128.38 229.28L124.86 229.15C124.427 229.147 123.996 229.106 123.57 229.03C123.995 228.949 124.428 228.919 124.86 228.94H128.38C131.38 228.94 135.47 228.94 140.01 229.02C144.55 229.1 148.66 229.17 151.64 229.26L155.16 229.39C155.594 229.383 156.026 229.427 156.45 229.52Z" fill="#263238"/>
</svg>
