<svg width="260" height="229" viewBox="0 0 260 229" fill="none" xmlns="http://www.w3.org/2000/svg">
<g filter="url(#filter0_i_118_38)">
<path fill-rule="evenodd" clip-rule="evenodd" d="M204.524 169.708C210.192 157.863 218.475 147.204 228.637 138.887C231.558 136.496 234.323 133.947 236.911 131.254C246.982 120.772 254.072 108.418 257.553 95.2859C261.034 82.154 260.798 68.6495 256.866 55.9687C252.934 43.288 245.427 31.8222 235.011 22.5872C224.595 13.3521 211.591 6.63286 197.151 3.02451C182.711 -0.583848 167.28 -0.969888 152.225 1.90058C137.171 4.77105 122.958 10.8094 110.844 19.4808C103.465 24.7634 95.0081 28.51 86.085 30.165C37.0077 39.2677 0 79.8919 0 128.629C0 184.063 47.8744 229 106.93 229C150.394 229 187.801 204.659 204.524 169.708Z" fill="#B9A5FF"/>
</g>
<defs>
<filter id="filter0_i_118_38" x="0" y="0" width="260" height="233" filterUnits="userSpaceOnUse" color-interpolation-filters="sRGB">
<feFlood flood-opacity="0" result="BackgroundImageFix"/>
<feBlend mode="normal" in="SourceGraphic" in2="BackgroundImageFix" result="shape"/>
<feColorMatrix in="SourceAlpha" type="matrix" values="0 0 0 0 0 0 0 0 0 0 0 0 0 0 0 0 0 0 127 0" result="hardAlpha"/>
<feOffset dy="4"/>
<feGaussianBlur stdDeviation="2"/>
<feComposite in2="hardAlpha" operator="arithmetic" k2="-1" k3="1"/>
<feColorMatrix type="matrix" values="0 0 0 0 0 0 0 0 0 0 0 0 0 0 0 0 0 0 0.25 0"/>
<feBlend mode="normal" in2="shape" result="effect1_innerShadow_118_38"/>
</filter>
</defs>
</svg>
